<svg xmlns="http://www.w3.org/2000/svg" xmlns:xlink="http://www.w3.org/1999/xlink"><defs><clipPath id="a"><path fill="#fff" fill-opacity="0" d="M0 0h27v34H0z"/></clipPath><clipPath id="a"><path transform="translate(15 14)" fill="#fff" fill-opacity="0" d="M0 0h30v32H0z"/></clipPath><clipPath id="a"><path transform="translate(0 11)" fill="#fff" fill-opacity="0" d="M0 0h67v28H0z"/></clipPath><clipPath id="a"><path transform="translate(7)" fill="#fff" fill-opacity="0" d="M0 0h36v50H0z"/></clipPath><clipPath id="a"><path transform="translate(0 20)" fill="#fff" fill-opacity="0" d="M0 0h134v56H0z"/></clipPath><clipPath id="a"><path transform="translate(15)" fill="#fff" fill-opacity="0" d="M0 0h70v97H0z"/></clipPath><clipPath id="a"><path transform="translate(0 -.095)" fill="#fff" fill-opacity="0" d="M0 0h78v80.033H0z"/></clipPath><clipPath id="a"><path fill="#fff" fill-opacity="0" d="M0 0h101v18H0z"/></clipPath><clipPath id="a"><path transform="translate(141 1.5)" fill="#fff" fill-opacity="0" d="M0 0h27v34H0z"/></clipPath><clipPath id="a"><path fill="#fff" fill-opacity="0" d="M0 0h33v38H0z"/></clipPath><clipPath id="a"><path transform="translate(136)" fill="#fff" fill-opacity="0" d="M0 0h27v34H0z"/></clipPath><clipPath id="a"><path transform="translate(141 1.5)" fill="#fff" fill-opacity="0" d="M0 0h27v34H0z"/></clipPath><clipPath id="a"><path transform="translate(24 25)" fill="#fff" fill-opacity="0" d="M0 0h30v32H0z"/></clipPath><clipPath id="a"><path transform="translate(0 44)" fill="#fff" fill-opacity="0" d="M0 0h268v112H0z"/></clipPath><clipPath id="a"><path transform="translate(30)" fill="#fff" fill-opacity="0" d="M0 0h140v194H0z"/></clipPath><clipPath id="a"><path fill="#fff" fill-opacity="0" d="M0 0h28v22H0z"/></clipPath><clipPath id="a"><path fill="#fff" fill-opacity="0" d="M0 0h28v22H0z"/></clipPath><clipPath id="a"><path fill="#fff" fill-opacity="0" d="M0 0h28v22H0z"/></clipPath></defs><symbol id="academy-footer-pic"><g fill="none"><path fill="none" d="M0 0h27v34H0z"/><g clip-path="url(#a)"><path d="M13.64.01L13.5 0 0 1.4v24.61L13.5 34 27 26.01V1.4L13.64.01zm11.59 25L13.5 31.95 1.76 25.01V14.92l11.69 6.92.02 1.25-8.02-4.74-.01 1.23 8.04 4.8.02 1.29-8.04-4.76-.01 1.23 8.05 4.81 8.12-4.84V16.9l3.62-2.15-.01 10.26zm0-11.56l-3.22 1.88-1.48.87-7.07-4.18-.01 1.22 6.04 3.57-.05.03-.13.08-.86.49-4.99-2.95-.01 1.23 3.94 2.33-.94.61-.02.01-2.97-1.74-.01 1.22 1.95 1.14-1.99 1.18-11.62-6.87 11.64-6.96 11.8 6.84zm0-1.23L13.44 5.31l-11.68 6.9V2.98L13.5 1.76l11.73 1.22v9.24z" fill="#666"/></g></g></symbol><symbol id="academy-footer"><g fill="none"><path d="M79.86 11.19V-.6h-1.43v4.49c-.27-.3-.59-.53-.95-.69-.35-.18-.77-.26-1.27-.26-.54 0-1.03.11-1.47.33-.43.21-.8.51-1.1.89-.3.37-.53.82-.69 1.34a5.55 5.55 0 00-.24 1.66q0 1.01.22 1.79c.14.51.35.95.62 1.29.26.35.59.61.96.8.38.17.8.26 1.27.26q.83 0 1.47-.35.03-.02.06-.03c.45-.26.84-.6 1.19-1.01l.13.98c.05.2.18.3.38.3h.85zm-71.11 0V-.28H7.2v5.12H1.01V-.28H-.54v11.47h1.55V5.97H7.2v5.22h1.55zm6.97-10.16h3.71V-.28h-8.98v1.31h3.72v10.16h1.55V1.03zm17.34 10.16V-.28h-1.15q-.2 0-.32.04c-.08.03-.15.1-.21.23l-3.89 7.05c-.07.12-.13.26-.19.4s-.12.28-.17.43a3.25 3.25 0 00-.18-.43c-.05-.14-.12-.27-.18-.4L22.81-.01c-.07-.13-.14-.2-.22-.23q-.11-.04-.32-.04h-1.14v11.47h1.36V2.76c0-.24-.02-.5-.05-.78l4.02 7.2c.12.24.31.36.56.36h.22c.25 0 .44-.12.56-.36l3.94-7.17q-.02.2-.03.39-.01.2-.01.36v8.43h1.36zm9.43 0V9.88h-4.96V-.28h-1.54v11.47h6.5zm12.92 0h1.2L52.02-.28h-1.56l-4.59 11.47h1.2q.16 0 .27-.07.04-.02.07-.04a.56.56 0 00.18-.26l1.07-2.77h5.15l1.07 2.77c.04.11.11.19.19.26.09.07.2.11.34.11zm-3.83-8.92l1.8 4.66H49.1l1.8-4.65c.11-.29.23-.65.34-1.08q.08.31.17.59c.06.18.11.34.17.48zm14.86.99c-.52.21-1 .54-1.45.97l.26.45c.05.08.11.14.18.2.06.04.15.07.24.07.13 0 .25-.05.37-.13.13-.09.28-.19.45-.3.18-.11.38-.21.62-.29.24-.09.53-.14.88-.14.53 0 .92.16 1.2.49q.4.48.4 1.42v.64c-.92.02-1.7.1-2.33.25-.64.15-1.15.33-1.55.56-.39.23-.68.49-.85.79-.18.3-.27.6-.27.92 0 .37.06.69.18.96q.18.4.48.66l.01.01c.21.17.45.31.73.4.27.08.57.13.88.13q.47 0 .84-.09c.26-.06.5-.13.72-.23.23-.11.44-.24.64-.39.21-.15.41-.33.63-.53l.16.77c.04.13.1.23.17.27.08.05.18.07.32.07h.64V6c0-.45-.07-.87-.19-1.24-.12-.38-.3-.71-.54-.97-.24-.27-.54-.48-.89-.63-.35-.15-.76-.22-1.21-.22q-.94 0-1.72.32zm-3.37 1.4c.05-.03.09-.08.13-.14l.38-.51a3.73 3.73 0 00-1.16-.77c-.44-.19-.94-.28-1.51-.28-.61 0-1.15.1-1.63.31-.47.21-.87.5-1.19.87-.32.37-.57.81-.74 1.32-.16.51-.25 1.07-.25 1.67 0 .66.1 1.25.28 1.77.18.52.43.95.75 1.31.32.35.69.62 1.13.81.43.19.91.28 1.41.28.3 0 .58-.02.87-.07.28-.05.55-.13.8-.23a3 3 0 00.73-.39c.23-.15.43-.34.6-.56l-.4-.52a.307.307 0 00-.27-.14c-.1 0-.19.05-.3.13-.09.08-.21.17-.36.28-.15.1-.33.19-.56.28-.22.08-.5.12-.85.12-.36 0-.69-.07-.99-.2-.28-.14-.53-.34-.74-.6-.2-.26-.36-.58-.47-.96a4.73 4.73 0 01-.17-1.31q0-.7.15-1.27c.11-.38.26-.7.47-.97.2-.27.46-.47.76-.61.31-.14.66-.21 1.06-.21.3 0 .55.03.75.1.21.06.38.14.52.22.15.08.27.15.36.22.1.06.19.1.27.1.07 0 .13-.02.17-.05zm24.98 5.95c.25-.16.46-.35.63-.56l-.4-.52a.307.307 0 00-.27-.14c-.09 0-.2.05-.33.13-.12.08-.27.17-.46.27-.19.09-.41.18-.67.27-.26.08-.57.12-.92.12-.39 0-.73-.06-1.04-.18-.31-.13-.58-.32-.8-.57-.23-.26-.4-.58-.53-.96a5.01 5.01 0 01-.21-1.33h5.42q.17 0 .25-.09l.02-.02c.05-.08.07-.23.07-.45 0-.58-.08-1.09-.25-1.54-.18-.45-.41-.83-.72-1.13-.3-.31-.65-.55-1.07-.71-.41-.16-.86-.24-1.34-.24q-.88 0-1.59.31c-.47.2-.86.48-1.19.85-.32.35-.57.78-.75 1.27-.17.49-.26 1.02-.26 1.58 0 .7.1 1.32.29 1.86.19.54.46.99.8 1.36.35.36.76.64 1.23.83.47.19.99.28 1.55.28.29 0 .59-.03.89-.08.29-.05.58-.12.86-.22.28-.11.55-.23.79-.39zm2.51-7.53v8.11h1.43V5.15c.25-.33.53-.58.83-.77.3-.19.62-.29.97-.29q.57 0 .93.27.12.09.22.21c.26.32.39.81.39 1.46v5.16h1.43V6.03c0-.32.05-.6.14-.84.09-.25.22-.45.38-.61.16-.16.34-.28.55-.36.22-.09.44-.13.67-.13q.6 0 .98.28.12.1.22.22c.28.32.42.8.42 1.44v5.16h1.43V6.03q0-.74-.18-1.31c-.12-.38-.3-.7-.54-.96-.23-.27-.51-.46-.85-.6-.33-.14-.7-.2-1.13-.2-.27 0-.53.03-.79.09-.26.07-.5.17-.73.31-.23.13-.44.31-.63.52-.18.22-.33.47-.44.76-.15-.51-.4-.92-.74-1.23-.34-.3-.78-.45-1.32-.45q-.61 0-1.11.24-.09.05-.19.11c-.37.23-.7.53-1 .9l-.11-.83c-.05-.2-.17-.3-.37-.3h-.86zm15.43 10.5l4.52-10.5h-1.13c-.1 0-.19.03-.27.09-.07.05-.12.12-.16.21l-2.1 5.09c-.09.23-.17.47-.24.72-.06-.25-.13-.48-.22-.71l-2.16-5.1a.433.433 0 00-.16-.2.414.414 0 00-.28-.1h-1.24l3.35 7.64-1.48 3.21h1.05c.15 0 .26-.03.33-.09.08-.07.14-.15.19-.26zm-18.6-8.23c.09.27.14.57.14.9H83.1c.1-.7.34-1.25.74-1.65.4-.4.94-.6 1.62-.6q.49 0 .87.17c.26.11.47.26.65.47.18.19.32.43.41.71zm-9.82-1.08c.31.14.6.38.86.74v3.91c-.29.39-.61.69-.96.91-.35.21-.76.32-1.23.32-.32 0-.61-.06-.87-.17-.26-.11-.47-.29-.65-.53-.17-.24-.31-.55-.4-.93-.09-.38-.13-.83-.13-1.36 0-.99.2-1.76.6-2.3q.23-.3.52-.48.5-.33 1.22-.33c.38 0 .73.07 1.04.22zM67.91 7.7c.47-.09 1.03-.14 1.68-.16v1.68c-.16.17-.32.32-.49.46-.17.13-.34.24-.53.34-.18.1-.38.17-.58.22-.21.05-.44.08-.69.08-.19 0-.37-.03-.53-.07-.16-.05-.3-.12-.42-.21a1 1 0 01-.28-.39c-.07-.15-.11-.34-.11-.55 0-.22.07-.43.19-.61.14-.18.35-.34.64-.47q.44-.2 1.12-.32z" fill="#444" fill-rule="evenodd"/></g></symbol><symbol id="advan-nutrition"><g fill="none"><path fill="#68B738" d="M0 0h60v60H0z"/><path fill="none" d="M15 14h30v32H15z"/><g clip-path="url(#a)"><path d="M623.43 151.99h24.38v18l-13.13 NaNM627.18 169.99h-3.75vNaNM634.68 170l-7.5 6vNaN" stroke="#FFF" stroke-width="2" stroke-linejoin="round" stroke-linecap="round"/><path d="M42.84 16.76c-.1-.45-.48-.76-.91-.76h-.01c-4.94.03-16.94.91-21.79 8.38-2.52 3.87-2.74 8.91-.65 14.96.02.05.05.08.08.12-.75 1.97-1.04 3.29-1.05 3.33-.11.54.22 1.07.72 1.18.07.02.13.03.2.03.43 0 .82-.33.91-.79.02-.11 2.41-10.38 10.86-16.38.43-.31.55-.93.26-1.39-.29-.46-.87-.58-1.3-.28-4.79 3.41-7.74 8.01-9.48 11.66-1.24-4.58-.91-8.38.99-11.31 3.74-5.76 12.62-7.15 17.98-7.44-1.15 1.8-2.41 5.1-2.41 10.93 0 3.12-.83 5.52-2.46 7.14-2.63 2.59-6.88 2.83-10 2.58-.52-.05-.96.37-1 .92-.04.55.34 1.03.86 1.07.62.05 1.29.09 1.98.09 3.17 0 6.87-.67 9.43-3.2 2.03-2.01 3.07-4.9 3.07-8.6 0-9.1 3.21-11.1 3.23-11.11.39-.21.59-.68.49-1.13z" fill="#FFF"/></g></g></symbol><symbol id="advan-powder"><g fill="none"><path fill="#68B738" d="M0 0h60v60H0z"/><path d="M28.37 16c-1.63 0-2.9 1.35-2.9 3.08 0 1.72 1.27 3.08 2.9 3.08s2.9-1.36 2.9-3.08c0-1.73-1.27-3.08-2.9-3.08zm0 1.17c1 0 1.72.85 1.72 1.91 0 .99-.79 1.9-1.72 1.9-1 0-1.72-.84-1.72-1.9 0-1 .78-1.91 1.72-1.91zM17.5 40.74c0 1.17.4 2.17 1.35 2.99 1 .85 2.18.78 2.18.78h19.03c.78 0 1.81-.38 2.63-1.45.84-1 .79-2.36.79-2.36V23.48c0-.43-.11-.6-.75-.6-.63 0-.68.27-.68.59v17.22c-.02.3-.08 1.09-.75 1.72-.73.63-1.45.55-1.45.55s-18.12 0-19.03-.03c-.34-.06-.91-.19-1.45-.91-.51-.72-.41-1.63-.41-1.63V23.17c0-.46-.23-.63-.72-.63s-.74.17-.74.58v17.62zm16.31-16.32c-1.09.24-2.18.38-4.26 2.36-2.09 1.99-3.63 1.9-5.17 1.81-1.54-.09-3.17-1.54-3.44-1.9-.34-.35-.91-.12-1.09.12-.15.23-.15.64.11.99 1.27 1.18 2.45 2.09 4.71 2.27 2.27.22 4.44-.81 5.89-2.27 1.45-1.45 2.18-1.72 3.27-1.9 2.62-.42 4.16.62 5.07 1.27 1 1.09 1.27.78 1.54.47.55-.72-.23-1.27-1.09-1.9-1.81-1.18-3.53-1.63-5.52-1.27l-.02-.05zm-9.06 7.16c-1.18 0-2.09 1-2.09 2.27s.91 2.26 2.09 2.26c1.17 0 2.08-.99 2.08-2.26 0-1.27-.91-2.27-2.08-2.27zm11.78.78c-1.54 0-2.81 1.36-2.81 2.99 0 1.63 1.27 2.99 2.81 2.99s2.81-1.36 2.81-2.99c0-1.63-1.27-2.99-2.81-2.99zm0 1.45c.79 0 1.45.7 1.45 1.54 0 .86-.66 1.54-1.45 1.54-.8 0-1.45-.69-1.45-1.54 0-.86.65-1.54 1.45-1.54z" fill="#FFF"/></g></symbol><symbol id="advan-reception"><g fill="none"><path fill="#68B738" d="M0 0h60v60H0z"/><path fill="none" d="M17.5 15h25v30h-25z"/><path d="M36.11 15.07c.38-.15.81-.07 1.09.22.91.91 2.1 2.88 3.06 5.92C41.23 24.28 42 28.5 42 34c0 .55-.45 1-1 1h-3.5v9c0 .55-.45 1-1 1-.56 0-1-.45-1-1V16c0-.41.24-.77.61-.93zM37.5 33h2.49c-.09-4.82-.79-8.52-1.64-11.19-.27-.88-.57-1.64-.85-2.3V33zM19 15c.55 0 1 .44 1 1v5.5c0 .55.19 1.31.7 1.91.35.43.91.82 1.8.99V16c0-.56.44-1 1-1 .55 0 1 .44 1 1v8.4c.88-.17 1.44-.56 1.79-.99.51-.6.71-1.36.71-1.91V16c0-.56.44-1 1-1 .55 0 1 .44 1 1v5.5c0 .94-.31 2.18-1.18 3.2-.74.88-1.83 1.53-3.32 1.73V44c0 .55-.45 1-1 1-.56 0-1-.45-1-1V26.43c-1.5-.2-2.59-.85-3.33-1.73-.87-1.02-1.17-2.26-1.17-3.2V16c0-.56.44-1 1-1z" fill="#FFF" fill-rule="evenodd"/></g></symbol><symbol id="advan-time"><g fill="none"><path fill="#68B738" d="M0 0h60v60H0z"/><path d="M23.12 15c-1.07 0-1.07 1.58 0 1.58h6.66v1.6c-6.82.44-12.22 6.23-12.22 13.3 0 4.01 1.75 7.63 4.51 10.07.48.42.54 1.17.11 1.63l-1.54 1.56c-.75.68.36 1.75 1.04 1l2-2.04c.35-.34.88-.42 1.31-.21 1.73.84 3.62 1.29 5.55 1.3 1.92.01 3.82-.41 5.56-1.24.42-.21.96-.12 1.3.22l1.94 1.97c.68.63 1.67-.32 1.05-1l-1.45-1.48c-.45-.46-.39-1.2.1-1.64a13.5 13.5 0 003.42-4.58c.79-1.75 1.2-3.65 1.19-5.57 0-7.07-5.43-12.88-12.27-13.29v-1.6h6.67c1.07 0 1.07-1.58 0-1.58H23.12zM19 31.47c0-6.53 5.19-11.82 11.6-11.82 6.4 0 11.6 5.29 11.6 11.82 0 6.54-5.2 11.84-11.6 11.84-6.4 0-11.6-5.3-11.6-11.84zm10.79-8.1c0-1.09 1.67-1.09 1.67 0v8.64c0 .22-.09.44-.25.6-.16.15-.38.24-.61.24-.21 0-.41-.08-.57-.23a.84.84 0 01-.24-.56v-8.69zm-4.99 2.62c.31 0 .61-.12.82-.33a1.15 1.15 0 000-1.63c-.21-.22-.51-.34-.82-.34-.29.03-.55.16-.75.37-.19.21-.3.49-.3.78 0 .28.11.56.3.77.2.21.46.34.75.37v.01zm11.6 0c.31 0 .6-.12.82-.33a1.15 1.15 0 000-1.63 1.15 1.15 0 00-.82-.34c-.29.03-.56.16-.75.37-.2.21-.3.49-.3.78 0 .28.1.56.3.77.19.21.46.34.75.37v.01zM25.96 38.58c0 1.53-2.32 1.53-2.32 0s2.32-1.53 2.32 0zm4.64 3.44c.17.02.33 0 .48-.05.16-.05.3-.13.42-.24a1.186 1.186 0 00.38-.85c0-.16-.04-.32-.1-.47a1.29 1.29 0 00-.28-.38c-.12-.11-.26-.19-.42-.24-.15-.05-.31-.07-.48-.06-.28.03-.55.16-.75.38-.19.21-.3.48-.3.77 0 .28.11.56.3.77.2.21.47.35.75.37zm-8.11-10.38c.01.16-.01.32-.06.47-.05.15-.13.29-.24.41-.11.12-.24.22-.39.28-.15.07-.31.1-.47.1-.16 0-.32-.03-.47-.1a1.08 1.08 0 01-.39-.28c-.11-.12-.19-.26-.24-.41-.06-.15-.07-.31-.06-.47.03-.29.16-.55.38-.74a1.168 1.168 0 011.56 0c.21.19.35.45.38.74zm17.38 1.15c.17.01.33 0 .48-.05.16-.05.3-.14.42-.24.12-.11.21-.24.28-.39.06-.15.1-.31.1-.47 0-.16-.04-.31-.1-.46-.07-.15-.16-.28-.28-.39-.12-.11-.26-.19-.42-.24-.15-.05-.31-.07-.48-.05-.28.03-.55.16-.74.37a1.125 1.125 0 000 1.55c.19.21.46.34.74.37zm-2.31 5.8c0 1.52-2.33 1.52-2.33-.01s2.33-1.53 2.33 0v.01z" fill="#FFF"/></g></symbol><symbol id="arrow-product-block-hov"><g fill="none"><path stroke="#000" stroke-width="2" d="M0 6h26"/><path d="M32 6L25.25.8v10.39L32 6z" fill="#000" fill-rule="evenodd"/></g></symbol><symbol id="arrow-product-block"><g fill="none"><path stroke="#000" stroke-width="2" d="M0 6h18"/><path d="M24 6L17.25.8v10.39L24 6z" fill="#000" fill-rule="evenodd"/></g></symbol><symbol id="button-nav-close"><g fill="none"><path stroke="#000" stroke-width="1.5" d="M.487 18.455l16.998-18M.515.455l16.998 18"/></g></symbol><symbol id="button-nav-open"><g fill="none"><path stroke="#000" stroke-width="2" d="M0 4h24M0 12h24M0 20h24"/></g></symbol><symbol id="cat-pro-product"><g fill="none"><circle cx="33" cy="25" r="25" fill="#68B738"/><path fill="none" d="M0 11h67v28H0z"/><g clip-path="url(#a)"><path d="M60.55 13.87c.58-.91 1.35-1.7 2.25-2.3.5-.35.8-.35 1.1.3.4.95.75 1.95.45 3-.05.18-.06.37-.03.55.04.19.12.36.23.5.3.4.55.8.8 1.15.34.44.57.95.64 1.49.08.55.02 1.1-.19 1.61-.18.5-.21 1.04-.1 1.55.1.5.1 1.01 0 1.5-.04.37-.19.72-.43 1.01-.24.28-.56.49-.92.59-.64.13-1.21.48-1.6 1-.04.08-.11.14-.19.19-.08.04-.17.06-.26.06-.6.1-2.1-1.25-2.1-1.85v-.3c.05-1.8-.05-1.95-1.7-2.7-.34-.12-.65-.32-.9-.6-.3-.4-.7-.35-1.15-.2-.45.15-.7.45-.65.95.15 1.21.21 2.43.15 3.65.01.14.04.28.1.4 1.55 2.25 2.15 4.9 2.9 7.45.6 1.95 1.7 3 3.7 3.15.32.03.64.08.95.15.41.07.8.26 1.1.54.3.29.51.66.6 1.06.35 1.05.15 1.3-.9 1.3h-3.25c-.42.02-.83-.12-1.15-.4-.5-.42-1.08-.76-1.7-1-.68-.25-1.27-.7-1.7-1.3-.58-.81-1.25-1.57-2-2.25-1.4-1.45-2.9-2.85-4.2-4.35a5.67 5.67 0 01-1.6-3.8c0-.45-.1-.65-.6-.45a.89.89 0 01-.5.15c-1.4 0-2.1.85-2.6 2.1-.45 1.05-1.05 2.05-1.6 3.1-.31.66-.48 1.38-.5 2.1 0 1.2.3 1.6 1.4 2 .7.25 1.35.5 1.7 1.2.4.8.3 1-.55 1.05h-3.4a.922.922 0 01-.56-.12.955.955 0 01-.39-.43l-.9-1.5c-.26-.39-.43-.84-.49-1.3-.06-.47-.01-.95.14-1.4.22-.86.24-1.77.05-2.65a4.23 4.23 0 01.04-1.84c.14-.61.42-1.17.81-1.66.3-.35.3-.5-.2-.6-2.04-.43-4.02-1.12-5.9-2.05-.01 0-.02 0-.03-.01-.01-.01-.02-.02-.02-.04-1.6-.6-1.9-.5-2.35 1.15-.4 1.4-.8 2.8-1.1 4.25-.35 1.6.05 3.1.55 4.6.2.6.8.55 1.25.7 1 .3 1.85.7 2.25 1.75.35.8.3.9-.55.9-.85 0-1.7-.05-2.6 0-.76.02-1.5-.23-2.1-.7-2.4-1.6-3.1-4.05-3.3-6.7-.1-1.65-1-2.95-2.05-4.2-.2-.25-.4-.35-.7-.15-1.07.6-2.19 1.1-3.35 1.5-2.41.86-4.53 2.38-6.1 4.4-.58.74-.96 1.62-1.1 2.55-.15.9.1 1.3 1 1.55s1.35.75 1.45 1.7c.05.4-.1.6-.5.6h-4.05a.833.833 0 01-.65-.4c-.62-.77-.96-1.75-.95-2.75-.02-1.72.13-3.45.45-5.15a3.2 3.2 0 011.7-2.4c2.95-1.4 4.5-4.05 5.9-6.8.3-.55.05-.65-.45-.6-1.4.2-2.72.75-3.85 1.6a35.996 35.996 0 00-4.15 3.55 8.254 8.254 0 01-5.15 2.45c-3.65.2-5.35-1.85-5.2-5.15.04-1.12.46-2.2 1.2-3.05.26-.33.61-.58 1.01-.71.41-.14.84-.15 1.24-.04.75.2.95.6.65 1.35-.15.3-.35.55-.5.85-.21.31-.38.65-.5 1-.55 1.5.2 2.55 1.75 2.7 1.65.15 3-.55 4.25-1.55 1.51-1.2 2.85-2.6 4-4.15.86-1.13 1.95-2.07 3.18-2.77 1.24-.69 2.61-1.13 4.02-1.28 1.15-.15 2.15-.65 3.25-.95 2.06-.62 4.2-.93 6.35-.9 1 .04 1.99-.14 2.9-.55 2.45-1 5-1 7.55-.5 2 .4 4 .9 5.95 1.4 1.16.22 2.36.19 3.5-.1 2.2-.55 4.44-.89 6.7-1 1.49-.07 2.96.22 4.3.85 1 .45 1 .45.75 1.4z" fill="#000"/></g></g></symbol><symbol id="cat-slim-product"><g fill="none"><circle cx="25" cy="28" r="25" fill="#68B738"/><path fill="none" d="M7 0h36v50H7z"/><g clip-path="url(#a)"><path d="M35.2 0H35c-.33.18-.59.47-.75.81-.29.56-.51 1.15-.66 1.76-.03.19-.13.35-.26.48a.86.86 0 01-.5.21c-.57.1-1.11.33-1.57.67-.47.33-.85.77-1.12 1.28-.37.66-.69 1.35-.95 2.06-.73 1.9-1.29 3.86-1.98 5.77-.33.87-.34.87-1.32.87-1.17 0-1.09-.18-1.1 1.11 0 .41.12.61.55.59.14 0 .34-.06.39.11.05.18-.12.25-.23.36-.61.62-1.38 1.05-2.22 1.26-.98.26-1.98.46-2.93.78-2.44.82-4.7 1.97-6.46 3.91a14.48 14.48 0 00-2.44 4.04c-1.88 4.45-2.8 9.14-3.51 13.88a99.44 99.44 0 00-.75 6.7C7.1 47.75 7 48.87 7 50h17.14c.02-.23-.02-.46-.12-.66-.17-.42-.43-.78-.78-1.05-.34-.28-.76-.47-1.19-.54-.36-.08-.4-.19-.18-.47.36-.48.64-1.02.82-1.6.83-2.48 1.16-5.07 1.56-7.63.23-1.96.83-3.85 1.77-5.58.74-1.27 1.71-2.39 2.88-3.28.43-.33.44-.33.51.22.05.37.06.74.09 1.12.15 2.43.12 4.87-.09 7.31-.2 1.88-.22 3.78-.08 5.67.2 2.19.6 4.36 1.17 6.49h6.84c-.09-.56-.35-1.08-.74-1.49-.39-.41-.89-.69-1.44-.8-.65-.11-1.31-.07-1.94.1-.31.07-.43 0-.46-.34-.21-2.72-.04-5.47.52-8.15a92.49 92.49 0 001.57-9.37c.13-1.27.53-2.5 1.17-3.61.61-1.09 1.15-2.23 1.75-3.32a3.06 3.06 0 00.22-2.68c-.14-.37-.28-.74-.45-1.09-.51-1-1.02-2-1.5-3.01-.25-.52-.19-.58.37-.6.84 0 .84 0 .85-.84v-.34c0-.36-.13-.55-.51-.52h-.79c-.35 0-.45-.15-.37-.51.18-.6.52-1.13.99-1.53.47-.41 1.04-.67 1.65-.76 1.14-.09 2.29-.02 3.41.23.13.04.27.03.39-.04.12-.06.21-.17.25-.29.21-.52.43-1.03.66-1.55.06-.09.08-.2.07-.3a.503.503 0 00-.12-.29c-1.64-2.09-3.43-4.04-5.86-5.3a.756.756 0 01-.45-.57c-.14-.74-.36-1.46-.66-2.15A1.74 1.74 0 0035.2 0z" fill="#000"/></g></g></symbol><symbol id="desktop-cat-pro-product"><g fill="none"><circle cx="69" cy="50" r="50" fill="#68B738"/><path fill="none" d="M0 20h134v56H0z"/><g clip-path="url(#a)"><path d="M123.11 25.75c1.16-1.84 2.69-3.4 4.5-4.6 1-.7 1.6-.7 2.2.6.8 1.9 1.5 3.9.9 6a2.284 2.284 0 00.4 2.1c.6.8 1.1 1.6 1.6 2.3.68.87 1.13 1.89 1.28 2.98.16 1.09.03 2.2-.38 3.22a5.55 5.55 0 00-.2 3.1c.2.99.2 2.01 0 3a3.747 3.747 0 01-2.7 3.2c-1.28.25-2.42.96-3.2 2-.09.16-.22.28-.38.37-.16.09-.34.13-.52.13-1.2.2-4.2-2.5-4.2-3.7v-.6c.1-3.6-.1-3.9-3.4-5.4-.69-.24-1.31-.65-1.8-1.2-.6-.8-1.4-.7-2.3-.4-.9.3-1.4.9-1.3 1.9.31 2.42.41 4.86.3 7.3.01.28.08.55.2.8 3.1 4.5 4.3 9.8 5.8 14.9 1.2 3.9 3.4 6 7.4 6.3.64.05 1.28.15 1.9.3.82.13 1.59.51 2.19 1.08.61.57 1.03 1.31 1.21 2.12.7 2.1.3 2.6-1.8 2.6h-6.5c-.84.04-1.66-.24-2.3-.8-1.01-.85-2.16-1.53-3.4-2a7.23 7.23 0 01-3.4-2.6 28.948 28.948 0 00-4-4.5c-2.8-2.9-5.8-5.7-8.4-8.7a11.362 11.362 0 01-3.2-7.6c0-.9-.2-1.3-1.2-.9-.3.19-.64.3-1 .3-2.8 0-4.2 1.7-5.2 4.2-.9 2.1-2.1 4.1-3.2 6.2-.62 1.32-.96 2.75-1 4.2 0 2.4.6 3.2 2.8 4 1.4.5 2.7 1 3.4 2.4.8 1.6.6 2-1.1 2.1h-6.8c-.39.04-.78-.04-1.12-.24-.34-.2-.62-.5-.78-.86l-1.8-3c-.53-.78-.87-1.68-.99-2.61-.12-.94-.02-1.9.29-2.79.44-1.73.47-3.55.1-5.3-.25-1.22-.23-2.48.07-3.69.29-1.21.85-2.34 1.63-3.31.6-.7.6-1-.4-1.2a49.89 49.89 0 01-11.8-4.1c-.02 0-.05-.01-.07-.03a.09.09 0 01-.03-.07c-3.2-1.2-3.8-1-4.7 2.3-.8 2.8-1.6 5.6-2.2 8.5-.7 3.2.1 6.2 1.1 9.2.4 1.2 1.6 1.1 2.5 1.4 2 .6 3.7 1.4 4.5 3.5.7 1.6.6 1.8-1.1 1.8-1.7 0-3.4-.1-5.2 0-1.52.03-3-.46-4.2-1.4-4.8-3.2-6.2-8.1-6.6-13.4-.2-3.3-2-5.9-4.1-8.4-.4-.5-.8-.7-1.4-.3a42.81 42.81 0 01-6.7 3 26.797 26.797 0 00-12.2 8.8 10.71 10.71 0 00-2.2 5.1c-.3 1.8.2 2.6 2 3.1s2.7 1.5 2.9 3.4c.1.8-.2 1.2-1 1.2h-8.1c-.26-.02-.52-.1-.74-.24-.23-.14-.42-.33-.56-.56a8.63 8.63 0 01-1.9-5.5c-.05-3.45.25-6.9.9-10.3.14-1.01.52-1.98 1.11-2.82.59-.84 1.38-1.51 2.29-1.98 5.9-2.8 9-8.1 11.8-13.6.6-1.1.1-1.3-.9-1.2-2.8.39-5.45 1.49-7.7 3.2a71.02 71.02 0 00-8.3 7.1 16.61 16.61 0 01-10.3 4.9c-7.3.4-10.7-3.7-10.4-10.3.07-2.25.92-4.41 2.4-6.1.52-.67 1.22-1.17 2.02-1.43a4.28 4.28 0 012.48-.07c1.5.4 1.9 1.2 1.3 2.7-.3.6-.7 1.1-1 1.7-.43.61-.77 1.29-1 2-1.1 3 .4 5.1 3.5 5.4 3.3.3 6-1.1 8.5-3.1 3.02-2.41 5.7-5.2 8-8.3a20.86 20.86 0 016.36-5.54c2.48-1.39 5.22-2.26 8.04-2.56 2.3-.3 4.3-1.3 6.5-1.9 4.12-1.25 8.4-1.86 12.7-1.8 2 .08 3.98-.29 5.8-1.1 4.9-2 10-2 15.1-1 4 .8 8 1.8 11.9 2.8 2.32.43 4.71.37 7-.2 4.39-1.11 8.88-1.78 13.4-2 2.97-.14 5.92.44 8.6 1.7 2 .9 2 .9 1.5 2.8z" fill="#000"/></g></g></symbol><symbol id="desktop-cat-slim-product"><g fill="none"><circle cx="50" cy="56" r="50" fill="#68B738"/><path fill="none" d="M15 0h70v97H15z"/><g clip-path="url(#a)"><path d="M69.83 0h-.37C68.81.36 68.3.91 68 1.59c-.57 1.08-1 2.22-1.29 3.41-.07.35-.25.68-.52.92-.26.24-.6.39-.96.42a7.15 7.15 0 00-3.06 1.28 7.26 7.26 0 00-2.17 2.5c-.73 1.28-1.35 2.61-1.85 4-1.42 3.67-2.51 7.48-3.85 11.19C53.67 27 53.64 27 51.74 27c-2.27 0-2.11-.35-2.14 2.15 0 .79.24 1.19 1.08 1.15.25 0 .65-.13.75.21.1.34-.25.49-.44.69a9.143 9.143 0 01-4.33 2.44c-1.9.51-3.85.91-5.69 1.52-4.75 1.59-9.14 3.82-12.56 7.58-2 2.33-3.61 4.98-4.74 7.84-3.67 8.64-5.46 17.74-6.83 26.93-.66 4.31-1.11 8.64-1.46 13C15.2 92.65 15 94.82 15 97h33.33c.05-.45-.03-.89-.23-1.28-.33-.8-.85-1.5-1.52-2.04s-1.47-.9-2.31-1.03c-.71-.16-.78-.37-.35-.92.7-.94 1.23-1.99 1.59-3.1 1.63-4.81 2.26-9.83 3.05-14.8C49 70.03 50.17 66.35 52 63c1.42-2.48 3.32-4.64 5.59-6.37.83-.63.86-.63 1 .44.09.71.12 1.44.17 2.16.3 4.72.23 9.46-.18 14.18-.38 3.65-.43 7.33-.15 11 .39 4.25 1.15 8.46 2.27 12.59H74a5.473 5.473 0 00-1.43-2.88 5.36 5.36 0 00-2.81-1.56c-1.26-.2-2.54-.14-3.76.2-.6.14-.85 0-.9-.65-.42-5.3-.08-10.63 1-15.82 1.33-6.01 2.35-12.08 3.06-18.18.26-2.47 1.03-4.86 2.27-7 1.19-2.12 2.24-4.32 3.4-6.45.47-.78.75-1.65.82-2.55.07-.9-.06-1.81-.39-2.64-.27-.72-.53-1.43-.86-2.11-1-1.95-2-3.88-2.92-5.85-.49-1-.38-1.12.7-1.15 1.63 0 1.63 0 1.67-1.64v-.66c0-.69-.27-1.07-1-1h-1.52c-.69 0-.9-.29-.72-1a6.2 6.2 0 015.13-4.43c2.21-.2 4.44-.05 6.62.43.25.07.52.05.75-.07.24-.12.41-.33.5-.57.4-1 .84-2 1.29-3 .1-.18.14-.39.12-.59-.01-.2-.09-.4-.22-.55C81.6 13.22 78.12 9.42 73.4 7c-.23-.1-.43-.26-.59-.45-.15-.2-.25-.43-.3-.67-.26-1.43-.69-2.83-1.26-4.17C70.97 1 70.48.4 69.83 0z" fill="#000"/></g></g></symbol><symbol id="email-icon"><g fill="none"><path d="M.5 5.5v8h17v-8m0-5v2L9 8.5l-8.5-6v-2h17z" stroke="#000" stroke-linejoin="round" stroke-linecap="round"/></g></symbol><symbol id="htmlacademy" viewBox="0 0 60 60"><path fill="#2E368F" d="M30.2 5H30L10.3 7.1v36.2L30 55l19.7-11.7V7.1L30.2 5zm17 36.8L30 52 12.8 41.8V27l17.1 10.2V39l-11.7-7v1.8L30 40.9v1.9l-11.8-7v1.8l11.8 7 11.9-7.1v-7.6l5.3-3.2v15.1zm-.1-17l-4.7 2.8-2.2 1.3-10.3-6.1v1.8l8.8 5.3h-.1l-.2.1-1.3.7-7.3-4.3v1.8l5.8 3.4-1.4.9-4.3-2.6v1.8l2.9 1.7-2.9 1.7-17-10.1 17-10.2 17.2 10zm.1-1.8L29.9 12.8 12.8 23V9.4L30 7.6l17.2 1.8V23z"/></symbol><symbol id="icon-gift-mob"><g fill="none"><path fill="none" d="M0-.095h78v80.033H0z"/><g clip-path="url(#a)" fill="#FFF"><path d="M64.01 34.63H14.03c-1.76 0-3.19-1.42-3.19-3.16v-9.48c0-1.74 1.43-3.16 3.19-3.16h49.98c1.75 0 3.18 1.42 3.18 3.16v9.48c0 1.74-1.43 3.16-3.18 3.16zM14.03 21.25c-.41 0-.75.34-.75.74v9.48c0 .4.34.74.75.74h49.98c.41 0 .74-.34.74-.74v-9.48c0-.4-.34-.74-.74-.74H14.03z"/><path d="M57.04 67.08H20.99c-3.37 0-6.12-2.73-6.12-6.09V33.42c0-.67.55-1.22 1.22-1.22.67 0 1.22.55 1.22 1.22v27.57c0 2.02 1.65 3.66 3.68 3.66h36.05c2.03 0 3.69-1.64 3.69-3.66V33.42c0-.67.54-1.22 1.21-1.22.68 0 1.22.55 1.22 1.22v27.57c0 3.36-2.74 6.09-6.12 6.09z"/><path d="M39.02 67.08c-.68 0-1.22-.55-1.22-1.21V33.42c0-.67.54-1.22 1.22-1.22.67 0 1.22.55 1.22 1.22v32.44c0 .67-.55 1.22-1.22 1.22zM23.81 21.25c-3.82-2.05-5.24-6.81-3.18-10.6 2.07-3.79 6.85-5.21 10.67-3.16 5.81 3.13 8.95 11.87 9.08 12.24l-2.3.8c-.03-.08-2.96-8.22-7.94-10.91-2.64-1.41-5.94-.44-7.36 2.18-1.43 2.62-.45 5.9 2.19 7.32l-1.16 2.13z"/><path d="M54.23 21.25l-1.16-2.13c1.27-.69 2.2-1.83 2.62-3.21.41-1.38.26-2.84-.43-4.11a5.376 5.376 0 00-3.23-2.6 5.399 5.399 0 00-4.13.42c-4.98 2.68-7.92 10.83-7.95 10.91l-2.3-.8c.13-.37 3.27-9.11 9.09-12.24a7.9 7.9 0 015.99-.62c2.01.6 3.67 1.94 4.67 3.78 1 1.83 1.22 3.95.62 5.95s-1.94 3.65-3.79 4.65zM61.94 50.85H16.09c-.67 0-1.22-.54-1.22-1.21 0-.67.55-1.21 1.22-1.21h45.85a1.21 1.21 0 110 2.42z"/></g></g></symbol><symbol id="logo-header"><g fill="none"><path fill="none" d="M0 0h101v18H0z"/><g clip-path="url(#a)" fill="#111"><path d="M1.26 16.53A6.775 6.775 0 010 12.23V5.84c-.11-1.55.3-3.09 1.18-4.38C2.05.46 3.39 0 5.37 0 7.34 0 8.61.46 9.4 1.3a5.447 5.447 0 011.19 3.77v1.54H6.71V4.84a3.85 3.85 0 00-.23-1.54c-.1-.2-.26-.36-.46-.47-.2-.11-.42-.16-.65-.14-.55 0-.95.15-1.11.54-.18.54-.26 1.11-.23 1.69v8.23c-.05.56.06 1.11.31 1.61.16.39.55.54 1.11.54.55 0 .87-.15 1.03-.54.18-.52.26-1.06.23-1.61V11.3h3.88v1.54c.08 1.38-.34 2.74-1.19 3.85-.79.92-2.13 1.38-4.03 1.38-1.9-.07-3.32-.54-4.11-1.54zM15.25.23h4.5l3.32 17.53h-3.63l-.64-3.69h-2.6l-.64 3.69h-3.71L15.25.23zm3.24 11.53l-.95-6.84-.95 6.84h1.9zM25.84 3.15h-2.69V.23h9.41v2.84h-2.69v14.69h-4.03V3.15zM39.75.23h6.95v1.84h-4.5v5.77h3.63v1.77H42.2v6.46h4.5v1.77h-7.03V.23h.08zM48.76.23h1.74l5.13 11.61V.23h2.06v17.53h-1.58l-5.22-12v12h-2.13V.23zM60.06.23h6.95v1.84h-4.5v5.77h3.63v1.77h-3.63v6.46h4.5v1.77h-6.95V.23zM69.07.23h3.63c1.43-.1 2.85.28 4.03 1.07C77.6 2 78 3.23 78 4.84c0 2.23-.71 3.62-2.22 4.08l2.53 8.77h-2.45l-2.37-8.23h-1.97v8.23h-2.53V.23h.08zm3.47 7.53c.82.07 1.63-.15 2.3-.61.47-.39.71-1.15.71-2.31.02-.57-.06-1.14-.24-1.69a1.94 1.94 0 00-.87-.92c-.54-.25-1.14-.35-1.74-.31h-1.1v5.77h.94v.07zM81.16 16.46A7.64 7.64 0 0180.05 12V6.15a12.3 12.3 0 01.4-3.31c.26-.81.79-1.51 1.5-2 .88-.51 1.9-.75 2.92-.69 1.66 0 2.85.38 3.56 1.23a5.793 5.793 0 011.11 3.85v.61h-2.38V5.3c.01-.64-.04-1.28-.15-1.92-.07-.4-.3-.76-.64-1-.44-.28-.97-.42-1.5-.38-.56-.04-1.12.12-1.58.46-.18.15-.34.34-.44.55-.11.21-.18.44-.19.68-.1.68-.16 1.38-.16 2.07v6.54c-.06 1 .11 2 .48 2.93.31.61.94.84 1.89.84.38.05.76-.02 1.09-.18.34-.16.62-.42.81-.74.42-.97.61-2.03.55-3.08v-1.23h-2.29V9.07h4.58v8.69h-1.58l-.23-2a3.14 3.14 0 01-1.23 1.66c-.59.41-1.29.61-2.01.58-.66.03-1.31-.09-1.9-.36-.59-.27-1.11-.67-1.5-1.18zM94.67 11.61L90.8.3h2.37l2.77 8.46L98.62.3H101l-3.88 11.31v6.15h-2.37v-6.15h-.08z"/></g></g></symbol><symbol id="logo-html-academy"><g fill="none"><path fill="none" d="M0 0h168v37H0z"/><path d="M85.504 24.396c.053.197.181.296.384.296h.848V12.908h-1.424v4.496q-.36-.394-.803-.633-.07-.037-.141-.071c-.352-.17-.776-.256-1.272-.256a3.214 3.214 0 00-2.576 1.216q-.448.568-.688 1.344-.24.768-.24 1.664c0 .672.072 1.267.216 1.784.144.517.349.95.616 1.296.266.347.589.61.968.792.378.176.8.264 1.264.264.576 0 1.085-.125 1.528-.376a4.303 4.303 0 001.192-1.016l.128.984zm-71.376.296h1.56V13.228h-1.56v5.112H7.952v-5.112h-1.56v11.464h1.56v-5.216h6.176v5.216zm12.166-10.16v-1.304h-8.976v1.304h3.72v10.16h1.552v-10.16h3.704zm7.461 6.424a2.603 2.603 0 00-.192-.408l-3.96-7.056c-.07-.123-.141-.197-.216-.224a.994.994 0 00-.32-.04h-1.144v11.464h1.36v-8.424c0-.112-.005-.235-.016-.368a5.504 5.504 0 00-.032-.408l4.016 7.192c.134.24.32.36.56.36h.224c.24 0 .427-.12.56-.36l3.928-7.168q-.016.2-.024.392a8.57 8.57 0 00-.008.36v8.424h1.36V13.228h-1.144q-.208 0-.32.04c-.074.027-.146.101-.216.224l-3.88 7.048a6.406 6.406 0 00-.368.84 9.945 9.945 0 00-.168-.424zm15.399 2.432h-4.96v-10.16h-1.552v11.464h6.512v-1.304zm13.032 1.304h1.2l-4.584-11.464h-1.575l-4.584 11.464h1.2a.511.511 0 00.335-.112.625.625 0 00.193-.256l1.072-2.768h5.144l1.071 2.768a.64.64 0 00.192.264c.086.07.198.104.337.104zm-2.032-4.256h-4.28l1.8-4.656q.08-.208.16-.48c.06-.187.118-.39.176-.608q.169.648.345 1.08l1.8 4.664zm17.24 4.256h.632v-5.184c0-.453-.061-.87-.184-1.248a2.64 2.64 0 00-.544-.968 2.475 2.475 0 00-.888-.624 3.069 3.069 0 00-1.208-.224 4.47 4.47 0 00-1.72.32c-.517.213-1 .536-1.448.968l.256.456a.64.64 0 00.168.192c.075.048.16.072.256.072a.642.642 0 00.368-.128c.128-.09.278-.19.448-.296a3.15 3.15 0 01.616-.296c.24-.09.534-.136.88-.136q.628 0 1.01.306.1.08.182.182.408.48.408 1.424v.632c-.917.021-1.693.107-2.328.256-.634.144-1.15.33-1.544.56-.39.23-.672.493-.848.792-.176.293-.264.6-.264.92 0 .368.059.688.176.96q.181.393.478.655l.01.009c.203.176.44.31.712.4.278.085.574.128.888.128q.464 0 .84-.08c.256-.053.496-.13.72-.232.224-.107.438-.235.64-.384.203-.155.41-.328.624-.52l.16.752c.027.139.083.23.168.272a.753.753 0 00.336.064zm-7.389-6.528a.635.635 0 00.129-.136l.376-.512a3.546 3.546 0 00-1.16-.776c-.438-.187-.94-.28-1.504-.28-.614 0-1.158.104-1.633.312a3.352 3.352 0 00-1.2.872c-.32.368-.565.808-.736 1.32a5.415 5.415 0 00-.248 1.672c0 .661.091 1.25.273 1.768q.28.776.76 1.312c.32.352.695.621 1.127.808.438.187.91.28 1.417.28.586 0 1.144-.099 1.672-.296a3.11 3.11 0 001.32-.952l-.4-.52c-.06-.09-.15-.136-.272-.136q-.145 0-.288.128a4.76 4.76 0 01-.369.272c-.149.101-.336.195-.56.28-.224.08-.509.12-.856.12-.362 0-.69-.067-.983-.2a2.08 2.08 0 01-.737-.592 2.883 2.883 0 01-.471-.96q-.169-.576-.169-1.312 0-.704.153-1.272c.106-.379.26-.701.463-.968a2.03 2.03 0 01.769-.608 2.42 2.42 0 011.047-.216q.449 0 .752.104a2.772 2.772 0 01.88.44.487.487 0 00.264.096q.12 0 .184-.048zm23.668-1.456a3.566 3.566 0 00-1.344-.248q-.88 0-1.584.312c-.47.203-.867.485-1.192.848a3.741 3.741 0 00-.752 1.272 4.791 4.791 0 00-.256 1.584c0 .699.096 1.317.288 1.856.192.539.459.992.8 1.36.347.363.755.64 1.224.832.475.187.992.28 1.552.28.293 0 .59-.027.888-.08.299-.048.587-.123.864-.224.283-.101.547-.23.792-.384.245-.16.456-.347.632-.56l-.4-.52a.313.313 0 00-.272-.136c-.09 0-.2.043-.328.128a4.598 4.598 0 01-1.136.536c-.256.08-.563.12-.92.12a2.8 2.8 0 01-1.04-.184 2.175 2.175 0 01-.8-.568 2.776 2.776 0 01-.528-.952c-.128-.379-.197-.824-.208-1.336h5.392c.133 0 .224-.037.272-.112.048-.075.072-.224.072-.448 0-.576-.085-1.088-.256-1.536a3.118 3.118 0 00-.696-1.136 2.946 2.946 0 00-1.064-.704zm3.839-.12v8.104h1.424v-6.04c.25-.325.525-.581.824-.768a1.81 1.81 0 01.984-.288q.565 0 .927.271.12.09.217.209c.261.32.392.805.392 1.456v5.16h1.424v-5.16c0-.32.045-.6.136-.84.096-.245.224-.448.384-.608.16-.16.344-.28.552-.36a1.79 1.79 0 01.672-.128q.609 0 .995.293.117.088.213.203c.277.325.416.805.416 1.44v5.16h1.424v-5.16q0-.736-.184-1.304a2.633 2.633 0 00-.536-.968 2.183 2.183 0 00-.848-.592 2.919 2.919 0 00-1.136-.208q-.138 0-.275.011-.26.022-.517.085a2.63 2.63 0 00-1.352.832 2.57 2.57 0 00-.44.76c-.15-.517-.395-.928-.736-1.232-.336-.304-.779-.456-1.328-.456-.491 0-.923.117-1.296.352a4.195 4.195 0 00-1 .904l-.104-.832c-.054-.197-.182-.296-.384-.296h-.848zm15.082 10.752a.715.715 0 00.184-.256l4.52-10.496h-1.136q-.037 0-.072.006-.096.018-.184.082a.445.445 0 00-.16.208l-2.104 5.096c-.048.123-.09.243-.128.36l-.112.36a3.566 3.566 0 00-.096-.36 3.047 3.047 0 00-.12-.352l-2.168-5.104a.534.534 0 00-.152-.2.407.407 0 00-.288-.096h-1.232l3.344 7.632-1.48 3.216h1.056c.15 0 .259-.032.328-.096zm-21.857-9.232c.395-.4.936-.6 1.624-.6.325 0 .614.056.864.168.256.107.472.261.648.464.176.197.31.435.4.712.09.272.136.573.136.904h-4.408c.096-.704.341-1.253.736-1.648zm-6.393 5.224c-.347.213-.752.32-1.216.32-.331 0-.624-.056-.88-.168a1.583 1.583 0 01-.648-.528 2.653 2.653 0 01-.4-.928q-.136-.568-.136-1.36 0-1.496.608-2.304c.405-.539.986-.808 1.744-.808.378 0 .722.072 1.032.216.314.139.602.384.864.736v3.92c-.294.39-.616.69-.968.904zm-9.326.416q-.312.072-.688.072c-.186 0-.36-.021-.52-.064a1.189 1.189 0 01-.416-.216 1.084 1.084 0 01-.28-.384 1.34 1.34 0 01-.104-.552c0-.224.064-.427.192-.608.134-.181.344-.339.632-.472.288-.133.662-.24 1.12-.32a11.33 11.33 0 011.672-.16v1.688c-.16.17-.325.323-.496.456a3.091 3.091 0 01-.528.344c-.181.09-.376.163-.584.216z" fill="#444" fill-rule="evenodd"/><path fill="none" d="M141 1.5h27v34h-27z"/><g clip-path="url(#a)"><path d="M154.643 1.516L154.5 1.5 141 2.907v24.606l13.5 7.987 13.5-7.987V2.907l-13.357-1.391zm11.591 25L154.5 33.456l-11.734-6.942V16.43l11.685 6.916.019 1.253-8.016-4.743-.011 1.225 8.047 4.808.019 1.287-8.045-4.758-.01 1.226 8.046 4.808 8.124-4.833V18.41l3.619-2.15-.009 10.256zm0-11.564l-3.219 1.88-1.483.875-7.065-4.187-.011 1.225 6.04 3.573-.053.031-.131.076-.858.491-4.987-2.947-.011 1.225 3.936 2.328-.933.61-.021.012-2.971-1.742-.011 1.225 1.947 1.135-1.987 1.186-11.619-6.872 11.638-6.958 11.799 6.834zm0-1.225L154.44 6.81l-11.674 6.909V4.49L154.5 3.264l11.734 1.226v9.237z" fill="#666"/></g></g></symbol><symbol id="logo-mobile"><g fill="none"><path fill="none" d="M0 0h33v38H0z"/><g clip-path="url(#a)"><path d="M6.01 20.93v-2.28c6.62-.93 13.29-1.38 19.97-1.35 0 .61 0 1.23-.06 1.84 1.9-.86 3.9-1.48 5.95-1.84a16.829 16.829 0 00-6.77-8.28 16.297 16.297 0 00-10.31-2.4c-3.6.37-6.98 1.94-9.62 4.47A16.992 16.992 0 00.18 20.6l5.83.33zM26.97 24.48c-1.15 1.29-1.37 1.21-1.37 3.48v9.28c2.27-1.53 4.13-3.61 5.42-6.06 1.29-2.44 1.97-5.17 1.98-7.95-.02-1.05-.12-2.1-.32-3.13a32.68 32.68 0 00-5.71 4.38zM6.29 25.98s-3.75-1.45-5.14-1.85c-.38-.12-.76-.21-1.15-.28.1 2.92.95 5.75 2.46 8.23C3.97 34.56 6.08 36.6 8.59 38l-2.3-12.02z" fill="#FDC305"/><path d="M26.03 17.29c.04-5.58-.42-11.15-1.38-16.64 0 0-.14-1.3-.89-.24-.58 1.26-.98 2.6-1.18 3.98-4.22-.28-8.45-.16-12.65.34C9.15 2.02 7.77.75 7.11 1.01c-.67.25-.72 3.34-.72 3.34L6.07 18.6c6.61-.92 13.29-1.35 19.96-1.31z" fill="#F06351"/><path d="M12.29 14.14c0-.09.99.69 1.39.93.41.24.61.42.61.6 0 .17-.27.34-.63.34-.35 0-.9-.12-.99-.27h1.22c-.6-.46-1.14-1-1.6-1.6zM19.69 14.25l-1.08 1.35c0 .06-.16.35.18.3.41-.06.82-.16 1.21-.29.11 0 .07-.2-.11-.18-.18.02-.68.05-.99.11l.83-1.27s.07-.13-.04-.02zM16.58 20.4c.46-.2.84-.56 1.08-1.01.28-.65 0-.92-.43-1.01-.6-.11-1.21.02-1.73.35-.38.36-.33.72-.04 1.01.34.27.72.49 1.12.66z" fill="#000"/><path d="M16.19 21.67c-.11.23-.27.43-.46.6-.28.24-.63.37-.99.39-.52.04-1.04-.11-1.45-.44-.2-.12-.38-.27-.53-.44-.1-.11-.22-.2-.36-.26 0 0 .75 4.14 2.55 4.8 1.8.65 2.12-.76 2.18-1.15.06-1.14-.22-2.28-.81-3.26-.02-.31-.03-.11-.13-.24z" fill="#F06351"/><path d="M14.56 22.82c-.46-.07-.9-.23-1.3-.47-.39-.25-.74-.58-1-.97-.02-.01-.03-.02-.03-.04a.142.142 0 01-.02-.06c0-.02.01-.03.02-.05 0-.02.01-.03.03-.05.01-.01.02-.02.04-.03.02-.01.04-.01.06-.01.01 0 .03 0 .05.01.02.01.03.02.04.03.5.7 1.26 1.18 2.09 1.32.33-.03.65-.13.93-.31s.52-.42.69-.7l.14-.2.1.22s.36.76.99.8c.62.04 1.04-.41 1.59-1.29.01-.01.03-.02.05-.03.01-.01.03-.01.05-.01.02 0 .04 0 .05.01.02.01.04.02.05.03.03.02.05.05.06.09.01.04.01.08-.01.11-.64 1.01-1.26 1.46-1.86 1.42-.23-.04-.45-.12-.64-.26-.2-.13-.36-.31-.47-.51-.2.28-.45.51-.74.67-.3.16-.62.26-.96.28z" fill="#000"/><path d="M25.98 19.11a57.945 57.945 0 00-5.02 5.25c-1.55 1.84-3.31 3.5-5.24 4.94-.22-.54-1.6-1.53-1.6-1.53s-3.1-2.16-5.13-3.86c-1.1-.94-2.13-1.95-3.1-3.03l-1.98-.11c2.86 4.25 7.05 7.38 11.88 8.89.85-.14 3.24-1.88 5.02-3.29 2.1-1.84 4.07-3.83 5.89-5.96.49-.59.88-1.28 1.13-2.02-1.09.4-1.85.72-1.85.72z" fill="#F06351"/></g></g></symbol><symbol id="logo-page"><g fill="none"><path d="M1.624 21.957A9.429 9.429 0 01.02 16.238V7.762A9.558 9.558 0 011.523 1.94C2.625.613 4.327 0 6.831 0c2.503 0 4.106.613 5.107 1.736A7.434 7.434 0 0113.44 6.74v2.043H8.533V6.434a5.115 5.115 0 00-.3-2.042 1.458 1.458 0 00-.579-.628 1.418 1.418 0 00-.823-.19c-.701 0-1.202.205-1.402.715a6.72 6.72 0 00-.3 2.247v10.928a4.3 4.3 0 00.4 2.144c.2.511.701.715 1.402.715s1.102-.204 1.302-.715c.227-.69.33-1.417.3-2.144v-2.451h4.907v2.042a7.921 7.921 0 01-1.502 5.107C10.937 23.387 9.234 24 6.831 24c-2.403-.102-4.206-.715-5.207-2.043zM19.348.306h5.708l4.206 23.286h-4.606l-.801-4.902H20.55l-.801 4.902h-4.707L19.348.306zm4.106 15.32l-1.202-9.09-1.201 9.09h2.403zM32.767 4.187h-3.405V.307H41.28v3.778h-3.405v19.507h-5.107V4.187zM50.392.306h8.812v2.452h-5.708v7.659h4.606v2.349h-4.606v8.579h5.708v2.349H50.29V.306h.1zM61.808.306h2.203l6.509 15.422V.306h2.603v23.286h-2.002L64.51 7.66v15.932h-2.703V.306zM76.128.306h8.812v2.452h-5.708v7.659h4.606v2.349h-4.606v8.579h5.708v2.349h-8.812V.306zM87.543.306h4.607a7.896 7.896 0 015.107 1.43c1.102.92 1.602 2.553 1.602 4.698 0 2.962-.9 4.8-2.804 5.413l3.205 11.642h-3.105l-3.004-10.928h-2.503V23.49h-3.205V.306h.1zm4.407 10.009a4.313 4.313 0 002.904-.817c.6-.51.901-1.532.901-3.064a6.72 6.72 0 00-.3-2.247 2.575 2.575 0 00-1.102-1.225 4.487 4.487 0 00-2.203-.409h-1.402v7.66h1.202v.102zM102.865 21.855a10.486 10.486 0 01-1.402-5.923V8.17a17 17 0 01.501-4.391 5.185 5.185 0 011.902-2.655 6.437 6.437 0 013.705-.92c2.103 0 3.606.51 4.507 1.634a7.93 7.93 0 011.402 5.107v.817h-3.004v-.715c.004-.856-.063-1.71-.201-2.553a2.045 2.045 0 00-.801-1.328 3.05 3.05 0 00-1.903-.51 2.962 2.962 0 00-2.002.612 2.33 2.33 0 00-.801 1.634 19.571 19.571 0 00-.201 2.758v8.68a9.432 9.432 0 00.601 3.881c.401.817 1.202 1.124 2.403 1.124.475.06.956-.024 1.384-.242.428-.218.782-.56 1.02-.984a9.571 9.571 0 00.701-4.085V14.4h-2.904v-2.349h5.808v11.54h-2.003l-.3-2.655a4.172 4.172 0 01-1.553 2.202 4.03 4.03 0 01-2.553.76 4.924 4.924 0 01-2.406-.468 5.032 5.032 0 01-1.9-1.575zM119.989 15.421L115.082.408h3.004l3.505 11.235L124.996.408H128l-4.907 15.013v8.17h-3.004v-8.17h-.1z" fill="#111"/></g></symbol><symbol id="logo"><g fill="none"><path d="M59.743 23.806A25.424 25.424 0 0051.71 13.43a25.632 25.632 0 00-12.165-5.02 25.688 25.688 0 00-13.062 1.671 25.536 25.536 0 00-10.491 7.916 25.326 25.326 0 00-5.132 12.06 25.268 25.268 0 001.59 12.997 25.416 25.416 0 007.892 10.484 25.628 25.628 0 0012.094 5.184 113.227 113.227 0 01-1.686-6.794c1.509.973 3.098 1.819 4.749 2.529 0 0 .12 2.142.28 4.533 1.783.03 3.566-.126 5.317-.466a2.108 2.108 0 010-.754c.29-1.855 1.088-5.198 1.247-7.35a15.11 15.11 0 002.894-3.68l-.06.436c-.55 4.226-1.696 8.74-2.395 9.989a5.53 5.53 0 01-.828 1.14 25.645 25.645 0 009.918-4.727 25.467 25.467 0 007.004-8.43 25.301 25.301 0 00.867-21.341zm-1.466 3.76c-.44.426-1.347.714-1.497-.576-.15-1.29-.19-2.192-.19-2.192s-1.925-3.402-2.643-3.442c-.719-.04-5.817 3.442-7.164 4.96-1.167 1.28-1.397 1.19-1.397 3.442 0 1.696.22 8.104.1 13.004l-8.131 2.153a64.17 64.17 0 01-7.783 1.706l-.997-5.783h-.14l-2.564-13.064s-3.801-1.428-5.198-1.815a3.771 3.771 0 00-3.991.625 5.005 5.005 0 00-1.726 3.819c.21.46.371.943.479 1.438.05.476-1.198.426-1.996.426s-.918-1.428-.29-3.104a22.587 22.587 0 011.817-3.71 11.774 11.774 0 012.065-2.867s.14-.337 1.247-.238c1.108.1 7.264.427 7.264.427l.05-2.252a143.263 143.263 0 0120.193-1.33v1.816a22.575 22.575 0 018.122-1.984.913.913 0 01.768.387c.34.427 2.405 2.976 2.644 3.343.67.953 1.28 1.947 1.826 2.976a6.17 6.17 0 01-.868 1.825v.01z" fill="#FDC305"/><path d="M56.331 21.495c.47.595.878 1.121.998 1.28.67.953 1.28 1.947 1.826 2.976-.19.63-.48 1.226-.858 1.765-.44.427-1.347.714-1.497-.575-.15-1.29-.21-2.143-.21-2.143s-1.925-3.402-2.643-3.442c-.719-.04-5.817 3.442-7.164 4.96-1.167 1.28-1.397 1.19-1.397 3.442 0 1.488.17 6.596.13 11.14 1.806.198 4.46.694 5.258 1.864 0 0-.29-7.122 7.792-3.392 0 0 .28-9.711 11.434-7.221a43.585 43.585 0 00-13.669-10.654zM45.825 19.194a89.221 89.221 0 00-1.397-16.397s-.15-1.29-.868-.238a14.084 14.084 0 00-1.197 3.968 71.13 71.13 0 00-12.79.337c-.819-2.728-2.216-3.968-2.884-3.64-.669.327-.748 3.253-.748 3.253l-.33 14.046a143.275 143.275 0 0120.214-1.33z" fill="#F06351"/><path d="M45.246 46.74c.13-1.062.2-2.47.24-4.028l-8.132 2.153a64.152 64.152 0 01-7.782 1.756l1.108 4.96c0 .108 0 .218.07.327 1.509.973 3.097 1.82 4.748 2.53a42.364 42.364 0 006.864-4.098v.06a15.107 15.107 0 002.884-3.66z" fill="#E55645"/><path d="M31.927 16.09c-.05-.1.998.674 1.407.912.409.238.608.416.608.585 0 .169-.26.337-.618.337-.36 0-.918-.119-.998-.258-.08-.139.599 0 .938 0h.29a8.043 8.043 0 01-1.627-1.577zM39.41 16.198s-.998 1.27-1.088 1.33c-.09.059-.17.337.19.287.412-.061.82-.154 1.217-.278.11-.06.07-.198-.12-.178-.19.02-.678.05-.997.109l.848-1.26s.03-.119-.05-.01zM36.277 22.259a2.29 2.29 0 001.087-.992c.28-.655 0-.903-.438-.992a2.456 2.456 0 00-1.746.337c-.39.367-.34.724 0 .992.337.263.705.483 1.097.655z" fill="#000"/><path d="M35.918 23.509c-.115.225-.27.427-.46.595-.283.227-.633.36-.997.377a2.184 2.184 0 01-1.536-.437 1.991 1.991 0 01-.53-.446.998.998 0 00-.358-.248s.748 4.077 2.564 4.731c1.816.655 2.155-.753 2.205-1.13a5.559 5.559 0 00-.819-3.214c0-.298-.02-.1-.07-.228z" fill="#F06351"/><path d="M34.222 24.64a3.505 3.505 0 01-2.345-1.419.148.148 0 010-.198.139.139 0 01.154-.031.14.14 0 01.046.03 3.203 3.203 0 002.105 1.3 2.113 2.113 0 001.636-.992l.14-.188.1.218s.378.754.997.794c.619.04 1.057-.417 1.626-1.28a.143.143 0 01.2-.04.143.143 0 01.04.199c-.666.972-1.294 1.438-1.886 1.398a1.552 1.552 0 01-1.117-.724 2.25 2.25 0 01-1.696.933z" fill="#000"/><path d="M39.918 34.271c0 2.054-1.675 3.72-3.741 3.72s-3.741-1.666-3.741-3.72c0-2.054 1.675-3.72 3.741-3.72s3.741 1.666 3.741 3.72z" fill="#FDC305" fill-rule="evenodd"/><path d="M41.136 31.246l-3.123 1.3 1.147-5.585-7.482 9.68 3.122-1.298-1.147 5.594 7.483-9.691zm-7.373 3.799l4.15-5.366-.808 3.967 1.995-.813-4.18 5.376.808-3.968-1.965.804z" fill="#111"/><path d="M33.483 32.476c0 .613-.5 1.11-1.117 1.11a1.114 1.114 0 01-1.117-1.11c0-.614.5-1.111 1.117-1.111s1.117.497 1.117 1.11zM39.66 36.83a.786.786 0 01-.789.784.786.786 0 01-.788-.784c0-.432.353-.783.788-.783.435 0 .788.35.788.783zM40.178 35.114a.348.348 0 01-.349.348.348.348 0 01-.35-.348c0-.191.157-.347.35-.347.193 0 .35.156.35.347z" fill="#111" fill-rule="evenodd"/><path d="M45.775 20.99a57.154 57.154 0 00-5.078 5.167 31.744 31.744 0 01-5.298 4.86c-.22-.525-1.626-1.507-1.626-1.507s-3.133-2.133-5.188-3.81a31.724 31.724 0 01-3.133-2.975l-1.996-.109a22.57 22.57 0 0011.973 8.769c.858-.14 3.272-1.855 5.078-3.254a57.383 57.383 0 005.987-5.862 6.32 6.32 0 001.137-1.984c-1.137.377-1.856.704-1.856.704z" fill="#F06351"/><path d="M65.07 3.472l-8.44 9.364-1.217-1.974L63.544 0l1.527 3.472zM62.507 17.12l5.527-4.076-.778-3.71-5.388 4.771.64 3.016zM59.783 48.972l6.116 3.154 3.003-2.321-6.674-2.728-2.445 1.895zM1.945 5.922l3.063-3.333 9.269 8.927-1.218 2.262L1.945 5.922zM7.363 16.149l-4.69-3.105L.28 16.883l5.138 2.38 1.946-3.114zM13.878 52.126l-4.54 3.323L12.133 59l4.01-3.988-2.264-2.886z" fill="#FDC305"/><path d="M25.87 27.774s-3.8-1.428-5.197-1.815a3.771 3.771 0 00-3.991.625 5.005 5.005 0 00-1.726 3.819c.21.46.371.943.479 1.438.05.476-1.198.426-1.996.426s-.918-1.428-.29-3.104a22.58 22.58 0 011.817-3.71C9.528 28.27 0 34.777 0 34.777a45.98 45.98 0 018.171.238c5.238.526 4.989 4.632 4.989 4.632a38.754 38.754 0 015.617-1.1c2.115-.14 2.265 2.102 2.265 2.102l.529 3.83a18.21 18.21 0 012.644-2.342 6.07 6.07 0 014.37-1.29L25.87 27.775z" fill="#F06351"/></g></symbol><symbol id="phone-icon"><g fill="none"><path d="M7 8h8.5M13 10.5L15.5 8 13 5.5m-7.5 0h-3v5h3v5H3c-1.5 0-2.5-1-2.5-2.5V3C.5 1.5 1.5.5 3 .5h2.5v5z" stroke="#000" stroke-linejoin="round"/></g></symbol><symbol id="plus-cat-mob"><g fill="none"><path stroke="#D3D3D3" stroke-width="2" d="M15 0v30M30 15H0"/></g></symbol><symbol id="plus-cat-tab"><g fill="none"><path stroke="#D3D3D3" stroke-width="2" d="M31 0v60M60 31H0"/></g></symbol><symbol id="tablet-academy-footer-pic-hover"><g fill="none"><path fill="none" d="M0 0h163v34H0z"/><path d="M81.85 23.5V11.71h-1.42v4.49q-.31-.33-.68-.55-.13-.08-.27-.15-.53-.25-1.28-.25-.81 0-1.47.32-.33.17-.6.39-.28.22-.5.5-.44.57-.69 1.34-.23.77-.23 1.67 0 1.01.21 1.79.22.77.62 1.29.29.37.66.61.15.1.31.18.56.27 1.26.27.83 0 1.47-.35.04-.02.07-.03l.06-.04q.63-.38 1.12-.98l.13.99q.04.15.14.22.09.08.24.08h.85zm-71.1 0V12.03H9.19v5.11H3.01v-5.11H1.46V23.5h1.55v-5.22h6.18v5.22h1.56zm6.96-10.17h3.72v-1.3h-8.98v1.3h3.72V23.5h1.54V13.33zM35.05 23.5V12.03h-1.14q-.21 0-.33.04-.11.04-.21.23l-3.89 7.04q-.1.19-.19.41-.09.21-.17.42-.08-.21-.17-.42-.09-.21-.19-.4L24.8 12.3q-.1-.19-.22-.23-.1-.04-.31-.04h-1.15V23.5h1.36v-8.43q0-.36-.04-.78l4.01 7.2q.11.2.27.29.13.07.29.07h.22q.17 0 .3-.07.16-.09.27-.29l3.93-7.17q-.02.2-.03.39-.01.19-.01.36v8.43h1.36zm9.43 0v-1.31h-4.96V12.03h-1.54V23.5h6.5zm12.92 0h1.2l-4.59-11.47h-1.57L47.86 23.5h1.2q.17 0 .29-.08.02-.02.04-.03.14-.12.19-.26l1.07-2.77h5.15l1.07 2.77q.05.12.13.21.03.03.06.05.13.11.34.11zm-3.84-8.93l1.8 4.67h-4.28l1.8-4.66q.18-.43.35-1.08.08.32.16.59.09.28.17.48zm14.87 1q-.77.32-1.44.96l.25.46q.05.07.1.13l.08.06q.02.02.04.03.09.05.21.05.18 0 .37-.14.19-.13.45-.29.26-.17.61-.3.36-.13.89-.13.61 0 .99.29.11.09.2.19.41.49.41 1.43v.63q-1.39.04-2.34.26t-1.55.56q-.59.34-.85.79-.19.32-.24.67-.02.12-.02.25 0 .55.18.96.16.36.43.61.02.03.05.06.02.01.03.02.3.24.7.37.42.13.89.13.46 0 .84-.08.38-.08.72-.24.33-.16.64-.38.3-.23.62-.53l.16.77q.06.2.17.27.12.07.33.07h.63v-5.19q0-.68-.19-1.24-.18-.57-.54-.97-.07-.08-.15-.16-.31-.29-.74-.47-.52-.22-1.2-.22-.95 0-1.73.32zm-3.37 1.4q.07-.05.14-.14l.37-.51q-.28-.28-.6-.49-.26-.17-.55-.29-.66-.28-1.51-.28-.92 0-1.63.32-.51.22-.9.57-.16.14-.29.29-.49.56-.74 1.33-.25.76-.25 1.67 0 .99.27 1.77.27.77.75 1.3.26.29.58.51.26.18.56.31.07.03.15.06.58.22 1.26.22.44 0 .86-.08.42-.07.81-.22.39-.16.73-.39.07-.05.13-.1.26-.2.47-.46l-.4-.52q-.05-.06-.11-.1-.07-.04-.17-.04-.14 0-.29.13-.14.12-.37.27-.22.16-.55.28-.34.12-.86.12-.54 0-.98-.2-.16-.08-.31-.18-.24-.17-.43-.41-.31-.39-.48-.96-.16-.58-.16-1.31 0-.71.15-1.27.16-.57.46-.97.17-.21.37-.37.18-.14.4-.24.46-.22 1.05-.22.45 0 .76.11.31.09.52.21.21.13.36.23.14.09.26.09.11 0 .17-.04zm24.99 5.95q.37-.24.63-.56l-.4-.52q-.04-.06-.1-.1-.07-.04-.17-.04-.14 0-.32.13-.19.12-.47.27-.28.14-.67.26-.39.13-.92.13-.58 0-1.05-.19-.19-.08-.36-.19-.24-.16-.43-.38-.34-.38-.53-.95-.18-.57-.21-1.33h5.42q.17 0 .25-.09.01-.01.02-.03.07-.11.07-.44 0-.87-.26-1.54-.25-.68-.7-1.14-.15-.15-.32-.27-.34-.27-.76-.43-.62-.25-1.34-.25-.88 0-1.59.31-.53.24-.94.61-.13.11-.25.24-.02.02-.03.04-.47.53-.72 1.24-.26.73-.26 1.58 0 1.05.29 1.86.29.8.8 1.35.23.24.5.43.33.24.73.4.71.29 1.55.29.44 0 .88-.08.45-.07.87-.23.42-.15.79-.38zm2.51-7.53v8.11h1.43v-6.04q.37-.49.82-.78.24-.15.5-.22.23-.06.48-.06.57 0 .93.27.12.09.21.21.39.48.39 1.45v5.17h1.44v-5.17q0-.48.14-.84t.37-.6q.15-.15.33-.25.11-.07.23-.12.08-.03.17-.06.24-.06.5-.06.6 0 .98.29.12.08.22.2.42.49.42 1.44v5.17h1.43v-5.17q0-.73-.18-1.3-.19-.57-.54-.96-.13-.15-.28-.27-.26-.21-.57-.33-.5-.21-1.13-.21-.2 0-.39.03-.21.02-.41.07-.16.04-.31.1-.22.08-.42.2-.34.21-.62.53-.27.32-.45.76-.22-.78-.73-1.23-.09-.08-.18-.14-.47-.32-1.14-.32-.62 0-1.12.25-.09.05-.18.11-.56.35-1.01.9l-.1-.83q-.04-.15-.13-.23-.1-.07-.25-.07h-.85zm15.43 10.5l4.52-10.5h-1.13q-.07 0-.13.02-.07.02-.13.07-.06.04-.1.1-.04.05-.07.11l-2.1 5.09q-.13.34-.24.72-.09-.37-.21-.71l-2.17-5.1q-.04-.12-.15-.21-.11-.09-.29-.09h-1.23l3.34 7.63-1.48 3.22h1.06q.22 0 .33-.1.1-.09.18-.25zm-18.6-8.24q.14.41.14.91H85.1q.14-1.06.74-1.65.11-.11.24-.21.55-.39 1.38-.39.49 0 .87.17.25.1.46.27.1.09.19.19l.02.02q.26.29.39.69zm-9.83-1.08q.47.21.87.75v3.91q-.44.59-.97.91-.02.01-.05.03-.5.29-1.18.29-.48 0-.87-.17-.09-.04-.17-.09-.27-.16-.48-.44-.26-.37-.39-.93-.14-.57-.14-1.36 0-1.49.6-2.3.23-.3.52-.49.51-.32 1.22-.32.58 0 1.04.21zM69.91 20q.69-.12 1.68-.15v1.68q-.24.25-.5.45-.25.2-.52.35-.28.14-.59.22-.31.07-.69.07-.28 0-.52-.06-.24-.07-.41-.21-.01-.01-.02-.01-.01-.02-.03-.03-.16-.14-.25-.35-.11-.23-.11-.55 0-.18.06-.34.05-.14.14-.27.2-.27.63-.47.44-.2 1.13-.33z" fill="#444" fill-rule="evenodd"/><path fill="none" d="M136 0h27v34h-27z"/><g clip-path="url(#a)"><path d="M149.64.01L149.5 0 136 1.4v24.61L149.5 34l13.5-7.99V1.4L149.64.01zm11.59 25l-11.73 6.94-11.74-6.94V14.92l11.69 6.92.02 1.25-8.02-4.74-.01 1.23 8.04 4.8.02 1.29-8.04-4.76-.01 1.23 8.05 4.81 8.12-4.84V16.9l3.62-2.15-.01 10.26zm0-11.56l-3.22 1.88-1.48.87-7.07-4.18-.01 1.22 6.04 3.57-.05.03-.13.08-.86.49-4.99-2.95-.01 1.23 3.94 2.33-.94.61-.02.01-2.97-1.74-.01 1.22 1.95 1.14-1.99 1.18-11.62-6.87 11.64-6.96 11.8 6.84zm0-1.23l-11.79-6.91-11.68 6.9V2.98l11.74-1.22 11.73 1.22v9.24z" fill="#68B738"/></g></g></symbol><symbol id="tablet-academy-footer-pic"><g fill="none"><path fill="none" d="M0 0h168v37H0z"/><path d="M86.86 24.69V12.9h-1.43v4.49c-.27-.3-.59-.53-.95-.69-.35-.18-.77-.26-1.27-.26-.54 0-1.03.11-1.47.33-.43.21-.8.51-1.1.89-.3.37-.53.82-.69 1.34a5.55 5.55 0 00-.24 1.66q0 1.01.22 1.79c.14.51.35.95.62 1.29.26.35.59.61.96.8.38.17.8.26 1.27.26q.83 0 1.47-.35.03-.02.06-.03c.45-.26.84-.6 1.19-1.01l.13.98c.05.2.18.3.38.3h.85zm-71.11 0V13.22H14.2v5.12H8.01v-5.12H6.46v11.47h1.55v-5.22h6.19v5.22h1.55zm6.97-10.16h3.71v-1.31h-8.98v1.31h3.72v10.16h1.55V14.53zm17.34 10.16V13.22h-1.15q-.2 0-.32.04c-.08.03-.15.1-.21.23l-3.89 7.05c-.07.12-.13.26-.19.4s-.12.28-.17.43a3.25 3.25 0 00-.18-.43c-.05-.14-.12-.27-.18-.4l-3.96-7.05c-.07-.13-.14-.2-.22-.23q-.11-.04-.32-.04h-1.14v11.47h1.36v-8.43c0-.24-.02-.5-.05-.78l4.02 7.2c.12.24.31.36.56.36h.22c.25 0 .44-.12.56-.36l3.94-7.17q-.02.2-.03.39-.01.2-.01.36v8.43h1.36zm9.43 0v-1.31h-4.96V13.22h-1.54v11.47h6.5zm12.92 0h1.2l-4.59-11.47h-1.56l-4.59 11.47h1.2q.16 0 .27-.07.04-.02.07-.04a.56.56 0 00.18-.26l1.07-2.77h5.15l1.07 2.77c.04.11.11.19.19.26.09.07.2.11.34.11zm-3.83-8.92l1.8 4.66H56.1l1.8-4.65c.11-.29.23-.65.34-1.08q.08.31.17.59c.06.18.11.34.17.48zm14.86.99c-.52.21-1 .53-1.45.97l.26.45c.05.08.11.14.18.19.06.05.15.08.24.08.13 0 .25-.05.37-.13.13-.09.28-.19.45-.3.18-.11.38-.21.62-.29.24-.09.53-.14.88-.14.53 0 .92.16 1.2.49q.4.48.4 1.42v.64c-.92.02-1.7.1-2.33.25-.64.15-1.15.33-1.55.56-.39.23-.68.49-.85.79-.18.3-.27.6-.27.92 0 .37.06.69.18.96q.18.4.48.66l.01.01c.21.17.45.31.73.4.27.08.57.13.88.13q.47 0 .84-.09c.26-.06.5-.13.72-.23.23-.11.44-.24.64-.39.21-.15.41-.33.63-.53l.16.77c.04.13.1.23.17.27.08.05.18.07.32.07h.64V19.5c0-.45-.07-.87-.19-1.24-.12-.38-.3-.71-.54-.97-.24-.27-.54-.48-.89-.63-.35-.15-.76-.22-1.21-.22q-.94 0-1.72.32zm-3.37 1.4c.05-.03.09-.08.13-.14l.38-.51a3.73 3.73 0 00-1.16-.77c-.44-.19-.94-.29-1.51-.29-.61 0-1.15.11-1.63.32-.47.21-.87.5-1.19.87-.32.37-.57.81-.74 1.32-.16.51-.25 1.07-.25 1.67 0 .66.1 1.25.28 1.77.18.52.43.95.75 1.31.32.35.69.62 1.13.81.43.19.91.28 1.41.28.3 0 .58-.02.87-.07.28-.05.55-.13.8-.23a3 3 0 00.73-.39c.23-.15.43-.34.6-.56l-.4-.52c-.06-.09-.15-.13-.27-.13-.1 0-.19.04-.3.12-.09.08-.21.17-.36.28-.15.1-.33.19-.56.28-.22.08-.5.12-.85.12-.36 0-.69-.07-.99-.2-.28-.14-.53-.34-.74-.6-.2-.26-.36-.58-.47-.96a4.73 4.73 0 01-.17-1.31q0-.7.15-1.27c.11-.38.26-.7.47-.97.2-.27.46-.47.76-.61.31-.14.66-.21 1.06-.21.3 0 .55.03.75.1.21.07.38.14.52.22.15.08.27.15.36.22.1.07.19.1.27.1.07 0 .13-.02.17-.05zm24.98 5.95c.25-.16.46-.35.63-.56l-.4-.52c-.06-.09-.15-.13-.27-.13-.09 0-.2.04-.33.12-.12.08-.27.17-.46.27-.19.09-.41.18-.67.27-.26.08-.57.12-.92.12-.39 0-.73-.06-1.04-.18-.31-.13-.58-.32-.8-.57-.23-.26-.4-.58-.53-.95-.12-.38-.19-.83-.21-1.34h5.42q.17 0 .25-.09l.02-.02c.05-.08.07-.23.07-.45 0-.58-.08-1.09-.25-1.54-.18-.45-.41-.83-.72-1.13-.3-.31-.65-.55-1.07-.71a3.67 3.67 0 00-1.34-.25q-.88 0-1.59.32c-.47.2-.86.48-1.19.85-.32.35-.57.78-.75 1.27-.17.49-.26 1.02-.26 1.58 0 .7.1 1.32.29 1.86.19.54.46.99.8 1.36.35.36.76.64 1.23.83.47.19.99.28 1.55.28.29 0 .59-.03.89-.08.29-.05.58-.12.86-.22.28-.11.55-.23.79-.39zm2.51-7.53v8.11h1.43v-6.04c.25-.33.53-.58.83-.77.3-.19.62-.29.97-.29q.57 0 .93.27.12.09.22.21c.26.32.39.81.39 1.46v5.16h1.43v-5.16c0-.32.05-.6.14-.84.09-.25.22-.45.38-.61a1.737 1.737 0 011.22-.49q.6 0 .98.28.12.1.23.22c.27.32.41.8.41 1.44v5.16h1.43v-5.16q0-.74-.18-1.31c-.12-.38-.3-.7-.54-.96-.23-.27-.51-.46-.84-.6-.34-.14-.71-.21-1.14-.21-.27 0-.53.04-.79.1-.26.07-.5.17-.73.31-.23.13-.44.31-.62.52-.19.22-.34.47-.45.76-.15-.51-.4-.93-.74-1.23-.34-.3-.78-.46-1.32-.46q-.61 0-1.11.25-.09.05-.19.11c-.37.23-.7.53-1 .9l-.11-.83c-.05-.2-.17-.3-.37-.3h-.86zm15.43 10.5l4.52-10.5h-1.13c-.1 0-.19.03-.27.09-.07.05-.12.12-.16.21l-2.1 5.1c-.09.22-.17.46-.24.71-.06-.25-.13-.48-.22-.71l-2.16-5.1a.433.433 0 00-.16-.2.414.414 0 00-.28-.1h-1.24l3.35 7.64-1.48 3.21h1.05c.15 0 .26-.03.33-.09.08-.07.14-.15.19-.26zm-18.6-8.23c.09.27.14.57.14.9H90.1c.1-.7.34-1.25.74-1.65.4-.4.94-.6 1.62-.6q.49 0 .87.17c.26.11.47.26.65.47.18.19.32.43.41.71zm-9.82-1.08c.31.14.6.38.86.74v3.91c-.29.39-.61.69-.96.91-.35.21-.76.32-1.23.32-.32 0-.61-.06-.87-.17-.26-.11-.47-.29-.65-.53-.17-.24-.31-.55-.4-.93-.09-.38-.13-.83-.13-1.36 0-.99.2-1.76.6-2.3q.23-.3.52-.48.5-.33 1.22-.33c.38 0 .73.07 1.04.22zm-9.66 3.43c.47-.09 1.03-.14 1.68-.16v1.68c-.16.17-.32.32-.49.46-.17.13-.34.24-.53.34-.18.1-.38.17-.58.22-.21.05-.44.08-.69.08-.19 0-.37-.03-.53-.07-.16-.05-.3-.12-.42-.21a1 1 0 01-.28-.39c-.07-.15-.11-.34-.11-.55 0-.22.07-.43.19-.61.14-.18.35-.34.64-.47q.44-.2 1.12-.32z" fill="#444" fill-rule="evenodd"/><path fill="none" d="M141 1.5h27v34h-27z"/><g clip-path="url(#a)"><path d="M154.64 1.51l-.14-.01L141 2.9v24.61l13.5 7.99 13.5-7.99V2.9l-13.36-1.39zm11.59 25l-11.73 6.94-11.74-6.94V16.42l11.69 6.92.02 1.25-8.02-4.74-.01 1.23 8.04 4.8.02 1.29-8.04-4.76-.01 1.23 8.05 4.81 8.12-4.84V18.4l3.62-2.15-.01 10.26zm0-11.56l-3.22 1.88-1.48.87-7.07-4.18-.01 1.22 6.04 3.57-.05.03-.13.08-.86.49-4.99-2.95-.01 1.23 3.94 2.33-.94.61-.02.01-2.97-1.74-.01 1.22 1.95 1.14-1.99 1.18-11.62-6.87 11.64-6.96 11.8 6.84zm0-1.23l-11.79-6.91-11.68 6.9V4.48l11.74-1.22 11.73 1.22v9.24z" fill="#666"/></g></g></symbol><symbol id="tablet-advan-nutrition"><g fill="none"><path fill="#68B738" d="M0 0h80v80H0z"/><path fill="none" d="M24 25h30v32H24z"/><g clip-path="url(#a)"><path d="M632.43 162.99h24.38v18h-13.13M636.18 180.99h-3.75v-14M643.68 181l-7.5 6v-6" stroke="#FFF" stroke-width="2" stroke-linejoin="round" stroke-linecap="round"/><path d="M51.77 27.76c-.1-.45-.48-.76-.91-.76h-.01c-4.93.03-16.94.91-21.79 8.38-2.52 3.87-2.73 8.91-.64 14.96.01.05.05.08.07.12-.75 1.97-1.04 3.29-1.05 3.33-.11.54.22 1.07.72 1.18.07.02.13.03.2.03.43 0 .82-.33.92-.79.02-.11 2.4-10.38 10.85-16.38.43-.31.55-.93.26-1.39-.29-.46-.87-.58-1.3-.28-4.79 3.41-7.74 8.01-9.47 11.66-1.24-4.58-.92-8.38.98-11.31 3.75-5.76 12.63-7.15 17.98-7.44-1.15 1.8-2.41 5.1-2.41 10.93 0 3.12-.83 5.52-2.46 7.14-2.62 2.59-6.88 2.83-10 2.58-.51-.05-.96.37-1 .92-.04.55.35 1.03.86 1.07.62.05 1.29.09 1.98.09 3.17 0 6.87-.67 9.43-3.2 2.04-2.01 3.07-4.9 3.07-8.6 0-9.1 3.21-11.1 3.23-11.11.39-.21.59-.68.49-1.13z" fill="#FFF"/></g></g></symbol><symbol id="tablet-advan-powder"><g fill="none"><path fill="#68B738" d="M0 0h80v80H0z"/><path d="M37.86 26c-1.63 0-2.9 1.36-2.9 3.09 0 1.74 1.27 3.1 2.9 3.1s2.89-1.36 2.89-3.1c0-1.73-1.26-3.09-2.89-3.09zm0 1.18c.99 0 1.72.85 1.72 1.91 0 1.01-.79 1.92-1.72 1.92-1 0-1.72-.85-1.72-1.92 0-1 .77-1.91 1.72-1.91zM27 50.89c0 1.18.4 2.18 1.35 3 1 .86 2.17.79 2.17.79h19.01c.78 0 1.81-.39 2.63-1.46.84-1 .78-2.37.78-2.37V33.53c0-.44-.11-.61-.74-.61s-.69.28-.69.6v17.32c-.01.3-.07 1.09-.74 1.73-.73.63-1.45.55-1.45.55s-18.1 0-19-.03c-.35-.06-.91-.19-1.45-.91-.51-.73-.41-1.64-.41-1.64V33.22c0-.47-.23-.64-.72-.64s-.74.17-.74.58v17.73zm16.29-16.42c-1.09.24-2.18.39-4.26 2.37-2.08 2.01-3.62 1.92-5.16 1.83-1.54-.09-3.16-1.55-3.44-1.92-.33-.35-.9-.12-1.08.12-.16.24-.16.65.11 1 1.26 1.19 2.44 2.1 4.7 2.28 2.27.22 4.44-.81 5.89-2.28 1.44-1.45 2.17-1.73 3.25-1.91 2.63-.42 4.17.62 5.07 1.28 1 1.09 1.27.78 1.54.47.54-.72-.22-1.28-1.08-1.91-1.81-1.19-3.53-1.65-5.53-1.28l-.01-.05zm-9.05 7.21c-1.18 0-2.09 1-2.09 2.28 0 1.27.91 2.28 2.09 2.28 1.17 0 2.08-1.01 2.08-2.28 0-1.28-.91-2.28-2.08-2.28zm11.76.78c-1.54 0-2.8 1.37-2.8 3.01 0 1.64 1.26 3.01 2.8 3.01 1.54 0 2.81-1.37 2.81-3.01 0-1.64-1.27-3.01-2.81-3.01zm0 1.46c.8 0 1.45.7 1.45 1.55 0 .87-.65 1.55-1.45 1.55-.79 0-1.45-.7-1.45-1.55 0-.87.66-1.55 1.45-1.55z" fill="#FFF"/></g></symbol><symbol id="tablet-advan-reception"><g fill="none"><path fill="#68B738" d="M0 0h80v80H0z"/><path fill="none" d="M28 25h25v30H28z"/><path d="M46.61 25.07c.38-.15.81-.07 1.09.22.91.91 2.1 2.88 3.06 5.92.97 3.07 1.74 7.29 1.74 12.79 0 .55-.45 1-1 1H48v9c0 .55-.45 1-1 1-.56 0-1-.45-1-1V26c0-.41.24-.77.61-.93zM48 43h2.49c-.09-4.82-.79-8.52-1.64-11.19-.27-.88-.57-1.64-.85-2.3V43zM29.5 25c.55 0 1 .44 1 1v5.5c0 .55.19 1.31.7 1.91.35.43.91.82 1.8.99V26c0-.56.44-1 1-1 .55 0 1 .44 1 1v8.4c.88-.17 1.44-.56 1.79-.99.51-.6.71-1.36.71-1.91V26c0-.56.44-1 1-1 .55 0 1 .44 1 1v5.5c0 .94-.31 2.18-1.18 3.2-.74.88-1.83 1.53-3.32 1.73V54c0 .55-.45 1-1 1-.56 0-1-.45-1-1V36.43c-1.5-.2-2.59-.85-3.33-1.73-.87-1.02-1.17-2.26-1.17-3.2V26c0-.56.44-1 1-1z" fill="#FFF" fill-rule="evenodd"/></g></symbol><symbol id="tablet-advan-time"><g fill="none"><path fill="#68B738" d="M0 0h80v80H0z"/><path d="M32.53 24c-1.07 0-1.07 1.59 0 1.59h6.63v1.61C32.37 27.64 27 33.47 27 40.58c0 4.03 1.74 7.68 4.49 10.13.47.42.54 1.18.1 1.64l-1.53 1.57c-.74.69.36 1.76 1.03 1l2-2.04c.35-.34.87-.43 1.3-.22a12.62 12.62 0 0011.06.07c.42-.22.95-.13 1.29.21l1.93 1.98c.68.64 1.66-.31 1.04-1l-1.44-1.49c-.45-.46-.38-1.21.11-1.65 1.44-1.27 2.6-2.85 3.39-4.61.79-1.76 1.2-3.67 1.19-5.6 0-7.11-5.4-12.95-12.21-13.37v-1.61h6.64c1.06 0 1.06-1.59 0-1.59H32.53zm-4.1 16.57c0-6.57 5.17-11.89 11.55-11.89 6.37 0 11.54 5.32 11.54 11.89 0 6.58-5.17 11.91-11.54 11.91-6.37 0-11.55-5.33-11.55-11.91zm10.74-8.14c0-1.11 1.66-1.11 1.66 0v8.68a.857.857 0 01-.85.85.802.802 0 01-.81-.8v-8.73zm-4.97 2.63c.31 0 .6-.12.82-.34.22-.22.34-.51.34-.82 0-.31-.12-.6-.34-.82-.22-.21-.51-.34-.82-.34-.28.03-.55.16-.74.38-.2.21-.3.49-.3.78 0 .28.1.56.3.77.19.22.46.35.74.38v.01zm11.54 0c.31 0 .6-.12.82-.34.22-.22.34-.51.34-.82 0-.31-.12-.6-.34-.82-.22-.21-.51-.34-.82-.34-.28.03-.55.16-.74.38-.2.21-.3.49-.3.78 0 .28.1.56.3.77.19.22.46.35.74.38v.01zM35.36 47.73c0 1.54-2.31 1.54-2.31 0s2.31-1.54 2.31 0zm4.62 3.46a1.243 1.243 0 00.89-.3 1.186 1.186 0 00.38-.85c0-.17-.04-.33-.1-.47-.07-.15-.16-.28-.28-.39a1.243 1.243 0 00-.89-.3 1.168 1.168 0 00-1.05 1.16 1.162 1.162 0 001.05 1.15zM31.9 40.74c.01.16 0 .32-.05.47-.06.16-.14.3-.25.42-.1.12-.24.21-.38.28-.15.06-.31.1-.47.1-.16 0-.32-.04-.47-.1-.15-.07-.28-.16-.39-.28-.11-.12-.19-.26-.24-.42-.05-.15-.07-.31-.05-.47a1.148 1.148 0 011.15-1.05c.29 0 .56.11.78.3.21.2.34.46.37.75zm17.3 1.16c.16.01.33-.01.48-.06.15-.05.29-.13.41-.24.12-.11.22-.24.28-.39.07-.14.1-.3.1-.47 0-.16-.03-.32-.1-.46a1.08 1.08 0 00-.28-.39c-.12-.11-.26-.19-.41-.24-.15-.05-.32-.07-.48-.06-.28.03-.55.16-.74.38-.2.21-.3.49-.3.77 0 .29.1.57.3.78.19.22.46.35.74.38zm-2.3 5.84c0 1.53-2.31 1.53-2.31-.01s2.31-1.54 2.31 0v.01z" fill="#FFF"/></g></symbol><symbol id="tablet-cat-pro-product"><g fill="none"><circle cx="134" cy="100" r="100" fill="#68B738"/><path fill="none" d="M0 44h268v112H0z"/><g clip-path="url(#a)"><path d="M246.23 55.51c2.31-3.68 5.38-6.81 9-9.2 2-1.4 3.2-1.4 4.4 1.2 1.6 3.8 3 7.8 1.8 12-.22.71-.26 1.47-.12 2.2.14.73.46 1.42.92 2 1.2 1.6 2.2 3.2 3.2 4.6 1.36 1.73 2.25 3.78 2.56 5.96.32 2.17.05 4.4-.76 6.44-.73 1.98-.87 4.14-.4 6.2.4 1.98.4 4.02 0 6a7.495 7.495 0 01-5.4 6.4c-2.56.49-4.84 1.91-6.4 4a2 2 0 01-.77.73c-.31.18-.67.27-1.03.27-2.4.4-8.4-5-8.4-7.4v-1.2c.2-7.2-.2-7.8-6.8-10.8a8.789 8.789 0 01-3.6-2.4c-1.2-1.6-2.8-1.4-4.6-.8-1.8.6-2.8 1.8-2.6 3.8.61 4.84.81 9.72.6 14.6.02.56.15 1.1.4 1.6 6.2 9 8.6 19.6 11.6 29.8 2.4 7.8 6.8 12 14.8 12.6 1.28.1 2.55.3 3.8.6 1.64.26 3.17 1.01 4.38 2.16a8.212 8.212 0 012.42 4.24c1.4 4.2.6 5.2-3.6 5.2h-13c-1.68.08-3.33-.49-4.6-1.6a23.3 23.3 0 00-6.8-4 14.475 14.475 0 01-6.8-5.2 56.996 56.996 0 00-8-9c-5.6-5.8-11.6-11.4-16.8-17.4a22.763 22.763 0 01-6.4-15.2c0-1.8-.4-2.6-2.4-1.8-.6.38-1.29.59-2 .6-5.6 0-8.4 3.4-10.4 8.4-1.8 4.2-4.2 8.2-6.4 12.4a20.72 20.72 0 00-2 8.4c0 4.8 1.2 6.4 5.6 8 2.8 1 5.4 2 6.8 4.8 1.6 3.2 1.2 4-2.2 4.2h-13.6c-.78.08-1.57-.09-2.25-.49-.68-.39-1.22-.99-1.55-1.71l-3.6-6a12.103 12.103 0 01-1.98-5.23c-.25-1.88-.05-3.79.58-5.57.87-3.47.94-7.1.2-10.6a16.863 16.863 0 013.4-14c1.2-1.4 1.2-2-.8-2.4-8.18-1.74-16.1-4.49-23.6-8.2-.05 0-.1-.02-.14-.06a.197.197 0 01-.06-.14c-6.4-2.4-7.6-2-9.4 4.6-1.6 5.6-3.2 11.2-4.4 17-1.4 6.4.2 12.4 2.2 18.4.8 2.4 3.2 2.2 5 2.8 4 1.2 7.4 2.8 9 7 1.4 3.2 1.2 3.6-2.2 3.6-3.4 0-6.8-.2-10.4 0-3.04.05-6-.93-8.4-2.8-9.6-6.4-12.4-16.2-13.2-26.8-.4-6.6-4-11.8-8.2-16.8-.8-1-1.6-1.4-2.8-.6a88.389 88.389 0 01-13.4 6 53.469 53.469 0 00-24.4 17.6 21.336 21.336 0 00-4.4 10.2c-.6 3.6.4 5.2 4 6.2s5.4 3 5.8 6.8c.2 1.6-.4 2.4-2 2.4h-16.2c-.53-.04-1.04-.2-1.49-.48-.46-.28-.84-.66-1.11-1.12-2.51-3.11-3.86-7-3.8-11-.1-6.91.5-13.81 1.8-20.6.27-2.03 1.03-3.97 2.21-5.64a12.61 12.61 0 014.59-3.96c11.8-5.6 18-16.2 23.6-27.2 1.2-2.2.2-2.6-1.8-2.4-5.6.78-10.9 2.98-15.4 6.4-5.89 4.3-11.44 9.04-16.6 14.2a33.298 33.298 0 01-20.6 9.8c-14.6.8-21.4-7.4-20.8-20.6.14-4.5 1.83-8.82 4.8-12.2a8.45 8.45 0 014.04-2.87c1.61-.54 3.33-.58 4.96-.13 3 .8 3.8 2.4 2.6 5.4-.6 1.2-1.4 2.2-2 3.4-.86 1.22-1.54 2.57-2 4-2.2 6 .8 10.2 7 10.8 6.6.6 12-2.2 17-6.2 6.03-4.82 11.4-10.4 16-16.6 3.44-4.53 7.77-8.3 12.72-11.09a41.758 41.758 0 0116.08-5.11c4.6-.6 8.6-2.6 13-3.8 8.23-2.51 16.8-3.72 25.4-3.6 3.99.16 7.96-.59 11.6-2.2 9.8-4 20-4 30.2-2 8 1.6 16 3.6 23.8 5.6 4.64.86 9.42.73 14-.4 8.78-2.23 17.76-3.57 26.8-4 5.93-.29 11.83.88 17.2 3.4 4 1.8 4 1.8 3 5.6z" fill="#000"/></g></g></symbol><symbol id="tablet-cat-slim-produc"><g fill="none"><circle cx="100" cy="111" r="100" fill="#68B738"/><path fill="none" d="M30 0h140v194H30z"/><g clip-path="url(#a)"><path d="M139.67 0h-.75A6.876 6.876 0 00136 3.18c-1.13 2.16-2 4.45-2.58 6.82-.13.71-.49 1.36-1.03 1.84-.53.49-1.21.78-1.93.84-2.21.37-4.3 1.25-6.11 2.56a14.64 14.64 0 00-4.35 5 53.212 53.212 0 00-3.7 8c-2.84 7.35-5.02 14.96-7.7 22.38-1.26 3.38-1.32 3.38-5.12 3.38-4.55 0-4.22-.7-4.28 4.3 0 1.58.48 2.38 2.16 2.3.52 0 1.3-.26 1.5.42.2.68-.48.98-.88 1.38-2.38 2.4-5.38 4.09-8.67 4.88-3.79 1.02-7.67 1.82-11.38 3.05-9.49 3.18-18.27 7.63-25.11 15.15-4 4.67-7.21 9.96-9.48 15.68-7.34 17.28-10.91 35.48-13.66 53.86-1.3 8.62-2.22 17.28-2.92 26-.36 4.28-.76 8.62-.76 12.98h66.66c.11-.88-.05-1.78-.46-2.56-.65-1.6-1.69-3-3.03-4.08a9.967 9.967 0 00-4.63-2.06c-1.4-.32-1.56-.74-.7-1.84 1.4-1.88 2.47-3.97 3.18-6.2 3.26-9.62 4.52-19.66 6.1-29.6A59.72 59.72 0 01104 126c2.84-4.95 6.64-9.28 11.18-12.74 1.66-1.26 1.72-1.26 2 .88.2 1.42.24 2.88.34 4.32.6 9.44.48 18.93-.36 28.36-.76 7.31-.86 14.67-.3 22 .79 8.5 2.31 16.93 4.54 25.18H148c-.35-2.17-1.35-4.18-2.86-5.76a10.788 10.788 0 00-5.62-3.12c-2.51-.4-5.07-.27-7.52.4-1.2.28-1.7 0-1.8-1.3-.83-10.59-.16-21.24 2-31.64a358.23 358.23 0 006.12-36.36c.52-4.94 2.07-9.71 4.56-14 2.37-4.24 4.46-8.64 6.79-12.91.93-1.54 1.49-3.29 1.64-5.09a11.8 11.8 0 00-.79-5.29c-.54-1.42-1.06-2.85-1.72-4.21-2-3.91-4-7.76-5.84-11.7-.98-2-.76-2.24 1.42-2.3 3.26 0 3.26 0 3.32-3.29v-1.31c0-1.38-.53-2.14-2-2h-3.04c-1.38 0-1.78-.58-1.44-2a12.454 12.454 0 0110.26-8.86c4.43-.39 8.89-.1 13.24.86.5.15 1.04.11 1.51-.13s.82-.66.99-1.15c.8-2 1.68-4 2.58-6 .2-.36.29-.77.25-1.18-.03-.4-.19-.79-.45-1.1-6.4-8.13-13.35-15.7-22.8-20.56a3.019 3.019 0 01-1.77-2.24c-.53-2.86-1.38-5.65-2.53-8.33A7.009 7.009 0 00139.67 0z" fill="#000"/></g></g></symbol><symbol id="telegram-contacts"><g fill="none"><path fill="none" d="M0 0h28v22H0z"/><g clip-path="url(#a)"><path d="M23.46 3.15c.17.15.26.38.22.61l-2.62 15.76c-.04.22-.19.4-.39.49-.21.09-.44.07-.63-.06l-7.87-5.25a.635.635 0 01-.29-.44.63.63 0 01.14-.51l2.61-3.27-4.36 2.91c-.2.13-.45.15-.66.04L4.36 10.8a.627.627 0 01-.36-.62c.01-.27.18-.49.43-.58l18.38-6.57c.22-.08.47-.03.65.12zM6.32 10.32l3.54 1.77 7.56-5.05c.27-.18.63-.13.85.11.22.24.23.6.02.85l-4.8 6.01 6.44 4.29L22.2 4.65 6.32 10.32z" fill="#666" fill-rule="evenodd"/></g></g></symbol><symbol id="vk-contacts"><g fill="none"><path fill="none" d="M0 0h28v22H0z"/><g clip-path="url(#a)"><path d="M1 5.33c0-.85.51-1.31 1.54-1.38l3.97.03c.27 0 .44.12.53.37.41 1.26.87 2.35 1.38 3.26.5.91 1.16 1.97 1.98 3.16.07.15.19.22.35.22.12 0 .22-.06.29-.17l.08-.28.03-4.35c0-.3-.08-.5-.23-.6-.15-.11-.43-.18-.84-.23-.32-.05-.48-.24-.48-.55 0-.07.01-.12.03-.16.37-1.08 1.44-1.63 3.19-1.63l1.5-.02c.67 0 1.23.15 1.68.47.44.32.66.82.66 1.51v5.71c.13.08.24.13.35.13.26 0 .49-.15.69-.46 1.95-2.58 3.01-4.31 3.17-5.18 0-.01.02-.06.05-.12.13-.25.33-.47.62-.66.28-.18.53-.31.74-.37a.47.47 0 01.24-.05h4.13l.27.02c.35 0 .63.16.82.48.08.1.12.21.15.33.03.11.05.23.05.35.01.12.02.18.02.2v.18c-.13.68-.44 1.42-.95 2.2-.5.78-1.15 1.62-1.93 2.52-.78.91-1.27 1.5-1.46 1.79-.16.2-.24.38-.24.55 0 .14.07.29.21.45l3.89 4.63c.21.27.32.56.32.88 0 .39-.16.71-.48.96-.32.25-.7.39-1.15.42l-.45.03h-4.05c-.02 0-.05 0-.11.01-.05.01-.09.02-.1.02-.39 0-.76-.16-1.1-.48-.12-.14-.95-1.13-2.5-2.97-.09-.12-.21-.23-.37-.33-.07.27-.17.66-.28 1.16-.12.5-.2.86-.26 1.08l-.08.43c-.17.59-.55.94-1.11 1.05l-.38.03h-2.61c-1.47 0-2.94-.64-4.41-1.91-1.46-1.28-2.78-2.92-3.95-4.94-1.18-2.02-2.27-4.37-3.28-7.06C1.04 5.85 1 5.6 1 5.33zm16.01 6.52c-.38 0-.71-.1-1.01-.29-.31-.19-.46-.46-.46-.79V4.98c0-.33-.09-.57-.26-.71-.18-.15-.49-.22-.94-.22l-1.52.05c-.76 0-1.34.13-1.73.38.78.35 1.18.92 1.18 1.71v4.42c-.04.42-.22.77-.54 1.05-.32.28-.67.41-1.06.41-.54 0-.94-.24-1.23-.73-1.38-1.97-2.41-3.85-3.09-5.63l-.24-.65-3.54-.03c-.23 0-.36.01-.39.04-.03.02-.04.1-.04.21 0 .15.02.31.05.48l.56 1.41c1.5 3.64 3.12 6.5 4.87 8.6 1.75 2.1 3.46 3.14 5.15 3.14h2.67c.1 0 .18-.03.24-.08.05-.06.09-.18.13-.34l.05-.26.51-2.21c.14-.3.26-.5.37-.6.2-.19.43-.28.69-.28.43 0 .87.24 1.31.73L21 18.59c.15.21.3.32.46.32h4.39c.54 0 .8-.12.8-.37 0-.09-.02-.17-.08-.25l-3.86-4.56c-.3-.35-.45-.73-.45-1.13 0-.4.14-.79.42-1.16.23-.33.68-.89 1.35-1.67.66-.78 1.25-1.51 1.74-2.19.5-.67.83-1.29.99-1.84l.08-.33a.323.323 0 01-.03-.16.92.92 0 00-.02-.19H22.6c-.26.1-.48.25-.64.45l-.16.48c-.44 1.15-1.6 2.94-3.49 5.35-.37.34-.81.51-1.3.51z" fill="#666"/></g></g></symbol><symbol id="youtube-contacts"><g fill="none"><path fill="none" d="M0 0h28v22H0z"/><g clip-path="url(#a)"><path d="M17.85 10.79L12.61 7.3a.568.568 0 00-.33-.11.573.573 0 00-.34.08.64.64 0 00-.34.57v6.98a.64.64 0 00.34.58c.11.06.22.08.34.08a.65.65 0 00.33-.11l5.24-3.49c.09-.06.16-.14.21-.24.05-.09.08-.2.08-.31a.659.659 0 00-.29-.54zM12.9 13.6V9.06l3.41 2.27-3.41 2.27zm12.48-8.56c-.09-.37-.27-.71-.52-.99-.26-.29-.57-.51-.93-.65C20.21 1.97 14.25 2 14 2c-.26 0-6.22-.03-9.94 1.4-.36.14-.67.36-.93.65-.25.28-.43.62-.52.99C2.32 6.11 2 8.07 2 11.33c0 3.27.32 5.23.61 6.3.09.37.27.71.52.99.26.29.57.51.93.64 3.72 1.43 9.68 1.41 9.94 1.41h.07c.75 0 6.32-.04 9.86-1.41.36-.13.67-.35.93-.64.25-.28.43-.62.52-.99.29-1.07.62-3.03.62-6.3 0-3.26-.33-5.22-.62-6.29zM24.12 17.3a1.09 1.09 0 01-.66.74c-3.49 1.34-9.4 1.32-9.46 1.32-.07 0-5.98.02-9.47-1.32a1.09 1.09 0 01-.66-.74c-.26-1-.57-2.85-.57-5.97 0-3.12.31-4.96.57-5.96.04-.17.13-.32.24-.45.11-.13.26-.23.42-.3C8.02 3.28 13.93 3.3 14 3.3c.06 0 5.97-.02 9.46 1.32.16.07.31.17.42.3.11.13.2.28.24.45.26 1 .57 2.84.57 5.96s-.31 4.97-.57 5.97z" fill="#666"/></g></g></symbol></svg>