<svg width="28.000000" height="22.000000" viewBox="0 0 28 22" fill="none" xmlns="http://www.w3.org/2000/svg" xmlns:xlink="http://www.w3.org/1999/xlink">
<defs>
<clipPath id="clip10_887">
<rect id="telegram" width="28.000000" height="22.000000" fill="white" fill-opacity="0"/>
</clipPath>
</defs>
<rect id="telegram" width="28.000000" height="22.000000" fill="#FFFFFF" fill-opacity="0"/>
<g clip-path="url(#clip10_887)">
<path id="Vector (Stroke)" d="M23.46 3.15C23.63 3.3 23.72 3.53 23.68 3.76L21.06 19.52C21.02 19.74 20.87 19.92 20.67 20.01C20.46 20.1 20.23 20.08 20.04 19.95L12.17 14.7C12.01 14.6 11.91 14.44 11.88 14.26C11.85 14.08 11.9 13.89 12.02 13.75L14.63 10.48L10.27 13.39C10.07 13.52 9.82 13.54 9.61 13.43L4.36 10.8C4.12 10.69 3.98 10.44 4 10.18C4.01 9.91 4.18 9.69 4.43 9.6L22.81 3.03C23.03 2.95 23.28 3 23.46 3.15ZM6.32 10.32L9.86 12.09L17.42 7.04C17.69 6.86 18.05 6.91 18.27 7.15C18.49 7.39 18.5 7.75 18.29 8L13.49 14.01L19.93 18.3L22.2 4.65L6.32 10.32Z" fill="currentColor" fill-opacity="1.000000" fill-rule="evenodd"/>
</g>
</svg>
