<svg width="28.000000" height="22.000000" viewBox="0 0 28 22" fill="none" xmlns="http://www.w3.org/2000/svg" xmlns:xlink="http://www.w3.org/1999/xlink">
<defs>
<clipPath id="clip10_885">
<rect id="youtube" width="27.999998" height="22.000000" fill="white" fill-opacity="0"/>
</clipPath>
</defs>
<rect id="youtube" width="27.999998" height="22.000000" fill="#FFFFFF" fill-opacity="0"/>
<g clip-path="url(#clip10_885)">
<path id="Vector" d="M17.85 10.79L12.61 7.3C12.51 7.23 12.4 7.19 12.28 7.19C12.16 7.18 12.04 7.21 11.94 7.27C11.84 7.32 11.75 7.41 11.69 7.51C11.63 7.61 11.6 7.72 11.6 7.84L11.6 14.82C11.6 14.94 11.63 15.06 11.69 15.16C11.75 15.26 11.84 15.35 11.94 15.4C12.05 15.46 12.16 15.48 12.28 15.48C12.4 15.47 12.51 15.44 12.61 15.37L17.85 11.88C17.94 11.82 18.01 11.74 18.06 11.64C18.11 11.55 18.14 11.44 18.14 11.33C18.14 11.23 18.11 11.12 18.06 11.02C18.01 10.93 17.94 10.85 17.85 10.79ZM12.9 13.6L12.9 9.06L16.31 11.33L12.9 13.6ZM25.38 5.04C25.29 4.67 25.11 4.33 24.86 4.05C24.6 3.76 24.29 3.54 23.93 3.4C20.21 1.97 14.25 2 14 2C13.74 2 7.78 1.97 4.06 3.4C3.7 3.54 3.39 3.76 3.13 4.05C2.88 4.33 2.7 4.67 2.61 5.04C2.32 6.11 2 8.07 2 11.33C2 14.6 2.32 16.56 2.61 17.63C2.7 18 2.88 18.34 3.13 18.62C3.39 18.91 3.7 19.13 4.06 19.26C7.78 20.69 13.74 20.67 14 20.67L14.07 20.67C14.82 20.67 20.39 20.63 23.93 19.26C24.29 19.13 24.6 18.91 24.86 18.62C25.11 18.34 25.29 18 25.38 17.63C25.67 16.56 26 14.6 26 11.33C26 8.07 25.67 6.11 25.38 5.04ZM24.12 17.3C24.08 17.47 23.99 17.62 23.88 17.75C23.77 17.88 23.62 17.98 23.46 18.04C19.97 19.38 14.06 19.36 14 19.36C13.93 19.36 8.02 19.38 4.53 18.04C4.37 17.98 4.22 17.88 4.11 17.75C4 17.62 3.91 17.47 3.87 17.3C3.61 16.3 3.3 14.45 3.3 11.33C3.3 8.21 3.61 6.37 3.87 5.37C3.91 5.2 4 5.05 4.11 4.92C4.22 4.79 4.37 4.69 4.53 4.62C8.02 3.28 13.93 3.3 14 3.3C14.06 3.3 19.97 3.28 23.46 4.62C23.62 4.69 23.77 4.79 23.88 4.92C23.99 5.05 24.08 5.2 24.12 5.37C24.38 6.37 24.69 8.21 24.69 11.33C24.69 14.45 24.38 16.3 24.12 17.3Z" fill="currentColor" fill-opacity="1.000000" fill-rule="nonzero"/>
</g>
</svg>
