<svg width="111.000000" height="14.000000" viewBox="0 0 111 14" fill="none" xmlns="http://www.w3.org/2000/svg" xmlns:xlink="http://www.w3.org/1999/xlink">
	<desc>
			Created with Pixso.
	</desc>
	<defs/>
	<path id="HTML Academy" d="M79.86 11.19L79.86 -0.6L78.43 -0.6L78.43 3.89C78.16 3.59 77.84 3.36 77.48 3.2C77.13 3.02 76.71 2.94 76.21 2.94C75.67 2.94 75.18 3.05 74.74 3.27C74.31 3.48 73.94 3.78 73.64 4.16C73.34 4.53 73.11 4.98 72.95 5.5C72.79 6.01 72.71 6.57 72.71 7.16Q72.71 8.17 72.93 8.95C73.07 9.46 73.28 9.9 73.55 10.24C73.81 10.59 74.14 10.85 74.51 11.04C74.89 11.21 75.31 11.3 75.78 11.3Q76.61 11.3 77.25 10.95Q77.28 10.93 77.31 10.92C77.76 10.66 78.15 10.32 78.5 9.91L78.63 10.89C78.68 11.09 78.81 11.19 79.01 11.19L79.86 11.19ZM8.75 11.19L8.75 -0.28L7.2 -0.28L7.2 4.84L1.01 4.84L1.01 -0.28L-0.54 -0.28L-0.54 11.19L1.01 11.19L1.01 5.97L7.2 5.97L7.2 11.19L8.75 11.19ZM15.72 1.03L19.43 1.03L19.43 -0.28L10.45 -0.28L10.45 1.03L14.17 1.03L14.17 11.19L15.72 11.19L15.72 1.03ZM33.06 11.19L33.06 -0.28L31.91 -0.28Q31.71 -0.28 31.59 -0.24C31.51 -0.21 31.44 -0.14 31.38 -0.01L27.49 7.04C27.42 7.16 27.36 7.3 27.3 7.44C27.24 7.58 27.18 7.72 27.13 7.87C27.08 7.72 27.02 7.58 26.95 7.44C26.9 7.3 26.83 7.17 26.77 7.04L22.81 -0.01C22.74 -0.14 22.67 -0.21 22.59 -0.24Q22.48 -0.28 22.27 -0.28L21.13 -0.28L21.13 11.19L22.49 11.19L22.49 2.76C22.49 2.52 22.47 2.26 22.44 1.98L26.46 9.18C26.58 9.42 26.77 9.54 27.02 9.54L27.24 9.54C27.49 9.54 27.68 9.42 27.8 9.18L31.74 2.01Q31.72 2.21 31.71 2.4Q31.7 2.6 31.7 2.76L31.7 11.19L33.06 11.19ZM42.49 11.19L42.49 9.88L37.53 9.88L37.53 -0.28L35.99 -0.28L35.99 11.19L42.49 11.19ZM55.41 11.19L56.61 11.19L52.02 -0.28L50.46 -0.28L45.87 11.19L47.07 11.19Q47.23 11.19 47.34 11.12Q47.38 11.1 47.41 11.08C47.5 11 47.56 10.92 47.59 10.82L48.66 8.05L53.81 8.05L54.88 10.82C54.92 10.93 54.99 11.01 55.07 11.08C55.16 11.15 55.27 11.19 55.41 11.19ZM51.58 2.27L53.38 6.93L49.1 6.93L50.9 2.28C51.01 1.99 51.13 1.63 51.24 1.2Q51.32 1.51 51.41 1.79C51.47 1.97 51.52 2.13 51.58 2.27ZM66.44 3.26C65.92 3.47 65.44 3.8 64.99 4.23L65.25 4.68C65.3 4.76 65.36 4.82 65.43 4.88C65.49 4.92 65.58 4.95 65.67 4.95C65.8 4.95 65.92 4.9 66.04 4.82C66.17 4.73 66.32 4.63 66.49 4.52C66.67 4.41 66.87 4.31 67.11 4.23C67.35 4.14 67.64 4.09 67.99 4.09C68.52 4.09 68.91 4.25 69.19 4.58Q69.59 5.06 69.59 6L69.59 6.64C68.67 6.66 67.89 6.74 67.26 6.89C66.62 7.04 66.11 7.22 65.71 7.45C65.32 7.68 65.03 7.94 64.86 8.24C64.68 8.54 64.59 8.84 64.59 9.16C64.59 9.53 64.65 9.85 64.77 10.12Q64.95 10.52 65.25 10.78Q65.25 10.78 65.26 10.79C65.47 10.96 65.71 11.1 65.99 11.19C66.26 11.27 66.56 11.32 66.87 11.32Q67.34 11.32 67.71 11.23C67.97 11.17 68.21 11.1 68.43 11C68.66 10.89 68.87 10.76 69.07 10.61C69.28 10.46 69.48 10.28 69.7 10.08L69.86 10.85C69.9 10.98 69.96 11.08 70.03 11.12C70.11 11.17 70.21 11.19 70.35 11.19L70.99 11.19L70.99 6C70.99 5.55 70.92 5.13 70.8 4.76C70.68 4.38 70.5 4.05 70.26 3.79C70.02 3.52 69.72 3.31 69.37 3.16C69.02 3.01 68.61 2.94 68.16 2.94Q67.22 2.94 66.44 3.26ZM63.07 4.66C63.12 4.63 63.16 4.58 63.2 4.52L63.58 4.01C63.24 3.68 62.85 3.42 62.42 3.24C61.98 3.05 61.48 2.96 60.91 2.96C60.3 2.96 59.76 3.06 59.28 3.27C58.81 3.48 58.41 3.77 58.09 4.14C57.77 4.51 57.52 4.95 57.35 5.46C57.19 5.97 57.1 6.53 57.1 7.13C57.1 7.79 57.2 8.38 57.38 8.9C57.56 9.42 57.81 9.85 58.13 10.21C58.45 10.56 58.82 10.83 59.26 11.02C59.69 11.21 60.17 11.3 60.67 11.3C60.97 11.3 61.25 11.28 61.54 11.23C61.82 11.18 62.09 11.1 62.34 11C62.61 10.9 62.85 10.77 63.07 10.61C63.3 10.46 63.5 10.27 63.67 10.05L63.27 9.53C63.21 9.44 63.12 9.39 63 9.39C62.9 9.39 62.81 9.44 62.7 9.52C62.61 9.6 62.49 9.69 62.34 9.8C62.19 9.9 62.01 9.99 61.78 10.08C61.56 10.16 61.28 10.2 60.93 10.2C60.57 10.2 60.24 10.13 59.94 10C59.66 9.86 59.41 9.66 59.2 9.4C59 9.14 58.84 8.82 58.73 8.44C58.62 8.06 58.56 7.62 58.56 7.13Q58.56 6.43 58.71 5.86C58.82 5.48 58.97 5.16 59.18 4.89C59.38 4.62 59.64 4.42 59.94 4.28C60.25 4.14 60.6 4.07 61 4.07C61.3 4.07 61.55 4.1 61.75 4.17C61.96 4.23 62.13 4.31 62.27 4.39C62.42 4.47 62.54 4.54 62.63 4.61C62.73 4.67 62.82 4.71 62.9 4.71C62.97 4.71 63.03 4.69 63.07 4.66ZM88.05 10.61C88.3 10.45 88.51 10.26 88.68 10.05L88.28 9.53C88.22 9.44 88.13 9.39 88.01 9.39C87.92 9.39 87.81 9.44 87.68 9.52C87.56 9.6 87.41 9.69 87.22 9.79C87.03 9.88 86.81 9.97 86.55 10.06C86.29 10.14 85.98 10.18 85.63 10.18C85.24 10.18 84.9 10.12 84.59 10C84.28 9.87 84.01 9.68 83.79 9.43C83.56 9.17 83.39 8.85 83.26 8.47C83.14 8.1 83.07 7.65 83.05 7.14L88.47 7.14Q88.64 7.14 88.72 7.05Q88.73 7.04 88.74 7.03C88.79 6.95 88.81 6.8 88.81 6.58C88.81 6 88.73 5.49 88.56 5.04C88.38 4.59 88.15 4.21 87.84 3.91C87.54 3.6 87.19 3.36 86.77 3.2C86.36 3.04 85.91 2.96 85.43 2.96Q84.55 2.96 83.84 3.27C83.37 3.47 82.98 3.75 82.65 4.12C82.33 4.47 82.08 4.9 81.9 5.39C81.73 5.88 81.64 6.41 81.64 6.97C81.64 7.67 81.74 8.29 81.93 8.83C82.12 9.37 82.39 9.82 82.73 10.19C83.08 10.55 83.49 10.83 83.96 11.02C84.43 11.21 84.95 11.3 85.51 11.3C85.8 11.3 86.1 11.27 86.4 11.22C86.69 11.17 86.98 11.1 87.26 11C87.54 10.89 87.81 10.77 88.05 10.61ZM90.56 3.08L90.56 11.19L91.99 11.19L91.99 5.15C92.24 4.82 92.52 4.57 92.82 4.38C93.12 4.19 93.44 4.09 93.79 4.09Q94.36 4.09 94.72 4.36Q94.84 4.45 94.94 4.57C95.2 4.89 95.33 5.38 95.33 6.03L95.33 11.19L96.76 11.19L96.76 6.03C96.76 5.71 96.81 5.43 96.9 5.19C96.99 4.94 97.12 4.74 97.28 4.58C97.44 4.42 97.62 4.3 97.83 4.22C98.05 4.13 98.27 4.09 98.5 4.09Q99.1 4.09 99.48 4.37Q99.6 4.47 99.7 4.59C99.98 4.91 100.12 5.39 100.12 6.03L100.12 11.19L101.55 11.19L101.55 6.03Q101.55 5.29 101.37 4.72C101.25 4.34 101.07 4.02 100.83 3.76C100.6 3.49 100.32 3.3 99.98 3.16C99.65 3.02 99.28 2.96 98.85 2.96C98.58 2.96 98.32 2.99 98.06 3.05C97.8 3.12 97.56 3.22 97.33 3.36C97.1 3.49 96.89 3.67 96.7 3.88C96.52 4.1 96.37 4.35 96.26 4.64C96.11 4.13 95.86 3.72 95.52 3.41C95.18 3.11 94.74 2.96 94.2 2.96Q93.59 2.96 93.09 3.2Q93 3.25 92.9 3.31C92.53 3.54 92.2 3.84 91.9 4.21L91.79 3.38C91.74 3.18 91.62 3.08 91.42 3.08L90.56 3.08ZM105.99 13.58L110.51 3.08L109.38 3.08C109.28 3.08 109.19 3.11 109.11 3.17C109.04 3.22 108.99 3.29 108.95 3.38L106.85 8.47C106.76 8.7 106.68 8.94 106.61 9.19C106.55 8.94 106.48 8.71 106.39 8.48L104.23 3.38C104.2 3.3 104.15 3.24 104.07 3.18C104 3.12 103.91 3.08 103.79 3.08L102.55 3.08L105.9 10.72L104.42 13.93L105.47 13.93C105.62 13.93 105.73 13.9 105.8 13.84C105.88 13.77 105.94 13.69 105.99 13.58ZM87.39 5.35C87.48 5.62 87.53 5.92 87.53 6.25L83.1 6.25C83.2 5.55 83.44 5 83.84 4.6C84.24 4.2 84.78 4 85.46 4Q85.95 4 86.33 4.17C86.59 4.28 86.8 4.43 86.98 4.64C87.16 4.83 87.3 5.07 87.39 5.35ZM77.57 4.27C77.88 4.41 78.17 4.65 78.43 5.01L78.43 8.92C78.14 9.31 77.82 9.61 77.47 9.83C77.12 10.04 76.71 10.15 76.24 10.15C75.92 10.15 75.63 10.09 75.37 9.98C75.11 9.87 74.9 9.69 74.72 9.45C74.55 9.21 74.41 8.9 74.32 8.52C74.23 8.14 74.19 7.69 74.19 7.16C74.19 6.17 74.39 5.4 74.79 4.86Q75.02 4.56 75.31 4.38Q75.81 4.05 76.53 4.05C76.91 4.05 77.26 4.12 77.57 4.27ZM67.91 7.7C68.38 7.61 68.94 7.56 69.59 7.54L69.59 9.22C69.43 9.39 69.27 9.54 69.1 9.68C68.93 9.81 68.76 9.92 68.57 10.02C68.39 10.12 68.19 10.19 67.99 10.24C67.78 10.29 67.55 10.32 67.3 10.32C67.11 10.32 66.93 10.29 66.77 10.25C66.61 10.2 66.47 10.13 66.35 10.04C66.23 9.93 66.13 9.81 66.07 9.65C66 9.5 65.96 9.31 65.96 9.1C65.96 8.88 66.03 8.67 66.15 8.49C66.29 8.31 66.5 8.15 66.79 8.02Q67.23 7.82 67.91 7.7Z" fill="#444444" fill-opacity="1.000000" fill-rule="evenodd"/>
</svg>
