<svg width="60.000000" height="60.000000" viewBox="0 0 60 60" fill="none" xmlns="http://www.w3.org/2000/svg" xmlns:xlink="http://www.w3.org/1999/xlink">
	<desc>
			Created with Pixso.
	</desc>
	<defs/>
	<rect id="green back_3" width="60.000000" height="60.000000" fill="#68B738" fill-opacity="1.000000"/>
	<rect id="icon_eat" width="25.000000" height="30.000000" transform="translate(17.500000 15.000000)" fill="#FFFFFF" fill-opacity="0"/>
	<path id="Knife" d="M36.11 15.07C36.49 14.92 36.92 15 37.2 15.29C38.11 16.2 39.3 18.17 40.26 21.21C41.23 24.28 42 28.5 42 34C42 34.55 41.55 35 41 35L37.5 35L37.5 44C37.5 44.55 37.05 45 36.5 45C35.94 45 35.5 44.55 35.5 44L35.5 16C35.5 15.59 35.74 15.23 36.11 15.07ZM37.5 33L39.99 33C39.9 28.18 39.2 24.48 38.35 21.81C38.08 20.93 37.78 20.17 37.5 19.51L37.5 33Z" fill="#FFFFFF" fill-opacity="1.000000" fill-rule="evenodd"/>
	<path id="Fork" d="M19 15C19.55 15 20 15.44 20 16L20 21.5C20 22.05 20.19 22.81 20.7 23.41C21.05 23.84 21.61 24.23 22.5 24.4L22.5 16C22.5 15.44 22.94 15 23.5 15C24.05 15 24.5 15.44 24.5 16L24.5 24.4C25.38 24.23 25.94 23.84 26.29 23.41C26.8 22.81 27 22.05 27 21.5L27 16C27 15.44 27.44 15 28 15C28.55 15 29 15.44 29 16L29 21.5C29 22.44 28.69 23.68 27.82 24.7C27.08 25.58 25.99 26.23 24.5 26.43L24.5 44C24.5 44.55 24.05 45 23.5 45C22.94 45 22.5 44.55 22.5 44L22.5 26.43C21 26.23 19.91 25.58 19.17 24.7C18.3 23.68 18 22.44 18 21.5L18 16C18 15.44 18.44 15 19 15Z" fill="#FFFFFF" fill-opacity="1.000000" fill-rule="evenodd"/>
</svg>
