<svg width="60.000000" height="60.000000" viewBox="0 0 60 60" fill="none" xmlns="http://www.w3.org/2000/svg" xmlns:xlink="http://www.w3.org/1999/xlink">
	<desc>
			Created with Pixso.
	</desc>
	<defs/>
	<rect id="green back_4" width="60.000000" height="60.000000" fill="#68B738" fill-opacity="1.000000"/>
	<path id="Vector" d="M23.12 15C22.05 15 22.05 16.58 23.12 16.58L29.78 16.58L29.78 18.18C22.96 18.62 17.56 24.41 17.56 31.48C17.56 35.49 19.31 39.11 22.07 41.55C22.55 41.97 22.61 42.72 22.18 43.18L20.64 44.74C19.89 45.42 21 46.49 21.68 45.74L23.68 43.7C24.03 43.36 24.56 43.28 24.99 43.49C26.72 44.33 28.61 44.78 30.54 44.79C32.46 44.8 34.36 44.38 36.1 43.55C36.52 43.34 37.06 43.43 37.4 43.77L39.34 45.74C40.02 46.37 41.01 45.42 40.39 44.74L38.94 43.26C38.49 42.8 38.55 42.06 39.04 41.62C40.5 40.35 41.66 38.79 42.46 37.04C43.25 35.29 43.66 33.39 43.65 31.47C43.65 24.4 38.22 18.59 31.38 18.18L31.38 16.58L38.05 16.58C39.12 16.58 39.12 15 38.05 15L23.12 15ZM19 31.47C19 24.94 24.19 19.65 30.6 19.65C37 19.65 42.2 24.94 42.2 31.47C42.2 38.01 37 43.31 30.6 43.31C24.2 43.31 19 38.01 19 31.47ZM29.79 23.37C29.79 22.28 31.46 22.28 31.46 23.37L31.46 32.01C31.46 32.23 31.37 32.45 31.21 32.61C31.05 32.76 30.83 32.85 30.6 32.85C30.39 32.85 30.19 32.77 30.03 32.62C29.88 32.47 29.8 32.27 29.79 32.06L29.79 23.37ZM24.8 25.99C25.11 25.99 25.41 25.87 25.62 25.66C25.84 25.44 25.96 25.15 25.96 24.84C25.96 24.54 25.84 24.24 25.62 24.03C25.41 23.81 25.11 23.69 24.8 23.69C24.51 23.72 24.25 23.85 24.05 24.06C23.86 24.27 23.75 24.55 23.75 24.84C23.75 25.12 23.86 25.4 24.05 25.61C24.25 25.82 24.51 25.95 24.8 25.98L24.8 25.99ZM36.4 25.99C36.71 25.99 37 25.87 37.22 25.66C37.44 25.44 37.56 25.15 37.56 24.84C37.56 24.54 37.44 24.24 37.22 24.03C37 23.81 36.71 23.69 36.4 23.69C36.11 23.72 35.84 23.85 35.65 24.06C35.45 24.27 35.35 24.55 35.35 24.84C35.35 25.12 35.45 25.4 35.65 25.61C35.84 25.82 36.11 25.95 36.4 25.98L36.4 25.99ZM25.96 38.58C25.96 40.11 23.64 40.11 23.64 38.58C23.64 37.05 25.96 37.05 25.96 38.58ZM30.6 42.02C30.77 42.04 30.93 42.02 31.08 41.97C31.24 41.92 31.38 41.84 31.5 41.73C31.62 41.62 31.71 41.49 31.78 41.34C31.84 41.2 31.88 41.04 31.88 40.88C31.88 40.72 31.84 40.56 31.78 40.41C31.71 40.27 31.62 40.14 31.5 40.03C31.38 39.92 31.24 39.84 31.08 39.79C30.93 39.74 30.77 39.72 30.6 39.73C30.32 39.76 30.05 39.89 29.85 40.11C29.66 40.32 29.55 40.59 29.55 40.88C29.55 41.16 29.66 41.44 29.85 41.65C30.05 41.86 30.32 42 30.6 42.02ZM22.49 31.64C22.5 31.8 22.48 31.96 22.43 32.11C22.38 32.26 22.3 32.4 22.19 32.52C22.08 32.64 21.95 32.74 21.8 32.8C21.65 32.87 21.49 32.9 21.33 32.9C21.17 32.9 21.01 32.87 20.86 32.8C20.71 32.74 20.58 32.64 20.47 32.52C20.36 32.4 20.28 32.26 20.23 32.11C20.17 31.96 20.16 31.8 20.17 31.64C20.2 31.35 20.33 31.09 20.55 30.9C20.76 30.71 21.04 30.6 21.33 30.6C21.62 30.6 21.9 30.71 22.11 30.9C22.32 31.09 22.46 31.35 22.49 31.64ZM39.87 32.79C40.04 32.8 40.2 32.79 40.35 32.74C40.51 32.69 40.65 32.6 40.77 32.5C40.89 32.39 40.98 32.26 41.05 32.11C41.11 31.96 41.15 31.8 41.15 31.64C41.15 31.48 41.11 31.33 41.05 31.18C40.98 31.03 40.89 30.9 40.77 30.79C40.65 30.68 40.51 30.6 40.35 30.55C40.2 30.5 40.04 30.48 39.87 30.5C39.59 30.53 39.32 30.66 39.13 30.87C38.93 31.08 38.82 31.36 38.82 31.64C38.82 31.93 38.93 32.21 39.13 32.42C39.32 32.63 39.59 32.76 39.87 32.79ZM37.56 38.59C37.56 40.11 35.23 40.11 35.23 38.58C35.23 37.05 37.56 37.05 37.56 38.58L37.56 38.59Z" fill="#FFFFFF" fill-opacity="1.000000" fill-rule="nonzero"/>
</svg>
