<svg width="60.000000" height="60.000000" viewBox="0 0 60 60" fill="none" xmlns="http://www.w3.org/2000/svg" xmlns:xlink="http://www.w3.org/1999/xlink">
<defs/>
<rect id="green back_2" width="60.000000" height="60.000000" fill="#68B738" fill-opacity="1.000000"/>
<path id="Vector" d="M28.37 16C26.74 16 25.47 17.35 25.47 19.08C25.47 20.8 26.74 22.16 28.37 22.16C30 22.16 31.27 20.8 31.27 19.08C31.27 17.35 30 16 28.37 16ZM28.37 17.17C29.37 17.17 30.09 18.02 30.09 19.08C30.09 20.07 29.3 20.98 28.37 20.98C27.37 20.98 26.65 20.14 26.65 19.08C26.65 18.08 27.43 17.17 28.37 17.17ZM17.5 40.74C17.5 41.91 17.9 42.91 18.85 43.73C19.85 44.58 21.03 44.51 21.03 44.51L40.06 44.51C40.84 44.51 41.87 44.13 42.69 43.06C43.53 42.06 43.48 40.7 43.48 40.7L43.48 23.48C43.48 23.05 43.37 22.88 42.73 22.88C42.1 22.88 42.05 23.15 42.05 23.47L42.05 40.69C42.03 40.99 41.97 41.78 41.3 42.41C40.57 43.04 39.85 42.96 39.85 42.96C39.85 42.96 21.73 42.96 20.82 42.93C20.48 42.87 19.91 42.74 19.37 42.02C18.86 41.3 18.96 40.39 18.96 40.39L18.96 23.17C18.96 22.71 18.73 22.54 18.24 22.54C17.75 22.54 17.5 22.71 17.5 23.12L17.5 40.74ZM33.81 24.42C32.72 24.66 31.63 24.8 29.55 26.78C27.46 28.77 25.92 28.68 24.38 28.59C22.84 28.5 21.21 27.05 20.94 26.69C20.6 26.34 20.03 26.57 19.85 26.81C19.7 27.04 19.7 27.45 19.96 27.8C21.23 28.98 22.41 29.89 24.67 30.07C26.94 30.29 29.11 29.26 30.56 27.8C32.01 26.35 32.74 26.08 33.83 25.9C36.45 25.48 37.99 26.52 38.9 27.17C39.9 28.26 40.17 27.95 40.44 27.64C40.99 26.92 40.21 26.37 39.35 25.74C37.54 24.56 35.82 24.11 33.83 24.47L33.81 24.42ZM24.75 31.58C23.57 31.58 22.66 32.58 22.66 33.85C22.66 35.12 23.57 36.11 24.75 36.11C25.92 36.11 26.83 35.12 26.83 33.85C26.83 32.58 25.92 31.58 24.75 31.58ZM36.53 32.36C34.99 32.36 33.72 33.72 33.72 35.35C33.72 36.98 34.99 38.34 36.53 38.34C38.07 38.34 39.34 36.98 39.34 35.35C39.34 33.72 38.07 32.36 36.53 32.36ZM36.53 33.81C37.32 33.81 37.98 34.51 37.98 35.35C37.98 36.21 37.32 36.89 36.53 36.89C35.73 36.89 35.08 36.2 35.08 35.35C35.08 34.49 35.73 33.81 36.53 33.81Z" fill="#FFFFFF" fill-opacity="1.000000" fill-rule="nonzero"/>
</svg>
