<svg width="60.000000" height="60.000000" viewBox="0 0 60 60" fill="none" xmlns="http://www.w3.org/2000/svg" xmlns:xlink="http://www.w3.org/1999/xlink">
<defs>
<clipPath id="clip130_911">
<rect id="icon_leaf" width="30.000000" height="32.000000" transform="translate(15.000000 14.000000)" fill="white" fill-opacity="0"/>
</clipPath>
</defs>
<rect id="green back_1" width="60.000000" height="60.000000" fill="#68B738" fill-opacity="1.000000"/>
<rect id="icon_leaf" width="30.000000" height="32.000000" transform="translate(15.000000 14.000000)" fill="#FFFFFF" fill-opacity="0"/>
<g clip-path="url(#clip130_911)">
<path id="Vector" d="M623.43 151.99L647.81 151.99L647.81 169.99L634.68 " stroke="#FFFFFF" stroke-opacity="1.000000" stroke-width="2.000000" stroke-linejoin="round" stroke-linecap="round"/>
<path id="Vector" d="M627.18 169.99L623.43 169.99L623.43 " stroke="#FFFFFF" stroke-opacity="1.000000" stroke-width="2.000000" stroke-linejoin="round" stroke-linecap="round"/>
<path id="Vector" d="M634.68 170L627.18 176L627.18 " stroke="#FFFFFF" stroke-opacity="1.000000" stroke-width="2.000000" stroke-linejoin="round" stroke-linecap="round"/>
<path id="Vector" d="M42.84 16.76C42.74 16.31 42.36 16 41.93 16C41.93 16 41.92 16 41.92 16C36.98 16.03 24.98 16.91 20.13 24.38C17.61 28.25 17.39 33.29 19.48 39.34C19.5 39.39 19.53 39.42 19.56 39.46C18.81 41.43 18.52 42.75 18.51 42.79C18.4 43.33 18.73 43.86 19.23 43.97C19.3 43.99 19.36 44 19.43 44C19.86 44 20.25 43.67 20.34 43.21C20.36 43.1 22.75 32.83 31.2 26.83C31.63 26.52 31.75 25.9 31.46 25.44C31.17 24.98 30.59 24.86 30.16 25.16C25.37 28.57 22.42 33.17 20.68 36.82C19.44 32.24 19.77 28.44 21.67 25.51C25.41 19.75 34.29 18.36 39.65 18.07C38.5 19.87 37.24 23.17 37.24 29C37.24 32.12 36.41 34.52 34.78 36.14C32.15 38.73 27.9 38.97 24.78 38.72C24.26 38.67 23.82 39.09 23.78 39.64C23.74 40.19 24.12 40.67 24.64 40.71C25.26 40.76 25.93 40.8 26.62 40.8C29.79 40.8 33.49 40.13 36.05 37.6C38.08 35.59 39.12 32.7 39.12 29C39.12 19.9 42.33 17.9 42.35 17.89C42.74 17.68 42.94 17.21 42.84 16.76Z" fill="#FFFFFF" fill-opacity="1.000000" fill-rule="nonzero"/>
</g>
</svg>
