<svg width="67.000000" height="50.000000" viewBox="0 0 67 50" fill="none" xmlns="http://www.w3.org/2000/svg" xmlns:xlink="http://www.w3.org/1999/xlink">
	<desc>
			Created with Pixso.
	</desc>
	<defs>
		<clipPath id="clip135_3258">
			<rect id="cat-pro" width="67.000000" height="28.000000" transform="translate(0.000000 11.000000)" fill="white" fill-opacity="0"/>
		</clipPath>
	</defs>
	<circle id="Ellipse 2" cx="33.000000" cy="25.000000" r="25.000000" fill="#68B738" fill-opacity="1.000000"/>
	<rect id="cat-pro" width="67.000000" height="28.000000" transform="translate(0.000000 11.000000)" fill="#FFFFFF" fill-opacity="0"/>
	<g clip-path="url(#clip135_3258)">
		<path id="Vector" d="M60.55 13.87C61.13 12.96 61.9 12.17 62.8 11.57C63.3 11.22 63.6 11.22 63.9 11.87C64.3 12.82 64.65 13.82 64.35 14.87C64.3 15.05 64.29 15.24 64.32 15.42C64.36 15.61 64.44 15.78 64.55 15.92C64.85 16.32 65.1 16.72 65.35 17.07C65.69 17.51 65.92 18.02 65.99 18.56C66.07 19.11 66.01 19.66 65.8 20.17C65.62 20.67 65.59 21.21 65.7 21.72C65.8 22.22 65.8 22.73 65.7 23.22C65.66 23.59 65.51 23.94 65.27 24.23C65.03 24.51 64.71 24.72 64.35 24.82C63.71 24.95 63.14 25.3 62.75 25.82C62.71 25.9 62.64 25.96 62.56 26.01C62.48 26.05 62.39 26.07 62.3 26.07C61.7 26.17 60.2 24.82 60.2 24.22L60.2 23.92C60.25 22.12 60.15 21.97 58.5 21.22C58.16 21.1 57.85 20.9 57.6 20.62C57.3 20.22 56.9 20.27 56.45 20.42C56 20.57 55.75 20.87 55.8 21.37C55.95 22.58 56.01 23.8 55.95 25.02C55.96 25.16 55.99 25.3 56.05 25.42C57.6 27.67 58.2 30.32 58.95 32.87C59.55 34.82 60.65 35.87 62.65 36.02C62.97 36.05 63.29 36.1 63.6 36.17C64.01 36.24 64.4 36.43 64.7 36.71C65 37 65.21 37.37 65.3 37.77C65.65 38.82 65.45 39.07 64.4 39.07L61.15 39.07C60.73 39.09 60.32 38.95 60 38.67C59.5 38.25 58.92 37.91 58.3 37.67C57.62 37.42 57.03 36.97 56.6 36.37C56.02 35.56 55.35 34.8 54.6 34.12C53.2 32.67 51.7 31.27 50.4 29.77C49.41 28.75 48.84 27.4 48.8 25.97C48.8 25.52 48.7 25.32 48.2 25.52C48.05 25.62 47.88 25.67 47.7 25.67C46.3 25.67 45.6 26.52 45.1 27.77C44.65 28.82 44.05 29.82 43.5 30.87C43.19 31.53 43.02 32.25 43 32.97C43 34.17 43.3 34.57 44.4 34.97C45.1 35.22 45.75 35.47 46.1 36.17C46.5 36.97 46.4 37.17 45.55 37.22L42.15 37.22C41.96 37.24 41.76 37.2 41.59 37.1C41.42 37 41.28 36.85 41.2 36.67L40.3 35.17C40.04 34.78 39.87 34.33 39.81 33.87C39.75 33.4 39.8 32.92 39.95 32.47C40.17 31.61 40.19 30.7 40 29.82C39.88 29.21 39.89 28.58 40.04 27.98C40.18 27.37 40.46 26.81 40.85 26.32C41.15 25.97 41.15 25.82 40.65 25.72C38.61 25.29 36.63 24.6 34.75 23.67C34.74 23.67 34.73 23.67 34.72 23.66C34.71 23.65 34.7 23.64 34.7 23.62C33.1 23.02 32.8 23.12 32.35 24.77C31.95 26.17 31.55 27.57 31.25 29.02C30.9 30.62 31.3 32.12 31.8 33.62C32 34.22 32.6 34.17 33.05 34.32C34.05 34.62 34.9 35.02 35.3 36.07C35.65 36.87 35.6 36.97 34.75 36.97C33.9 36.97 33.05 36.92 32.15 36.97C31.39 36.99 30.65 36.74 30.05 36.27C27.65 34.67 26.95 32.22 26.75 29.57C26.65 27.92 25.75 26.62 24.7 25.37C24.5 25.12 24.3 25.02 24 25.22C22.93 25.82 21.81 26.32 20.65 26.72C18.24 27.58 16.12 29.1 14.55 31.12C13.97 31.86 13.59 32.74 13.45 33.67C13.3 34.57 13.55 34.97 14.45 35.22C15.35 35.47 15.8 35.97 15.9 36.92C15.95 37.32 15.8 37.52 15.4 37.52L11.35 37.52C11.22 37.51 11.09 37.47 10.98 37.4C10.87 37.33 10.77 37.24 10.7 37.12C10.08 36.35 9.74 35.37 9.75 34.37C9.73 32.65 9.88 30.92 10.2 29.22C10.27 28.72 10.46 28.23 10.76 27.81C11.05 27.39 11.45 27.06 11.9 26.82C14.85 25.42 16.4 22.77 17.8 20.02C18.1 19.47 17.85 19.37 17.35 19.42C15.95 19.62 14.63 20.17 13.5 21.02C12.03 22.1 10.64 23.28 9.35 24.57C7.98 25.97 6.16 26.84 4.2 27.02C0.55 27.22 -1.15 25.17 -1 21.87C-0.96 20.75 -0.54 19.67 0.2 18.82C0.46 18.49 0.81 18.24 1.21 18.11C1.62 17.97 2.05 17.96 2.45 18.07C3.2 18.27 3.4 18.67 3.1 19.42C2.95 19.72 2.75 19.97 2.6 20.27C2.39 20.58 2.22 20.92 2.1 21.27C1.55 22.77 2.3 23.82 3.85 23.97C5.5 24.12 6.85 23.42 8.1 22.42C9.61 21.22 10.95 19.82 12.1 18.27C12.96 17.14 14.05 16.2 15.28 15.5C16.52 14.81 17.89 14.37 19.3 14.22C20.45 14.07 21.45 13.57 22.55 13.27C24.61 12.65 26.75 12.34 28.9 12.37C29.9 12.41 30.89 12.23 31.8 11.82C34.25 10.82 36.8 10.82 39.35 11.32C41.35 11.72 43.35 12.22 45.3 12.72C46.46 12.94 47.66 12.91 48.8 12.62C51 12.07 53.24 11.73 55.5 11.62C56.99 11.55 58.46 11.84 59.8 12.47C60.8 12.92 60.8 12.92 60.55 13.87Z" fill="#000000" fill-opacity="1.000000" fill-rule="nonzero"/>
	</g>
</svg>
