<svg width="50.000000" height="53.000000" viewBox="0 0 50 53" fill="none" xmlns="http://www.w3.org/2000/svg" xmlns:xlink="http://www.w3.org/1999/xlink">
<defs>
<clipPath id="clip135_3256">
<rect id="cat-slim" width="36.000000" height="50.000000" transform="translate(7.000000 0.000000)" fill="white" fill-opacity="0"/>
</clipPath>
</defs>
<circle id="Ellipse 1" cx="25.000000" cy="28.000000" r="25.000000" fill="#68B738" fill-opacity="1.000000"/>
<rect id="cat-slim" width="36.000000" height="50.000000" transform="translate(7.000000 0.000000)" fill="#FFFFFF" fill-opacity="0"/>
<g clip-path="url(#clip135_3256)">
<path id="Vector" d="M35.2 0L35 0C34.67 0.18 34.41 0.47 34.25 0.81C33.96 1.37 33.74 1.96 33.59 2.57C33.56 2.76 33.46 2.92 33.33 3.05C33.19 3.17 33.01 3.25 32.83 3.26C32.26 3.36 31.72 3.59 31.26 3.93C30.79 4.26 30.41 4.7 30.14 5.21C29.77 5.87 29.45 6.56 29.19 7.27C28.46 9.17 27.9 11.13 27.21 13.04C26.88 13.91 26.87 13.91 25.89 13.91C24.72 13.91 24.8 13.73 24.79 15.02C24.79 15.43 24.91 15.63 25.34 15.61C25.48 15.61 25.68 15.55 25.73 15.72C25.78 15.9 25.61 15.97 25.5 16.08C24.89 16.7 24.12 17.13 23.28 17.34C22.3 17.6 21.3 17.8 20.35 18.12C17.91 18.94 15.65 20.09 13.89 22.03C12.86 23.23 12.04 24.6 11.45 26.07C9.57 30.52 8.65 35.21 7.94 39.95C7.61 42.17 7.37 44.4 7.19 46.65C7.1 47.75 7 48.87 7 50L24.14 50C24.16 49.77 24.12 49.54 24.02 49.34C23.85 48.92 23.59 48.56 23.24 48.29C22.9 48.01 22.48 47.82 22.05 47.75C21.69 47.67 21.65 47.56 21.87 47.28C22.23 46.8 22.51 46.26 22.69 45.68C23.52 43.2 23.85 40.61 24.25 38.05C24.48 36.09 25.08 34.2 26.02 32.47C26.76 31.2 27.73 30.08 28.9 29.19C29.33 28.86 29.34 28.86 29.41 29.41C29.46 29.78 29.47 30.15 29.5 30.53C29.65 32.96 29.62 35.4 29.41 37.84C29.21 39.72 29.19 41.62 29.33 43.51C29.53 45.7 29.93 47.87 30.5 50L37.34 50C37.25 49.44 36.99 48.92 36.6 48.51C36.21 48.1 35.71 47.82 35.16 47.71C34.51 47.6 33.85 47.64 33.22 47.81C32.91 47.88 32.79 47.81 32.76 47.47C32.55 44.75 32.72 42 33.28 39.32C33.96 36.23 34.49 33.1 34.85 29.95C34.98 28.68 35.38 27.45 36.02 26.34C36.63 25.25 37.17 24.11 37.77 23.02C38.01 22.62 38.15 22.17 38.19 21.7C38.23 21.24 38.16 20.77 37.99 20.34C37.85 19.97 37.71 19.6 37.54 19.25C37.03 18.25 36.52 17.25 36.04 16.24C35.79 15.72 35.85 15.66 36.41 15.64C37.25 15.64 37.25 15.64 37.26 14.8C37.26 14.69 37.26 14.57 37.26 14.46C37.26 14.1 37.13 13.91 36.75 13.94C36.49 13.94 36.23 13.94 35.96 13.94C35.61 13.94 35.51 13.79 35.59 13.43C35.77 12.83 36.11 12.3 36.58 11.9C37.05 11.49 37.62 11.23 38.23 11.14C39.37 11.05 40.52 11.12 41.64 11.37C41.77 11.41 41.91 11.4 42.03 11.33C42.15 11.27 42.24 11.16 42.28 11.04C42.49 10.52 42.71 10.01 42.94 9.49C43 9.4 43.02 9.29 43.01 9.19C43 9.08 42.96 8.98 42.89 8.9C41.25 6.81 39.46 4.86 37.03 3.6C36.91 3.55 36.81 3.47 36.73 3.37C36.65 3.27 36.6 3.15 36.58 3.03C36.44 2.29 36.22 1.57 35.92 0.88C35.78 0.51 35.53 0.2 35.2 0L35.2 0Z" fill="#000000" fill-opacity="1.000000" fill-rule="nonzero"/>
</g>
</svg>
