<svg width="100.000000" height="106.000000" viewBox="0 0 100 106" fill="none" xmlns="http://www.w3.org/2000/svg" xmlns:xlink="http://www.w3.org/1999/xlink">
<defs>
<clipPath id="clip94552_4002">
<rect id="cat-slim" width="70.000000" height="97.000000" transform="translate(15.000000 0.000000)" fill="white" fill-opacity="0"/>
</clipPath>
</defs>
<circle id="Ellipse 1" cx="50.000000" cy="56.000000" r="50.000000" fill="#68B738" fill-opacity="1.000000"/>
<rect id="cat-slim" width="70.000000" height="97.000000" transform="translate(15.000000 0.000000)" fill="#FFFFFF" fill-opacity="0"/>
<g clip-path="url(#clip94552_4002)">
<path id="Vector" d="M69.83 0L69.46 0C68.81 0.36 68.3 0.91 68 1.59C67.43 2.67 67 3.81 66.71 5C66.64 5.35 66.46 5.68 66.19 5.92C65.93 6.16 65.59 6.31 65.23 6.34C64.12 6.52 63.08 6.96 62.17 7.62C61.27 8.27 60.52 9.13 60 10.12C59.27 11.4 58.65 12.73 58.15 14.12C56.73 17.79 55.64 21.6 54.3 25.31C53.67 27 53.64 27 51.74 27C49.47 27 49.63 26.65 49.6 29.15C49.6 29.94 49.84 30.34 50.68 30.3C50.93 30.3 51.33 30.17 51.43 30.51C51.53 30.85 51.18 31 50.99 31.2C49.8 32.4 48.3 33.24 46.66 33.64C44.76 34.15 42.81 34.55 40.97 35.16C36.22 36.75 31.83 38.98 28.41 42.74C26.41 45.07 24.8 47.72 23.67 50.58C20 59.22 18.21 68.32 16.84 77.51C16.18 81.82 15.73 86.15 15.38 90.51C15.2 92.65 15 94.82 15 97L48.33 97C48.38 96.55 48.3 96.11 48.1 95.72C47.77 94.92 47.25 94.22 46.58 93.68C45.91 93.14 45.11 92.78 44.27 92.65C43.56 92.49 43.49 92.28 43.92 91.73C44.62 90.79 45.15 89.74 45.51 88.63C47.14 83.82 47.77 78.8 48.56 73.83C49 70.03 50.17 66.35 52 63C53.42 60.52 55.32 58.36 57.59 56.63C58.42 56 58.45 56 58.59 57.07C58.68 57.78 58.71 58.51 58.76 59.23C59.06 63.95 58.99 68.69 58.58 73.41C58.2 77.06 58.15 80.74 58.43 84.41C58.82 88.66 59.58 92.87 60.7 97L74 97C73.82 95.91 73.32 94.91 72.57 94.12C71.81 93.32 70.83 92.78 69.76 92.56C68.5 92.36 67.22 92.42 66 92.76C65.4 92.9 65.15 92.76 65.1 92.11C64.68 86.81 65.02 81.48 66.1 76.29C67.43 70.28 68.45 64.21 69.16 58.11C69.42 55.64 70.19 53.25 71.43 51.11C72.62 48.99 73.67 46.79 74.83 44.66C75.3 43.88 75.58 43.01 75.65 42.11C75.72 41.21 75.59 40.3 75.26 39.47C74.99 38.75 74.73 38.04 74.4 37.36C73.4 35.41 72.4 33.48 71.48 31.51C70.99 30.51 71.1 30.39 72.18 30.36C73.81 30.36 73.81 30.36 73.85 28.72C73.85 28.5 73.85 28.28 73.85 28.06C73.85 27.37 73.58 26.99 72.85 27.06C72.35 27.06 71.85 27.06 71.33 27.06C70.64 27.06 70.43 26.77 70.61 26.06C70.94 24.9 71.61 23.87 72.52 23.08C73.43 22.3 74.54 21.79 75.74 21.63C77.95 21.43 80.18 21.58 82.36 22.06C82.61 22.13 82.88 22.11 83.11 21.99C83.35 21.87 83.52 21.66 83.61 21.42C84.01 20.42 84.45 19.42 84.9 18.42C85 18.24 85.04 18.03 85.02 17.83C85.01 17.63 84.93 17.43 84.8 17.28C81.6 13.22 78.12 9.42 73.4 7C73.17 6.9 72.97 6.74 72.81 6.55C72.66 6.35 72.56 6.12 72.51 5.88C72.25 4.45 71.82 3.05 71.25 1.71C70.97 1 70.48 0.4 69.83 0L69.83 0Z" fill="#000000" fill-opacity="1.000000" fill-rule="nonzero"/>
</g>
</svg>
