<svg width="134.000000" height="100.000000" viewBox="0 0 134 100" fill="none" xmlns="http://www.w3.org/2000/svg" xmlns:xlink="http://www.w3.org/1999/xlink">
<defs>
<clipPath id="clip94552_4021">
<rect id="cat-pro" width="134.000000" height="56.000000" transform="translate(0.000000 20.000000)" fill="white" fill-opacity="0"/>
</clipPath>
</defs>
<circle id="Ellipse 2" cx="69.000000" cy="50.000000" r="50.000000" fill="#68B738" fill-opacity="1.000000"/>
<rect id="cat-pro" width="134.000000" height="56.000000" transform="translate(0.000000 20.000000)" fill="#FFFFFF" fill-opacity="0"/>
<g clip-path="url(#clip94552_4021)">
<path id="Vector" d="M123.11 25.75C124.27 23.91 125.8 22.35 127.61 21.15C128.61 20.45 129.21 20.45 129.81 21.75C130.61 23.65 131.31 25.65 130.71 27.75C130.6 28.11 130.58 28.49 130.65 28.85C130.72 29.22 130.88 29.56 131.11 29.85C131.71 30.65 132.21 31.45 132.71 32.15C133.39 33.02 133.84 34.04 133.99 35.13C134.15 36.22 134.02 37.33 133.61 38.35C133.25 39.34 133.18 40.42 133.41 41.45C133.61 42.44 133.61 43.46 133.41 44.45C133.33 45.19 133.03 45.89 132.55 46.46C132.07 47.03 131.43 47.45 130.71 47.65C129.43 47.9 128.29 48.61 127.51 49.65C127.42 49.81 127.29 49.93 127.13 50.02C126.97 50.11 126.79 50.15 126.61 50.15C125.41 50.35 122.41 47.65 122.41 46.45L122.41 45.85C122.51 42.25 122.31 41.95 119.01 40.45C118.32 40.21 117.7 39.8 117.21 39.25C116.61 38.45 115.81 38.55 114.91 38.85C114.01 39.15 113.51 39.75 113.61 40.75C113.92 43.17 114.02 45.61 113.91 48.05C113.92 48.33 113.99 48.6 114.11 48.85C117.21 53.35 118.41 58.65 119.91 63.75C121.11 67.65 123.31 69.75 127.31 70.05C127.95 70.1 128.59 70.2 129.21 70.35C130.03 70.48 130.8 70.86 131.4 71.43C132.01 72 132.43 72.74 132.61 73.55C133.31 75.65 132.91 76.15 130.81 76.15L124.31 76.15C123.47 76.19 122.65 75.91 122.01 75.35C121 74.5 119.85 73.82 118.61 73.35C117.24 72.85 116.06 71.94 115.21 70.75C114.04 69.12 112.7 67.61 111.21 66.25C108.41 63.35 105.41 60.55 102.81 57.55C100.83 55.51 99.69 52.8 99.61 49.95C99.61 49.05 99.41 48.65 98.41 49.05C98.11 49.24 97.77 49.35 97.41 49.35C94.61 49.35 93.21 51.05 92.21 53.55C91.31 55.65 90.11 57.65 89.01 59.75C88.39 61.07 88.05 62.5 88.01 63.95C88.01 66.35 88.61 67.15 90.81 67.95C92.21 68.45 93.51 68.95 94.21 70.35C95.01 71.95 94.81 72.35 93.11 72.45L86.31 72.45C85.92 72.49 85.53 72.41 85.19 72.21C84.85 72.01 84.57 71.71 84.41 71.35L82.61 68.35C82.08 67.57 81.74 66.67 81.62 65.74C81.5 64.8 81.6 63.84 81.91 62.95C82.35 61.22 82.38 59.4 82.01 57.65C81.76 56.43 81.78 55.17 82.08 53.96C82.37 52.75 82.93 51.62 83.71 50.65C84.31 49.95 84.31 49.65 83.31 49.45C79.22 48.58 75.26 47.21 71.51 45.35C71.49 45.35 71.46 45.34 71.44 45.32C71.42 45.3 71.41 45.28 71.41 45.25C68.21 44.05 67.61 44.25 66.71 47.55C65.91 50.35 65.11 53.15 64.51 56.05C63.81 59.25 64.61 62.25 65.61 65.25C66.01 66.45 67.21 66.35 68.11 66.65C70.11 67.25 71.81 68.05 72.61 70.15C73.31 71.75 73.21 71.95 71.51 71.95C69.81 71.95 68.11 71.85 66.31 71.95C64.79 71.98 63.31 71.49 62.11 70.55C57.31 67.35 55.91 62.45 55.51 57.15C55.31 53.85 53.51 51.25 51.41 48.75C51.01 48.25 50.61 48.05 50.01 48.45C47.87 49.64 45.63 50.64 43.31 51.45C38.49 53.16 34.25 56.21 31.11 60.25C29.94 61.73 29.18 63.49 28.91 65.35C28.61 67.15 29.11 67.95 30.91 68.45C32.71 68.95 33.61 69.95 33.81 71.85C33.91 72.65 33.61 73.05 32.81 73.05L24.71 73.05C24.45 73.03 24.19 72.95 23.97 72.81C23.74 72.67 23.55 72.48 23.41 72.25C22.16 70.7 21.49 68.75 21.51 66.75C21.46 63.3 21.76 59.85 22.41 56.45C22.55 55.44 22.93 54.47 23.52 53.63C24.11 52.79 24.9 52.12 25.81 51.65C31.71 48.85 34.81 43.55 37.61 38.05C38.21 36.95 37.71 36.75 36.71 36.85C33.91 37.24 31.26 38.34 29.01 40.05C26.07 42.2 23.29 44.57 20.71 47.15C17.96 49.95 14.32 51.68 10.41 52.05C3.11 52.45 -0.29 48.35 0.01 41.75C0.08 39.5 0.93 37.34 2.41 35.65C2.93 34.98 3.63 34.48 4.43 34.22C5.24 33.95 6.1 33.93 6.91 34.15C8.41 34.55 8.81 35.35 8.21 36.85C7.91 37.45 7.51 37.95 7.21 38.55C6.78 39.16 6.44 39.84 6.21 40.55C5.11 43.55 6.61 45.65 9.71 45.95C13.01 46.25 15.71 44.85 18.21 42.85C21.23 40.44 23.91 37.65 26.21 34.55C27.93 32.29 30.1 30.4 32.57 29.01C35.05 27.62 37.79 26.75 40.61 26.45C42.91 26.15 44.91 25.15 47.11 24.55C51.23 23.3 55.51 22.69 59.81 22.75C61.81 22.83 63.79 22.46 65.61 21.65C70.51 19.65 75.61 19.65 80.71 20.65C84.71 21.45 88.71 22.45 92.61 23.45C94.93 23.88 97.32 23.82 99.61 23.25C104 22.14 108.49 21.47 113.01 21.25C115.98 21.11 118.93 21.69 121.61 22.95C123.61 23.85 123.61 23.85 123.11 25.75Z" fill="#000000" fill-opacity="1.000000" fill-rule="nonzero"/>
</g>
</svg>
