<svg width="78.000000" height="80.000000" viewBox="0 0 78 80" fill="none" xmlns="http://www.w3.org/2000/svg" xmlns:xlink="http://www.w3.org/1999/xlink">
<defs>
<clipPath id="clip94552_2034">
<rect id="icon_gift" width="78.000000" height="80.032814" transform="translate(0.000000 -0.094727)" fill="white" fill-opacity="0"/>
</clipPath>
</defs>
<rect id="icon_gift" width="78.000000" height="80.032814" transform="translate(0.000000 -0.094727)" fill="#FFFFFF" fill-opacity="0"/>
<g clip-path="url(#clip94552_2034)">
<path id="Vector" d="M64.01 34.63L14.03 34.63C12.27 34.63 10.84 33.21 10.84 31.47L10.84 21.99C10.84 20.25 12.27 18.83 14.03 18.83L64.01 18.83C65.76 18.83 67.19 20.25 67.19 21.99L67.19 31.47C67.19 33.21 65.76 34.63 64.01 34.63ZM14.03 21.25C13.62 21.25 13.28 21.59 13.28 21.99L13.28 31.47C13.28 31.87 13.62 32.21 14.03 32.21L64.01 32.21C64.42 32.21 64.75 31.87 64.75 31.47L64.75 21.99C64.75 21.59 64.41 21.25 64.01 21.25L14.03 21.25Z" fill="#FFFFFF" fill-opacity="1.000000" fill-rule="nonzero"/>
<path id="Vector" d="M57.04 67.08L20.99 67.08C17.62 67.08 14.87 64.35 14.87 60.99L14.87 33.42C14.87 32.75 15.42 32.2 16.09 32.2C16.76 32.2 17.31 32.75 17.31 33.42L17.31 60.99C17.31 63.01 18.96 64.65 20.99 64.65L57.04 64.65C59.07 64.65 60.73 63.01 60.73 60.99L60.73 33.42C60.73 32.75 61.27 32.2 61.94 32.2C62.62 32.2 63.16 32.75 63.16 33.42L63.16 60.99C63.16 64.35 60.42 67.08 57.04 67.08Z" fill="#FFFFFF" fill-opacity="1.000000" fill-rule="nonzero"/>
<path id="Vector" d="M39.02 67.08C38.34 67.08 37.8 66.53 37.8 65.87L37.8 33.42C37.8 32.75 38.34 32.2 39.02 32.2C39.69 32.2 40.24 32.75 40.24 33.42L40.24 65.86C40.24 66.53 39.69 67.08 39.02 67.08Z" fill="#FFFFFF" fill-opacity="1.000000" fill-rule="nonzero"/>
<path id="Vector" d="M23.81 21.25C19.99 19.2 18.57 14.44 20.63 10.65C22.7 6.86 27.48 5.44 31.3 7.49C37.11 10.62 40.25 19.36 40.38 19.73L38.08 20.53C38.05 20.45 35.12 12.31 30.14 9.62C27.5 8.21 24.2 9.18 22.78 11.8C21.35 14.42 22.33 17.7 24.97 19.12L23.81 21.25Z" fill="#FFFFFF" fill-opacity="1.000000" fill-rule="nonzero"/>
<path id="Vector" d="M54.23 21.25L53.07 19.12C54.34 18.43 55.27 17.29 55.69 15.91C56.1 14.53 55.95 13.07 55.26 11.8C54.57 10.53 53.42 9.61 52.03 9.2C50.64 8.78 49.17 8.94 47.9 9.62C42.92 12.3 39.98 20.45 39.95 20.53L37.65 19.73C37.78 19.36 40.92 10.62 46.74 7.49C48.58 6.5 50.71 6.28 52.73 6.87C54.74 7.47 56.4 8.81 57.4 10.65C58.4 12.48 58.62 14.6 58.02 16.6C57.42 18.6 56.08 20.25 54.23 21.25Z" fill="#FFFFFF" fill-opacity="1.000000" fill-rule="nonzero"/>
<path id="Vector" d="M61.94 50.85L16.09 50.85C15.42 50.85 14.87 50.31 14.87 49.64C14.87 48.97 15.42 48.43 16.09 48.43L61.94 48.43C62.62 48.43 63.16 48.97 63.16 49.64C63.16 50.31 62.62 50.85 61.94 50.85Z" fill="#FFFFFF" fill-opacity="1.000000" fill-rule="nonzero"/>
</g>
</svg>
