<svg width="128.000000" height="24.000000" viewBox="0 0 128 24" fill="none" xmlns="http://www.w3.org/2000/svg" xmlns:xlink="http://www.w3.org/1999/xlink">
<defs/>
<path d="M1.6236 21.9575C0.489609 20.2815 -0.0733109 18.2722 0.0213547 16.2383L0.0213547 7.76172C-0.115967 5.70581 0.411705 3.66089 1.52345 1.94043C2.62499 0.612793 4.32737 0 6.83086 0C9.33436 0 10.9366 0.612793 11.938 1.73608C13.0252 3.15894 13.56 4.94067 13.4401 6.74048L13.4401 8.78296L8.53324 8.78296L8.53324 6.43408C8.57288 5.73926 8.47057 5.0437 8.23282 4.3916C8.10574 4.12817 7.90433 3.90967 7.65449 3.76416C7.40465 3.61841 7.11781 3.55249 6.83086 3.57446C6.12988 3.57446 5.62919 3.77881 5.42891 4.28931C5.20237 5.01489 5.10073 5.77515 5.12849 6.53613L5.12849 17.4639C5.07561 18.2021 5.21373 18.9417 5.52905 19.6084C5.72932 20.1191 6.23003 20.3235 6.93101 20.3235C7.63198 20.3235 8.03255 20.1191 8.23282 19.6084C8.4605 18.9182 8.56232 18.1914 8.53324 17.4639L8.53324 15.0127L13.4401 15.0127L13.4401 17.0554C13.5419 18.8845 13.0103 20.6919 11.938 22.1616C10.9366 23.3872 9.23422 24 6.83086 24C4.42751 23.8979 2.62499 23.2852 1.6236 21.9575Z" fill="#111111" fill-opacity="1.000000" fill-rule="nonzero"/>
<path d="M19.3483 0.306396L25.0563 0.306396L29.2622 23.5916L24.6557 23.5916L23.8546 18.6895L20.55 18.6895L19.7489 23.5916L15.0423 23.5916L19.3483 0.306396ZM23.454 15.6255L22.2524 6.53613L21.0507 15.6255L23.454 15.6255Z" fill="#111111" fill-opacity="1.000000" fill-rule="nonzero"/>
<path d="M32.767 4.18726L29.3623 4.18726L29.3623 0.306396L41.2789 0.306396L41.2789 4.08521L37.8742 4.08521L37.8742 23.5916L32.767 23.5916L32.767 4.18726Z" fill="#111111" fill-opacity="1.000000" fill-rule="nonzero"/>
<path d="M50.3916 0.306396L59.2039 0.306396L59.2039 2.75757L53.496 2.75757L53.496 10.417L58.1024 10.417L58.1024 12.7659L53.496 12.7659L53.496 21.3447L59.2039 21.3447L59.2039 23.6936L50.2915 23.6936L50.2915 0.306396L50.3916 0.306396Z" fill="#111111" fill-opacity="1.000000" fill-rule="nonzero"/>
<path d="M61.8076 0.306396L64.0107 0.306396L70.5198 15.7278L70.5198 0.306396L73.1234 0.306396L73.1234 23.5916L71.1206 23.5916L64.5114 7.65967L64.5114 23.5916L61.8076 23.5916L61.8076 0.306396Z" fill="#111111" fill-opacity="1.000000" fill-rule="nonzero"/>
<path d="M76.1276 0.306396L84.9399 0.306396L84.9399 2.75757L79.2319 2.75757L79.2319 10.417L83.8383 10.417L83.8383 12.7659L79.2319 12.7659L79.2319 21.3447L84.9399 21.3447L84.9399 23.6936L76.1276 23.6936L76.1276 0.306396Z" fill="#111111" fill-opacity="1.000000" fill-rule="nonzero"/>
<path d="M87.5435 0.306396L92.1499 0.306396C93.962 0.178711 95.7628 0.682861 97.2571 1.73608C98.3586 2.65527 98.8593 4.28931 98.8593 6.43384C98.8593 9.39575 97.9581 11.2339 96.0554 11.8467L99.2599 23.4893L96.1555 23.4893L93.1513 12.5615L90.6478 12.5615L90.6478 23.4893L87.4434 23.4893L87.4434 0.306396L87.5435 0.306396ZM91.9497 10.3147C92.982 10.4016 94.011 10.1121 94.8537 9.4978C95.4545 8.98706 95.755 7.96582 95.755 6.43384C95.7827 5.67285 95.6811 4.91284 95.4546 4.18726C95.2292 3.6665 94.8421 3.23584 94.353 2.96167C93.6633 2.64111 92.9062 2.50073 92.1499 2.55322L90.748 2.55322L90.748 10.2126L91.9497 10.2126L91.9497 10.3147Z" fill="#111111" fill-opacity="1.000000" fill-rule="nonzero"/>
<path d="M102.865 21.8555C101.824 20.0696 101.335 18.0054 101.463 15.9319L101.463 8.17017C101.438 6.69019 101.607 5.21338 101.964 3.77881C102.299 2.70654 102.967 1.77466 103.866 1.12354C104.984 0.448486 106.274 0.128418 107.571 0.204346C109.674 0.204346 111.177 0.714844 112.078 1.83838C113.115 3.32178 113.61 5.12793 113.48 6.94482L113.48 7.76172L110.476 7.76172L110.476 7.04688C110.48 6.19141 110.413 5.3374 110.275 4.49365C110.191 3.96045 109.903 3.48315 109.474 3.16602C108.911 2.78931 108.243 2.60986 107.571 2.65527C106.853 2.6084 106.143 2.82593 105.569 3.26807C105.333 3.47046 105.141 3.71997 105.003 4.00098C104.865 4.28174 104.785 4.58862 104.768 4.9021C104.636 5.81519 104.569 6.73682 104.567 7.65967L104.567 16.3406C104.493 17.6631 104.698 18.9863 105.168 20.2212C105.569 21.0383 106.37 21.3447 107.571 21.3447C108.046 21.405 108.527 21.3208 108.955 21.1028C109.383 20.8848 109.737 20.5425 109.975 20.1191C110.504 18.8276 110.743 17.4321 110.676 16.0342L110.676 14.4001L107.772 14.4001L107.772 12.051L113.58 12.051L113.58 23.5916L111.577 23.5916L111.277 20.9363C111.014 21.8262 110.467 22.6011 109.724 23.1377C108.98 23.6743 108.081 23.9419 107.171 23.8979C106.343 23.9475 105.517 23.7869 104.765 23.4304C104.014 23.074 103.361 22.5327 102.865 21.8555Z" fill="#111111" fill-opacity="1.000000" fill-rule="nonzero"/>
<path d="M119.989 15.4211L115.082 0.408447L118.086 0.408447L121.591 11.6426L124.996 0.408447L128 0.408447L123.093 15.4211L123.093 23.5913L120.089 23.5913L120.089 15.4211L119.989 15.4211Z" fill="#111111" fill-opacity="1.000000" fill-rule="nonzero"/>
</svg>
