<svg width="70.000000" height="59.000000" viewBox="0 0 70 59" fill="none" xmlns="http://www.w3.org/2000/svg" xmlns:xlink="http://www.w3.org/1999/xlink">
<defs/>
<path id="Vector" d="M59.7434 23.8063C58.0234 19.7092 55.2535 16.1318 51.7097 13.4305C48.1658 10.7293 43.9717 8.99857 39.5455 8.41088C35.1193 7.8232 30.6154 8.39905 26.4827 10.0811C22.35 11.7631 18.7329 14.4925 15.9918 17.9973C13.2507 21.5021 11.4813 25.6599 10.8601 30.0564C10.2388 34.4529 10.7874 38.9344 12.4509 43.0545C14.1145 47.1745 16.8351 50.7892 20.3417 53.5382C23.8481 56.2872 28.0181 58.0746 32.4359 58.7223C31.8572 56.6491 31.2686 54.3578 30.7498 51.9275C32.259 52.9009 33.8477 53.747 35.4989 54.457C35.4989 54.457 35.6185 56.5995 35.7782 58.9901C37.5624 59.0207 39.3448 58.8644 41.0961 58.5239C41.0508 58.2746 41.0508 58.0193 41.0961 57.77C41.3854 55.9151 42.1836 52.5723 42.3433 50.4198C43.4939 49.3498 44.47 48.1082 45.2366 46.7397L45.1768 47.1762C44.6279 51.4018 43.4806 55.9151 42.7822 57.1649C42.5562 57.5786 42.2778 57.962 41.9541 58.3056C45.5657 57.4633 48.9497 55.8502 51.8717 53.5781C54.7937 51.3059 57.1837 48.4292 58.876 45.1473C60.5682 41.8653 61.5223 38.2568 61.6721 34.5717C61.822 30.8867 61.1638 27.2133 59.7434 23.8063ZM58.2767 27.5657C57.8378 27.9923 56.9298 28.2799 56.7802 26.9904C56.6305 25.7009 56.5906 24.7982 56.5906 24.7982C56.5906 24.7982 54.665 21.3959 53.9467 21.3563C53.2283 21.3166 48.13 24.7982 46.7831 26.3159C45.6157 27.5955 45.3862 27.5062 45.3862 29.7579C45.3862 31.4541 45.6057 37.862 45.4861 42.7621L37.3546 44.9146C34.7988 45.6438 32.1997 46.2137 29.5724 46.6207L28.5747 40.8378L28.4351 40.8378L25.8708 27.774C25.8708 27.774 22.0696 26.3457 20.6727 25.9588C20.0168 25.6735 19.2926 25.5808 18.5854 25.6915C17.8783 25.8023 17.2178 26.1118 16.6819 26.5837C16.1351 27.0597 15.698 27.6471 15.4001 28.3061C15.1023 28.9651 14.9507 29.6802 14.9558 30.4027C15.1667 30.8637 15.3273 31.3459 15.4347 31.841C15.4846 32.3171 14.2374 32.2675 13.4393 32.2675C12.6411 32.2675 12.5214 30.8391 13.1499 29.1627C13.6404 27.8737 14.2482 26.632 14.9658 25.4529C15.5056 24.3997 16.2018 23.4333 17.0311 22.5863C17.0311 22.5863 17.1708 22.249 18.2782 22.3482C19.3857 22.4474 25.5416 22.7747 25.5416 22.7747L25.5916 20.523C32.2826 19.6045 39.0309 19.1603 45.7854 19.1938C45.7854 19.7989 45.7854 20.404 45.7854 21.0091C48.3438 19.8483 51.0986 19.1754 53.9067 19.0252C54.057 19.0214 54.2059 19.0548 54.34 19.1223C54.474 19.1898 54.5891 19.2894 54.675 19.4121C55.0143 19.8386 57.0795 22.3879 57.319 22.7549C57.9896 23.7078 58.5995 24.7017 59.1448 25.7307C58.9579 26.3822 58.6647 26.9988 58.2767 27.5558L58.2767 27.5657Z" fill="#FDC305" fill-opacity="1.000000" fill-rule="nonzero"/>
<path id="Vector" d="M56.3312 21.4951C56.8002 22.0903 57.2092 22.616 57.329 22.7747C57.9996 23.7277 58.6094 24.7215 59.1548 25.7505C58.965 26.3806 58.6753 26.9767 58.2968 27.5161C57.8577 27.9427 56.9498 28.2303 56.8002 26.9408C56.6505 25.6513 56.5906 24.7982 56.5906 24.7982C56.5906 24.7982 54.665 21.3959 53.9467 21.3563C53.2283 21.3166 48.13 24.7983 46.7831 26.3159C45.6157 27.5955 45.3862 27.5062 45.3862 29.7579C45.3862 31.2458 45.5558 36.3542 45.516 40.8973C47.3218 41.0957 49.9757 41.5916 50.7739 42.7621C50.7739 42.7621 50.4846 35.64 58.566 39.3697C58.566 39.3697 58.8455 29.6587 70 32.1485C66.208 27.7223 61.5597 24.0994 56.3312 21.4951Z" fill="#F06351" fill-opacity="1.000000" fill-rule="nonzero"/>
<path id="Vector" d="M45.8252 19.1938C45.8658 13.6973 45.3982 8.2087 44.4285 2.79724C44.4285 2.79724 44.2788 1.50773 43.5604 2.55918C42.9677 3.81617 42.5642 5.15308 42.3632 6.5269C38.098 6.25483 33.817 6.36771 29.5724 6.86415C28.7543 4.13635 27.3574 2.89643 26.689 3.22377C26.0205 3.55111 25.9407 6.4773 25.9407 6.4773L25.6115 20.523C32.3091 19.6036 39.0641 19.1594 45.8252 19.1938Z" fill="#F06351" fill-opacity="1.000000" fill-rule="nonzero"/>
<path id="Vector" d="M45.2457 46.7397C45.3755 45.6784 45.4453 44.2698 45.4852 42.7125L37.3542 44.865C34.7996 45.611 32.2006 46.1974 29.5724 46.6207L30.6798 51.5804C30.6798 51.6895 30.6798 51.7986 30.7496 51.9077C32.2589 52.8811 33.8474 53.7272 35.4985 54.4371C37.9116 53.2903 40.2098 51.9186 42.3625 50.3404L42.3625 50.4C43.5079 49.3352 44.4806 48.1005 45.2457 46.7397Z" fill="#E55645" fill-opacity="1.000000" fill-rule="nonzero"/>
<path id="Vector" d="M31.927 16.0891C31.8771 15.9899 32.9247 16.7636 33.3337 17.0017C33.7428 17.2397 33.9423 17.4183 33.9423 17.5869C33.9423 17.7555 33.6829 17.9242 33.3237 17.9242C32.9646 17.9242 32.4059 17.8051 32.326 17.6663C32.2462 17.5274 32.9247 17.6663 33.2639 17.6663L33.5532 17.6663C32.939 17.2195 32.3915 16.6885 31.927 16.0891Z" fill="#000000" fill-opacity="1.000000" fill-rule="nonzero"/>
<path id="Vector" d="M39.4099 16.1982C39.4099 16.1982 38.4122 17.4679 38.3224 17.5274C38.2327 17.5869 38.1528 17.8647 38.512 17.8151C38.9243 17.7539 39.3312 17.661 39.7291 17.5373C39.8389 17.4778 39.799 17.3389 39.6094 17.3588C39.4198 17.3786 38.931 17.4084 38.6117 17.4679L39.4597 16.2081C39.4597 16.2081 39.4897 16.0891 39.4099 16.1982Z" fill="#000000" fill-opacity="1.000000" fill-rule="nonzero"/>
<path id="Vector" d="M36.277 22.2589C36.7395 22.0563 37.1217 21.7077 37.3645 21.267C37.6438 20.6123 37.3645 20.3643 36.9255 20.275C36.3215 20.1655 35.6982 20.2859 35.1796 20.6123C34.7905 20.9793 34.8403 21.3364 35.1796 21.6042C35.5166 21.867 35.8853 22.0869 36.277 22.2589Z" fill="#000000" fill-opacity="1.000000" fill-rule="nonzero"/>
<path id="Vector" d="M35.9177 23.5087C35.8031 23.7337 35.6475 23.9355 35.4587 24.1039C35.1746 24.3312 34.8253 24.4631 34.4611 24.4808C33.9117 24.5344 33.3625 24.3784 32.9247 24.0444C32.7235 23.9274 32.5446 23.7764 32.3959 23.598C32.2961 23.49 32.1735 23.4053 32.0367 23.35C32.0367 23.35 32.785 27.4269 34.6007 28.0815C36.4165 28.7362 36.7557 27.3277 36.8055 26.9507C36.8663 25.8218 36.5811 24.7011 35.9875 23.7369C35.9875 23.4393 35.9675 23.6377 35.9177 23.5087Z" fill="#F06351" fill-opacity="1.000000" fill-rule="nonzero"/>
<path id="Vector" d="M34.2216 24.6395C33.7548 24.5728 33.3063 24.4127 32.9033 24.1689C32.5004 23.9251 32.1512 23.6027 31.8771 23.2211C31.8525 23.1938 31.839 23.1585 31.839 23.1219C31.839 23.0853 31.8525 23.05 31.8771 23.0227C31.8901 23.0095 31.9056 22.999 31.9227 22.9919C31.9399 22.9847 31.9583 22.981 31.9768 22.981C31.9955 22.981 32.0138 22.9847 32.031 22.9919C32.0481 22.999 32.0636 23.0095 32.0767 23.0227C32.3235 23.3671 32.6367 23.6593 32.998 23.8823C33.3595 24.1054 33.7617 24.2549 34.1818 24.3221C34.5139 24.2973 34.8354 24.1945 35.1199 24.022C35.4043 23.8496 35.6436 23.6125 35.8179 23.3302L35.9575 23.1417L36.0574 23.36C36.0574 23.36 36.4364 24.1138 37.0551 24.1535C37.6736 24.1932 38.1125 23.7369 38.6812 22.8739C38.7024 22.8423 38.7352 22.8204 38.7727 22.813C38.8102 22.8055 38.849 22.8132 38.8807 22.8342C38.9125 22.8553 38.9346 22.888 38.942 22.9252C38.9495 22.9624 38.9418 23.001 38.9207 23.0326C38.2555 24.0047 37.627 24.4709 37.035 24.4312C36.8063 24.4011 36.5872 24.3204 36.3938 24.1951C36.2004 24.0698 36.0377 23.9031 35.9176 23.7071C35.7224 23.9781 35.469 24.2025 35.1755 24.3638C34.8822 24.5251 34.5563 24.6193 34.2216 24.6395Z" fill="#000000" fill-opacity="1.000000" fill-rule="nonzero"/>
<path id="Vector" d="M39.9183 34.2712C39.9183 36.3255 38.2433 37.9909 36.177 37.9909C34.1108 37.9909 32.4358 36.3255 32.4358 34.2712C32.4358 32.2168 34.1108 30.5514 36.177 30.5514C38.2433 30.5514 39.9183 32.2168 39.9183 34.2712Z" fill="#FDC305" fill-opacity="1.000000" fill-rule="evenodd"/>
<path id="Vector" d="M41.1355 31.2458L38.0128 32.5452L39.1602 26.9607L31.6776 36.6419L34.8003 35.3425L33.653 40.937L41.1355 31.2458ZM33.7627 35.0449L37.9131 29.6786L37.105 33.6463L39.1002 32.8329L34.92 38.2092L35.7281 34.2414L33.7627 35.0449Z" fill="#111111" fill-opacity="1.000000" fill-rule="nonzero"/>
<path id="Vector" d="M33.4833 32.4758C33.4833 33.0894 32.983 33.5868 32.366 33.5868C31.7488 33.5868 31.2485 33.0894 31.2485 32.4758C31.2485 31.8622 31.7488 31.3648 32.366 31.3648C32.983 31.3648 33.4833 31.8622 33.4833 32.4758Z" fill="#111111" fill-opacity="1.000000" fill-rule="evenodd"/>
<path id="Vector" d="M39.6592 36.8304C39.6592 37.2631 39.3063 37.614 38.8711 37.614C38.4358 37.614 38.0829 37.2631 38.0829 36.8304C38.0829 36.3976 38.4358 36.0467 38.8711 36.0467C39.3063 36.0467 39.6592 36.3976 39.6592 36.8304Z" fill="#111111" fill-opacity="1.000000" fill-rule="evenodd"/>
<path id="Vector" d="M40.1781 35.1143C40.1781 35.3061 40.0217 35.4615 39.829 35.4615C39.6361 35.4615 39.4797 35.3061 39.4797 35.1143C39.4797 34.9226 39.6361 34.7672 39.829 34.7672C40.0217 34.7672 40.1781 34.9226 40.1781 35.1143Z" fill="#111111" fill-opacity="1.000000" fill-rule="evenodd"/>
<path id="Vector" d="M45.7753 20.9892C43.9742 22.6034 42.2781 24.3295 40.6969 26.1572C39.1219 27.9717 37.3445 29.6023 35.399 31.0177C35.1794 30.4919 33.7727 29.5099 33.7727 29.5099C33.7727 29.5099 30.6399 27.3773 28.5846 25.7009C27.4735 24.7809 26.4268 23.7867 25.4518 22.7251L23.4563 22.616C26.3368 26.7991 30.5566 29.8897 35.429 31.3847C36.287 31.2458 38.7014 29.5298 40.5073 28.1311C42.6438 26.3247 44.6445 24.3654 46.4937 22.2688C46.9906 21.6816 47.376 21.0094 47.631 20.285C46.4937 20.6619 45.7753 20.9892 45.7753 20.9892Z" fill="#F06351" fill-opacity="1.000000" fill-rule="nonzero"/>
<path id="Vector" d="M65.0708 3.47176L56.6305 12.8356L55.4133 10.8616L63.5443 0L65.0708 3.47176Z" fill="#FDC305" fill-opacity="1.000000" fill-rule="nonzero"/>
<path id="Vector" d="M62.5071 17.1207L68.0342 13.0439L67.256 9.33406L61.8685 14.1052L62.5071 17.1207Z" fill="#FDC305" fill-opacity="1.000000" fill-rule="nonzero"/>
<path id="Vector" d="M59.7833 48.9716L65.899 52.1259L68.902 49.8048L62.2277 47.077L59.7833 48.9716Z" fill="#FDC305" fill-opacity="1.000000" fill-rule="nonzero"/>
<path id="Vector" d="M1.94543 5.92182L5.0083 2.58894L14.2766 11.5163L13.0594 13.7779L1.94543 5.92182Z" fill="#FDC305" fill-opacity="1.000000" fill-rule="nonzero"/>
<path id="Vector" d="M7.36292 16.1486L2.67383 13.0439L0.279419 16.8827L5.41736 19.2633L7.36292 16.1486Z" fill="#FDC305" fill-opacity="1.000000" fill-rule="nonzero"/>
<path id="Vector" d="M13.8781 52.1259L9.33862 55.4489L12.1321 59L16.1427 55.0124L13.8781 52.1259Z" fill="#FDC305" fill-opacity="1.000000" fill-rule="nonzero"/>
<path id="Vector" d="M25.8708 27.774C25.8708 27.774 22.0696 26.3457 20.6727 25.9588C20.0168 25.6735 19.2926 25.5808 18.5854 25.6915C17.8783 25.8023 17.2178 26.1118 16.6819 26.5837C16.1351 27.0597 15.698 27.6471 15.4001 28.3061C15.1023 28.9651 14.9507 29.6802 14.9558 30.4027C15.1667 30.8637 15.3273 31.3459 15.4347 31.841C15.4846 32.3171 14.2374 32.2675 13.4393 32.2675C12.6411 32.2675 12.5214 30.8391 13.1499 29.1627C13.6403 27.8737 14.2482 26.632 14.9658 25.4529C9.5282 28.27 0 34.7771 0 34.7771C2.72546 34.6137 5.46021 34.6933 8.17126 35.0151C13.4093 35.5409 13.1599 39.6474 13.1599 39.6474C15.0022 39.1425 16.8798 38.7745 18.7771 38.5464C20.8922 38.4075 21.0419 40.6493 21.0419 40.6493L21.5707 44.4781C22.3735 43.6145 23.259 42.8305 24.2146 42.1372C25.4463 41.157 27.0145 40.6942 28.5846 40.8477L25.8708 27.774Z" fill="#F06351" fill-opacity="1.000000" fill-rule="nonzero"/>
</svg>
