<svg width="168.000000" height="37.000000" viewBox="0 0 168 37" fill="none" xmlns="http://www.w3.org/2000/svg" xmlns:xlink="http://www.w3.org/1999/xlink">
	<desc>
			Created with Pixso.
	</desc>
	<defs>
		<clipPath id="clip2_1063">
			<rect id="Лого_html 1" width="27.000000" height="34.000000" transform="translate(141.000000 1.500000)" fill="white" fill-opacity="0"/>
		</clipPath>
	</defs>
	<rect id="html-academy" width="168.000000" height="37.000000" fill="#FFFFFF" fill-opacity="0"/>
	<path id="HTML Academy" d="M85.5036 24.396C85.557 24.5933 85.685 24.692 85.8876 24.692L86.7356 24.692L86.7356 12.908L85.3116 12.908L85.3116 17.404Q84.952 17.0098 84.5086 16.771Q84.4391 16.7336 84.3676 16.7C84.0156 16.5293 83.5916 16.444 83.0956 16.444C82.5463 16.444 82.0556 16.5533 81.6236 16.772C81.1916 16.9853 80.8236 17.2813 80.5196 17.66Q80.0716 18.228 79.8316 19.004Q79.5916 19.772 79.5916 20.668C79.5916 21.34 79.6636 21.9347 79.8076 22.452C79.9516 22.9693 80.157 23.4013 80.4236 23.748C80.6903 24.0947 81.013 24.3587 81.3916 24.54C81.7703 24.716 82.1916 24.804 82.6556 24.804C83.2316 24.804 83.741 24.6787 84.1836 24.428C84.6316 24.172 85.029 23.8333 85.3756 23.412L85.5036 24.396ZM14.128 24.692L15.688 24.692L15.688 13.228L14.128 13.228L14.128 18.34L7.952 18.34L7.952 13.228L6.392 13.228L6.392 24.692L7.952 24.692L7.952 19.476L14.128 19.476L14.128 24.692ZM26.2938 14.532L26.2938 13.228L17.3177 13.228L17.3177 14.532L21.0378 14.532L21.0378 24.692L22.5898 24.692L22.5898 14.532L26.2938 14.532ZM33.7552 20.956C33.7019 20.812 33.6379 20.676 33.5633 20.548L29.6033 13.492C29.5339 13.3693 29.4619 13.2947 29.3873 13.268C29.3126 13.2413 29.2059 13.228 29.0672 13.228L27.9233 13.228L27.9233 24.692L29.2833 24.692L29.2833 16.268C29.2833 16.156 29.2779 16.0333 29.2673 15.9C29.2619 15.7667 29.2513 15.6307 29.2353 15.492L33.2513 22.684C33.3846 22.924 33.5713 23.044 33.8112 23.044L34.0352 23.044C34.2752 23.044 34.4619 22.924 34.5952 22.684L38.5233 15.516Q38.5073 15.716 38.4993 15.908C38.4939 16.036 38.4912 16.156 38.4912 16.268L38.4912 24.692L39.8512 24.692L39.8512 13.228L38.7073 13.228Q38.4993 13.228 38.3873 13.268C38.3126 13.2947 38.2406 13.3693 38.1712 13.492L34.2913 20.54C34.2166 20.6787 34.1499 20.8173 34.0913 20.956C34.0326 21.0893 33.9766 21.2307 33.9232 21.38C33.8699 21.236 33.8139 21.0947 33.7552 20.956ZM49.154 23.388L44.194 23.388L44.194 13.228L42.642 13.228L42.642 24.692L49.154 24.692L49.154 23.388ZM62.1865 24.692L63.3865 24.692L58.8025 13.228L57.2265 13.228L52.6425 24.692L53.8425 24.692C53.9758 24.692 54.0878 24.6547 54.1785 24.58C54.2692 24.5053 54.3332 24.42 54.3705 24.324L55.4425 21.556L60.5865 21.556L61.6585 24.324C61.7012 24.4307 61.7652 24.5187 61.8505 24.588C61.9358 24.6573 62.0478 24.692 62.1865 24.692ZM60.1545 20.436L55.8745 20.436L57.6745 15.78Q57.7545 15.572 57.8345 15.3C57.8932 15.1133 57.9518 14.9107 58.0105 14.692Q58.1785 15.34 58.3545 15.772L60.1545 20.436ZM77.3942 24.692L78.0263 24.692L78.0263 19.508C78.0263 19.0547 77.9649 18.6387 77.8422 18.26C77.7196 17.8813 77.5383 17.5587 77.2982 17.292C77.0583 17.0253 76.7623 16.8173 76.4102 16.668C76.0583 16.5187 75.6556 16.444 75.2022 16.444C74.5729 16.444 73.9996 16.5507 73.4823 16.764C72.9649 16.9773 72.4822 17.3 72.0342 17.732L72.2903 18.188C72.3329 18.2627 72.3889 18.3267 72.4583 18.38C72.5329 18.428 72.6182 18.452 72.7142 18.452C72.8369 18.452 72.9596 18.4093 73.0823 18.324C73.2103 18.2333 73.3596 18.1347 73.5303 18.028C73.7063 17.916 73.9116 17.8173 74.1462 17.732C74.3863 17.6413 74.6796 17.596 75.0263 17.596Q75.6538 17.596 76.0353 17.9024Q76.1352 17.9827 76.2182 18.084Q76.6263 18.564 76.6263 19.508L76.6263 20.14C75.7089 20.1613 74.9329 20.2467 74.2982 20.396C73.6636 20.54 73.1489 20.7267 72.7542 20.956C72.3649 21.1853 72.0823 21.4493 71.9062 21.748C71.7302 22.0413 71.6423 22.348 71.6423 22.668C71.6423 23.036 71.7009 23.356 71.8183 23.628Q71.999 24.021 72.2956 24.2827Q72.3009 24.2874 72.3063 24.292C72.5089 24.468 72.7462 24.6013 73.0182 24.692C73.2956 24.7773 73.5916 24.82 73.9062 24.82Q74.3703 24.82 74.7462 24.74C75.0023 24.6867 75.2422 24.6093 75.4662 24.508C75.6902 24.4013 75.9036 24.2733 76.1062 24.124C76.3089 23.9693 76.5169 23.796 76.7302 23.604L76.8903 24.356C76.9169 24.4947 76.9729 24.5853 77.0583 24.628C77.1436 24.6707 77.2556 24.692 77.3942 24.692ZM70.0055 18.164C70.0482 18.132 70.0908 18.0867 70.1335 18.028L70.5095 17.516C70.1735 17.18 69.7868 16.9213 69.3495 16.74C68.9122 16.5533 68.4108 16.46 67.8455 16.46C67.2322 16.46 66.6882 16.564 66.2135 16.772C65.7388 16.98 65.3388 17.2707 65.0135 17.644C64.6935 18.012 64.4482 18.452 64.2775 18.964C64.1122 19.476 64.0295 20.0333 64.0295 20.636C64.0295 21.2973 64.1202 21.8867 64.3015 22.404Q64.5815 23.18 65.0615 23.716C65.3815 24.068 65.7575 24.3373 66.1895 24.524C66.6268 24.7107 67.0988 24.804 67.6055 24.804C68.1922 24.804 68.7495 24.7053 69.2775 24.508C69.8055 24.3053 70.2455 23.988 70.5975 23.556L70.1975 23.036C70.1388 22.9453 70.0482 22.9 69.9255 22.9Q69.7815 22.9 69.6375 23.028C69.5415 23.108 69.4188 23.1987 69.2695 23.3C69.1202 23.4013 68.9335 23.4947 68.7095 23.58C68.4855 23.66 68.2002 23.7 67.8535 23.7C67.4908 23.7 67.1628 23.6333 66.8695 23.5C66.5815 23.3613 66.3362 23.164 66.1335 22.908C65.9308 22.6467 65.7735 22.3267 65.6615 21.948Q65.4935 21.372 65.4935 20.636Q65.4935 19.932 65.6455 19.364C65.7522 18.9853 65.9068 18.6627 66.1095 18.396C66.3175 18.1293 66.5735 17.9267 66.8775 17.788C67.1815 17.644 67.5308 17.572 67.9255 17.572Q68.3735 17.572 68.6775 17.676C68.8855 17.74 69.0615 17.812 69.2055 17.892C69.3495 17.972 69.4668 18.0467 69.5575 18.116C69.6535 18.18 69.7415 18.212 69.8215 18.212Q69.9415 18.212 70.0055 18.164ZM93.6731 16.708C93.2625 16.5427 92.8145 16.46 92.3291 16.46Q91.4491 16.46 90.7451 16.772C90.2758 16.9747 89.8785 17.2573 89.5531 17.62C89.2278 17.9773 88.9771 18.4013 88.8011 18.892C88.6305 19.3827 88.5451 19.9107 88.5451 20.476C88.5451 21.1747 88.6411 21.7933 88.8331 22.332C89.0251 22.8707 89.2918 23.324 89.6331 23.692C89.9798 24.0547 90.3878 24.332 90.8571 24.524C91.3318 24.7107 91.8491 24.804 92.4091 24.804C92.7025 24.804 92.9985 24.7773 93.2971 24.724C93.5958 24.676 93.8838 24.6013 94.1611 24.5C94.4438 24.3987 94.7078 24.2707 94.9531 24.116C95.1985 23.956 95.4091 23.7693 95.5851 23.556L95.1851 23.036C95.1211 22.9453 95.0305 22.9 94.9131 22.9C94.8225 22.9 94.7131 22.9427 94.5851 23.028C94.4625 23.108 94.3078 23.196 94.1211 23.292C93.9345 23.388 93.7105 23.4787 93.4491 23.564C93.1931 23.644 92.8865 23.684 92.5291 23.684C92.1451 23.684 91.7985 23.6227 91.4891 23.5C91.1798 23.372 90.9131 23.1827 90.6891 22.932C90.4651 22.676 90.2891 22.3587 90.1611 21.98C90.0331 21.6013 89.9638 21.156 89.9531 20.644L95.3451 20.644C95.4785 20.644 95.5691 20.6067 95.6171 20.532C95.6651 20.4573 95.6891 20.308 95.6891 20.084C95.6891 19.508 95.6038 18.996 95.4331 18.548C95.2678 18.0947 95.0358 17.716 94.7371 17.412C94.4385 17.1027 94.0838 16.868 93.6731 16.708ZM97.5117 16.588L97.5117 24.692L98.9358 24.692L98.9358 18.652C99.1864 18.3267 99.4611 18.0707 99.7598 17.884C100.064 17.692 100.392 17.596 100.744 17.596Q101.309 17.596 101.671 17.8675Q101.791 17.957 101.888 18.076C102.149 18.396 102.28 18.8813 102.28 19.532L102.28 24.692L103.704 24.692L103.704 19.532C103.704 19.212 103.749 18.932 103.84 18.692C103.936 18.4467 104.064 18.244 104.224 18.084C104.384 17.924 104.568 17.804 104.776 17.724C104.989 17.6387 105.213 17.596 105.448 17.596Q106.057 17.596 106.443 17.8891Q106.56 17.9773 106.656 18.092C106.933 18.4173 107.072 18.8973 107.072 19.532L107.072 24.692L108.496 24.692L108.496 19.532Q108.496 18.796 108.312 18.228C108.189 17.844 108.01 17.5213 107.776 17.26C107.546 16.9987 107.264 16.8013 106.928 16.668C106.597 16.5293 106.218 16.46 105.792 16.46Q105.654 16.46 105.517 16.4714Q105.257 16.4931 105 16.556C104.744 16.62 104.501 16.7213 104.272 16.86C104.042 16.9987 103.834 17.1747 103.648 17.388C103.466 17.6013 103.32 17.8547 103.208 18.148C103.058 17.6307 102.813 17.22 102.472 16.916C102.136 16.612 101.693 16.46 101.144 16.46C100.653 16.46 100.221 16.5773 99.8477 16.812C99.4798 17.0467 99.1464 17.348 98.8477 17.716L98.7438 16.884C98.6904 16.6867 98.5624 16.588 98.3597 16.588L97.5117 16.588ZM112.594 27.34C112.669 27.276 112.73 27.1907 112.778 27.084L117.298 16.588L116.162 16.588Q116.125 16.588 116.09 16.5945Q115.994 16.6119 115.906 16.676C115.832 16.7293 115.778 16.7987 115.746 16.884L113.642 21.98C113.594 22.1027 113.552 22.2227 113.514 22.34C113.477 22.4573 113.44 22.5773 113.402 22.7C113.376 22.5773 113.344 22.4573 113.306 22.34C113.274 22.2227 113.234 22.1053 113.186 21.988L111.018 16.884C110.986 16.8093 110.936 16.7427 110.866 16.684C110.797 16.62 110.701 16.588 110.578 16.588L109.346 16.588L112.69 24.22L111.21 27.436L112.266 27.436C112.416 27.436 112.525 27.404 112.594 27.34ZM90.7371 18.108C91.1318 17.708 91.6731 17.508 92.3611 17.508C92.6865 17.508 92.9745 17.564 93.2251 17.676C93.4811 17.7827 93.6971 17.9373 93.8731 18.14C94.0491 18.3373 94.1825 18.5747 94.2731 18.852C94.3638 19.124 94.4091 19.4253 94.4091 19.756L90.0011 19.756C90.0971 19.052 90.3425 18.5027 90.7371 18.108ZM84.3436 23.332C83.997 23.5453 83.5916 23.652 83.1276 23.652C82.797 23.652 82.5036 23.596 82.2476 23.484C81.9916 23.372 81.7756 23.196 81.5996 22.956C81.4236 22.7107 81.2903 22.4013 81.1996 22.028Q81.0636 21.46 81.0636 20.668Q81.0636 19.172 81.6716 18.364C82.077 17.8253 82.6583 17.556 83.4156 17.556C83.7943 17.556 84.1383 17.628 84.4476 17.772C84.7623 17.9107 85.0503 18.156 85.3116 18.508L85.3116 22.428C85.0183 22.8173 84.6956 23.1187 84.3436 23.332ZM75.0182 23.748Q74.7063 23.82 74.3303 23.82C74.1436 23.82 73.9703 23.7987 73.8102 23.756C73.6503 23.708 73.5116 23.636 73.3942 23.54C73.2769 23.4387 73.1836 23.3107 73.1143 23.156C73.0449 23.0013 73.0103 22.8173 73.0103 22.604C73.0103 22.38 73.0742 22.1773 73.2022 21.996C73.3356 21.8147 73.5462 21.6573 73.8343 21.524C74.1223 21.3907 74.4956 21.284 74.9543 21.204C75.4129 21.1187 75.9703 21.0653 76.6263 21.044L76.6263 22.732C76.4662 22.9027 76.3009 23.0547 76.1302 23.188C75.9649 23.3213 75.7889 23.436 75.6022 23.532C75.4209 23.6227 75.2262 23.6947 75.0182 23.748Z" fill="#444444" fill-opacity="1.000000" fill-rule="evenodd"/>
	<rect id="Лого_html 1" width="27.000000" height="34.000000" transform="translate(141.000000 1.500000)" fill="#FFFFFF" fill-opacity="0"/>
	<g clip-path="url(#clip2_1063)">
		<path id="html academy " d="M154.643 1.51587L154.5 1.5L141 2.90723L141 27.5129L154.5 35.5L168 27.5129L168 2.90723L154.643 1.51587ZM166.234 26.5151L154.5 33.4573L142.766 26.5151L142.766 16.4292L154.451 23.3452L154.47 24.5984L146.454 19.8547L146.443 21.0801L154.49 25.8884L154.509 27.175L146.464 22.4175L146.454 23.6428L154.5 28.4512L162.624 23.6182L162.624 22.3928L162.624 18.4089L166.243 16.2595L166.234 26.5151ZM166.234 14.9519L163.015 16.8318L161.532 17.707L154.467 13.52L154.456 14.7454L160.496 18.3179L160.443 18.3494L160.312 18.4248L159.454 18.9165L154.467 15.969L154.456 17.1941L158.392 19.5222L157.459 20.1313L157.438 20.1436L154.467 18.4019L154.456 19.6272L156.403 20.7615L154.416 21.9482L142.797 15.0762L154.435 8.11841L166.234 14.9519ZM166.234 13.7266L154.44 6.81079L142.766 13.7197L142.766 4.48975L154.5 3.2644L166.234 4.48975L166.234 13.7266Z" fill="#666666" fill-opacity="1.000000" fill-rule="nonzero"/>
	</g>
</svg>
