<svg width="80.000000" height="80.000000" viewBox="0 0 80 80" fill="none" xmlns="http://www.w3.org/2000/svg" xmlns:xlink="http://www.w3.org/1999/xlink">
<defs/>
<rect id="green back_3" width="80.000000" height="80.000000" fill="#68B738" fill-opacity="1.000000"/>
<rect id="icon_eat" width="25.000000" height="30.000000" transform="translate(28.000000 25.000000)" fill="#FFFFFF" fill-opacity="0"/>
<path id="Knife" d="M46.61 25.07C46.99 24.92 47.42 25 47.7 25.29C48.61 26.2 49.8 28.17 50.76 31.21C51.73 34.28 52.5 38.5 52.5 44C52.5 44.55 52.05 45 51.5 45L48 45L48 54C48 54.55 47.55 55 47 55C46.44 55 46 54.55 46 54L46 26C46 25.59 46.24 25.23 46.61 25.07ZM48 43L50.49 43C50.4 38.18 49.7 34.48 48.85 31.81C48.58 30.93 48.28 30.17 48 29.51L48 43Z" fill="#FFFFFF" fill-opacity="1.000000" fill-rule="evenodd"/>
<path id="Fork" d="M29.5 25C30.05 25 30.5 25.44 30.5 26L30.5 31.5C30.5 32.05 30.69 32.81 31.2 33.41C31.55 33.84 32.11 34.23 33 34.4L33 26C33 25.44 33.44 25 34 25C34.55 25 35 25.44 35 26L35 34.4C35.88 34.23 36.44 33.84 36.79 33.41C37.3 32.81 37.5 32.05 37.5 31.5L37.5 26C37.5 25.44 37.94 25 38.5 25C39.05 25 39.5 25.44 39.5 26L39.5 31.5C39.5 32.44 39.19 33.68 38.32 34.7C37.58 35.58 36.49 36.23 35 36.43L35 54C35 54.55 34.55 55 34 55C33.44 55 33 54.55 33 54L33 36.43C31.5 36.23 30.41 35.58 29.67 34.7C28.8 33.68 28.5 32.44 28.5 31.5L28.5 26C28.5 25.44 28.94 25 29.5 25Z" fill="#FFFFFF" fill-opacity="1.000000" fill-rule="evenodd"/>
</svg>
