<svg width="163.000000" height="34.000000" viewBox="0 0 163 34" fill="none" xmlns="http://www.w3.org/2000/svg" xmlns:xlink="http://www.w3.org/1999/xlink">
	<desc>
			Created with Pixso.
	</desc>
	<defs>
		<clipPath id="clip83854_424">
			<rect id="Лого_html 1" width="27.000000" height="34.000000" transform="translate(136.000000 0.000000)" fill="white" fill-opacity="0"/>
		</clipPath>
	</defs>
	<rect id="Property 1=hover" width="163.000000" height="34.000000" fill="#FFFFFF" fill-opacity="0"/>
	<path id="HTML Academy" d="M81.85 23.5L81.85 11.71L80.43 11.71L80.43 16.2Q80.12 15.87 79.75 15.65Q79.62 15.57 79.48 15.5Q78.95 15.25 78.2 15.25Q77.39 15.25 76.73 15.57Q76.4 15.74 76.13 15.96Q75.85 16.18 75.63 16.46Q75.19 17.03 74.94 17.8Q74.71 18.57 74.71 19.47Q74.71 20.48 74.92 21.26Q75.14 22.03 75.54 22.55Q75.83 22.92 76.2 23.16Q76.35 23.26 76.51 23.34Q77.07 23.61 77.77 23.61Q78.6 23.61 79.24 23.26Q79.28 23.24 79.31 23.23Q79.34 23.21 79.37 23.19Q80 22.81 80.49 22.21L80.62 23.2Q80.66 23.35 80.76 23.42Q80.85 23.5 81 23.5L81.85 23.5ZM10.75 23.5L10.75 12.03L9.19 12.03L9.19 17.14L3.01 17.14L3.01 12.03L1.46 12.03L1.46 23.5L3.01 23.5L3.01 18.28L9.19 18.28L9.19 23.5L10.75 23.5ZM17.71 13.33L21.43 13.33L21.43 12.03L12.45 12.03L12.45 13.33L16.17 13.33L16.17 23.5L17.71 23.5L17.71 13.33ZM35.05 23.5L35.05 12.03L33.91 12.03Q33.7 12.03 33.58 12.07Q33.47 12.11 33.37 12.3L29.48 19.34Q29.38 19.53 29.29 19.75Q29.2 19.96 29.12 20.17Q29.04 19.96 28.95 19.75Q28.86 19.54 28.76 19.35L24.8 12.3Q24.7 12.11 24.58 12.07Q24.48 12.03 24.27 12.03L23.12 12.03L23.12 23.5L24.48 23.5L24.48 15.07Q24.48 14.71 24.44 14.29L28.45 21.49Q28.56 21.69 28.72 21.78Q28.85 21.85 29.01 21.85L29.23 21.85Q29.4 21.85 29.53 21.78Q29.69 21.69 29.8 21.49L33.73 14.32Q33.71 14.52 33.7 14.71Q33.69 14.9 33.69 15.07L33.69 23.5L35.05 23.5ZM44.48 23.5L44.48 22.19L39.52 22.19L39.52 12.03L37.98 12.03L37.98 23.5L44.48 23.5ZM57.4 23.5L58.6 23.5L54.01 12.03L52.44 12.03L47.86 23.5L49.06 23.5Q49.23 23.5 49.35 23.42Q49.37 23.4 49.39 23.39Q49.53 23.27 49.58 23.13Q49.58 23.13 49.58 23.13L50.65 20.36L55.8 20.36L56.87 23.13Q56.92 23.25 57 23.34Q57.03 23.37 57.06 23.39Q57.19 23.5 57.4 23.5ZM53.56 14.57L55.36 19.24L51.08 19.24L52.88 14.58Q53.06 14.15 53.23 13.5Q53.31 13.82 53.39 14.09Q53.48 14.37 53.56 14.57ZM68.43 15.57Q67.66 15.89 66.99 16.53L67.24 16.99Q67.29 17.06 67.34 17.12Q67.38 17.15 67.42 17.18Q67.44 17.2 67.46 17.21Q67.55 17.26 67.67 17.26Q67.85 17.26 68.04 17.12Q68.23 16.99 68.49 16.83Q68.75 16.66 69.1 16.53Q69.46 16.4 69.99 16.4Q70.6 16.4 70.98 16.69Q71.09 16.78 71.18 16.88Q71.59 17.37 71.59 18.31L71.59 18.94Q70.2 18.98 69.25 19.2Q68.3 19.42 67.7 19.76Q67.11 20.1 66.85 20.55Q66.66 20.87 66.61 21.22Q66.59 21.34 66.59 21.47Q66.59 22.02 66.77 22.43Q66.93 22.79 67.2 23.04Q67.22 23.07 67.25 23.1Q67.27 23.11 67.28 23.12Q67.58 23.36 67.98 23.49Q68.4 23.62 68.87 23.62Q69.33 23.62 69.71 23.54Q70.09 23.46 70.43 23.3Q70.76 23.14 71.07 22.92Q71.37 22.69 71.69 22.39L71.85 23.16Q71.91 23.36 72.02 23.43Q72.14 23.5 72.35 23.5L72.98 23.5L72.98 18.31Q72.98 17.63 72.79 17.07Q72.61 16.5 72.25 16.1Q72.18 16.02 72.1 15.94Q71.79 15.65 71.36 15.47Q70.84 15.25 70.16 15.25Q69.21 15.25 68.43 15.57ZM65.06 16.97Q65.13 16.92 65.2 16.83L65.57 16.32Q65.29 16.04 64.97 15.83Q64.71 15.66 64.42 15.54Q63.76 15.26 62.91 15.26Q61.99 15.26 61.28 15.58Q60.77 15.8 60.38 16.15Q60.22 16.29 60.09 16.44Q59.6 17 59.35 17.77Q59.1 18.53 59.1 19.44Q59.1 20.43 59.37 21.21Q59.64 21.98 60.12 22.51Q60.38 22.8 60.7 23.02Q60.96 23.2 61.26 23.33Q61.33 23.36 61.41 23.39Q61.99 23.61 62.67 23.61Q63.11 23.61 63.53 23.53Q63.95 23.46 64.34 23.31Q64.73 23.15 65.07 22.92Q65.14 22.87 65.2 22.82Q65.46 22.62 65.67 22.36L65.27 21.84Q65.22 21.78 65.16 21.74Q65.09 21.7 64.99 21.7Q64.85 21.7 64.7 21.83Q64.56 21.95 64.33 22.1Q64.11 22.26 63.78 22.38Q63.44 22.5 62.92 22.5Q62.38 22.5 61.94 22.3Q61.78 22.22 61.63 22.12Q61.39 21.95 61.2 21.71Q60.89 21.32 60.72 20.75Q60.56 20.17 60.56 19.44Q60.56 18.73 60.71 18.17Q60.87 17.6 61.17 17.2Q61.34 16.99 61.54 16.83Q61.72 16.69 61.94 16.59Q62.4 16.37 62.99 16.37Q63.44 16.37 63.75 16.48Q64.06 16.57 64.27 16.69Q64.48 16.82 64.63 16.92Q64.77 17.01 64.89 17.01Q65 17.01 65.06 16.97ZM90.05 22.92Q90.42 22.68 90.68 22.36L90.28 21.84Q90.24 21.78 90.18 21.74Q90.11 21.7 90.01 21.7Q89.87 21.7 89.69 21.83Q89.5 21.95 89.22 22.1Q88.94 22.24 88.55 22.36Q88.16 22.49 87.63 22.49Q87.05 22.49 86.58 22.3Q86.39 22.22 86.22 22.11Q85.98 21.95 85.79 21.73Q85.45 21.35 85.26 20.78Q85.08 20.21 85.05 19.45L90.47 19.45Q90.64 19.45 90.72 19.36Q90.73 19.35 90.74 19.33Q90.81 19.22 90.81 18.89Q90.81 18.02 90.55 17.35Q90.3 16.67 89.85 16.21Q89.7 16.06 89.53 15.94Q89.19 15.67 88.77 15.51Q88.15 15.26 87.43 15.26Q86.55 15.26 85.84 15.57Q85.31 15.81 84.9 16.18Q84.77 16.29 84.65 16.42Q84.63 16.44 84.62 16.46Q84.15 16.99 83.9 17.7Q83.64 18.43 83.64 19.28Q83.64 20.33 83.93 21.14Q84.22 21.94 84.73 22.49Q84.96 22.73 85.23 22.92Q85.56 23.16 85.96 23.32Q86.67 23.61 87.51 23.61Q87.95 23.61 88.39 23.53Q88.84 23.46 89.26 23.3Q89.68 23.15 90.05 22.92ZM92.56 15.39L92.56 23.5L93.99 23.5L93.99 17.46Q94.36 16.97 94.81 16.68Q95.05 16.53 95.31 16.46Q95.54 16.4 95.79 16.4Q96.36 16.4 96.72 16.67Q96.84 16.76 96.93 16.88Q97.32 17.36 97.32 18.33L97.32 23.5L98.76 23.5L98.76 18.33Q98.76 17.85 98.9 17.49Q99.04 17.13 99.27 16.89Q99.42 16.74 99.6 16.64Q99.71 16.57 99.83 16.52Q99.91 16.49 100 16.46Q100.24 16.4 100.5 16.4Q101.1 16.4 101.48 16.69Q101.6 16.77 101.7 16.89Q102.12 17.38 102.12 18.33L102.12 23.5L103.55 23.5L103.55 18.33Q103.55 17.6 103.37 17.03Q103.18 16.46 102.83 16.07Q102.7 15.92 102.55 15.8Q102.29 15.59 101.98 15.47Q101.48 15.26 100.85 15.26Q100.65 15.26 100.46 15.29Q100.25 15.31 100.05 15.36Q99.89 15.4 99.74 15.46Q99.52 15.54 99.32 15.66Q98.98 15.87 98.7 16.19Q98.43 16.51 98.25 16.95Q98.03 16.17 97.52 15.72Q97.43 15.64 97.34 15.58Q96.87 15.26 96.2 15.26Q95.58 15.26 95.08 15.51Q94.99 15.56 94.9 15.62Q94.34 15.97 93.89 16.52L93.79 15.69Q93.75 15.54 93.66 15.46Q93.56 15.39 93.41 15.39L92.56 15.39ZM107.99 25.89L112.51 15.39L111.38 15.39Q111.31 15.39 111.25 15.41Q111.18 15.43 111.12 15.48Q111.06 15.52 111.02 15.58Q110.98 15.63 110.95 15.69L108.85 20.78Q108.72 21.12 108.61 21.5Q108.52 21.13 108.4 20.79L106.23 15.69Q106.19 15.57 106.08 15.48L106.08 15.48Q105.97 15.39 105.79 15.39L104.56 15.39L107.9 23.02L106.42 26.24L107.48 26.24Q107.7 26.24 107.81 26.14Q107.91 26.05 107.99 25.89ZM89.39 17.65Q89.53 18.06 89.53 18.56L85.1 18.56Q85.24 17.5 85.84 16.91Q85.95 16.8 86.08 16.7Q86.63 16.31 87.46 16.31Q87.95 16.31 88.33 16.48Q88.58 16.58 88.79 16.75Q88.89 16.84 88.98 16.94Q88.99 16.95 89 16.96Q89.26 17.25 89.39 17.65ZM79.56 16.57Q80.03 16.78 80.43 17.32L80.43 21.23Q79.99 21.82 79.46 22.14Q79.44 22.15 79.41 22.17Q78.91 22.46 78.23 22.46Q77.75 22.46 77.36 22.29Q77.27 22.25 77.19 22.2Q76.92 22.04 76.71 21.76Q76.45 21.39 76.32 20.83Q76.18 20.26 76.18 19.47Q76.18 17.98 76.78 17.17Q77.01 16.87 77.3 16.68Q77.81 16.36 78.52 16.36Q79.1 16.36 79.56 16.57ZM69.91 20Q70.6 19.88 71.59 19.85L71.59 21.53Q71.35 21.78 71.09 21.98Q70.84 22.18 70.57 22.33Q70.29 22.47 69.98 22.55Q69.67 22.62 69.29 22.62Q69.01 22.62 68.77 22.56Q68.53 22.49 68.36 22.35Q68.35 22.34 68.34 22.34Q68.33 22.32 68.31 22.31Q68.15 22.17 68.06 21.96Q67.95 21.73 67.95 21.41Q67.95 21.23 68.01 21.07Q68.06 20.93 68.15 20.8Q68.35 20.53 68.78 20.33Q69.22 20.13 69.91 20Z" fill="#444444" fill-opacity="1.000000" fill-rule="evenodd"/>
	<rect id="Лого_html 1" width="27.000000" height="34.000000" transform="translate(136.000000 0.000000)" fill="#FFFFFF" fill-opacity="0"/>
	<g clip-path="url(#clip83854_424)">
		<path id="html academy " d="M149.64 0.01L149.5 0L136 1.4L136 26.01L149.5 34L163 26.01L163 1.4L149.64 0.01ZM161.23 25.01L149.5 31.95L137.76 25.01L137.76 14.92L149.45 21.84L149.47 23.09L141.45 18.35L141.44 19.58L149.48 24.38L149.5 25.67L141.46 20.91L141.45 22.14L149.5 26.95L157.62 22.11L157.62 20.89L157.62 16.9L161.24 14.75L161.23 25.01ZM161.23 13.45L158.01 15.33L156.53 16.2L149.46 12.02L149.45 13.24L155.49 16.81L155.44 16.84L155.31 16.92L154.45 17.41L149.46 14.46L149.45 15.69L153.39 18.02L152.45 18.63L152.43 18.64L149.46 16.9L149.45 18.12L151.4 19.26L149.41 20.44L137.79 13.57L149.43 6.61L161.23 13.45ZM161.23 12.22L149.44 5.31L137.76 12.21L137.76 2.98L149.5 1.76L161.23 2.98L161.23 12.22Z" fill="#68B738" fill-opacity="1.000000" fill-rule="nonzero"/>
	</g>
</svg>
