<svg width="80.000000" height="80.000000" viewBox="0 0 80 80" fill="none" xmlns="http://www.w3.org/2000/svg" xmlns:xlink="http://www.w3.org/1999/xlink">
	<desc>
			Created with Pixso.
	</desc>
	<defs/>
	<rect id="green back_4" width="80.000000" height="80.000000" fill="#68B738" fill-opacity="1.000000"/>
	<path id="Vector" d="M32.53 24C31.46 24 31.46 25.59 32.53 25.59L39.16 25.59L39.16 27.2C32.37 27.64 27 33.47 27 40.58C27 44.61 28.74 48.26 31.49 50.71C31.96 51.13 32.03 51.89 31.59 52.35L30.06 53.92C29.32 54.61 30.42 55.68 31.09 54.92L33.09 52.88C33.44 52.54 33.96 52.45 34.39 52.66C36.11 53.51 38 53.96 39.91 53.97C41.83 53.98 43.72 53.56 45.45 52.73C45.87 52.51 46.4 52.6 46.74 52.94L48.67 54.92C49.35 55.56 50.33 54.61 49.71 53.92L48.27 52.43C47.82 51.97 47.89 51.22 48.38 50.78C49.82 49.51 50.98 47.93 51.77 46.17C52.56 44.41 52.97 42.5 52.96 40.57C52.96 33.46 47.56 27.62 40.75 27.2L40.75 25.59L47.39 25.59C48.45 25.59 48.45 24 47.39 24L32.53 24ZM28.43 40.57C28.43 34 33.6 28.68 39.98 28.68C46.35 28.68 51.52 34 51.52 40.57C51.52 47.15 46.35 52.48 39.98 52.48C33.61 52.48 28.43 47.15 28.43 40.57ZM39.17 32.43C39.17 31.32 40.83 31.32 40.83 32.43L40.83 41.11C40.83 41.34 40.74 41.55 40.58 41.71C40.42 41.87 40.2 41.96 39.98 41.96C39.77 41.96 39.56 41.88 39.41 41.73C39.26 41.58 39.17 41.38 39.17 41.16L39.17 32.43ZM34.2 35.06C34.51 35.06 34.8 34.94 35.02 34.72C35.24 34.5 35.36 34.21 35.36 33.9C35.36 33.59 35.24 33.3 35.02 33.08C34.8 32.87 34.51 32.74 34.2 32.74C33.92 32.77 33.65 32.9 33.46 33.12C33.26 33.33 33.16 33.61 33.16 33.9C33.16 34.18 33.26 34.46 33.46 34.67C33.65 34.89 33.92 35.02 34.2 35.05L34.2 35.06ZM45.74 35.06C46.05 35.06 46.34 34.94 46.56 34.72C46.78 34.5 46.9 34.21 46.9 33.9C46.9 33.59 46.78 33.3 46.56 33.08C46.34 32.87 46.05 32.74 45.74 32.74C45.46 32.77 45.19 32.9 45 33.12C44.8 33.33 44.7 33.61 44.7 33.9C44.7 34.18 44.8 34.46 45 34.67C45.19 34.89 45.46 35.02 45.74 35.05L45.74 35.06ZM35.36 47.73C35.36 49.27 33.05 49.27 33.05 47.73C33.05 46.19 35.36 46.19 35.36 47.73ZM39.98 51.19C40.14 51.2 40.3 51.18 40.45 51.13C40.61 51.08 40.75 51 40.87 50.89C40.99 50.78 41.08 50.65 41.15 50.5C41.21 50.36 41.25 50.2 41.25 50.04C41.25 49.87 41.21 49.71 41.15 49.57C41.08 49.42 40.99 49.29 40.87 49.18C40.75 49.07 40.61 48.99 40.45 48.94C40.3 48.89 40.14 48.87 39.98 48.88C39.69 48.91 39.43 49.04 39.23 49.26C39.04 49.47 38.93 49.75 38.93 50.04C38.93 50.32 39.04 50.6 39.23 50.81C39.43 51.03 39.69 51.16 39.98 51.19ZM31.9 40.74C31.91 40.9 31.9 41.06 31.85 41.21C31.79 41.37 31.71 41.51 31.6 41.63C31.5 41.75 31.36 41.84 31.22 41.91C31.07 41.97 30.91 42.01 30.75 42.01C30.59 42.01 30.43 41.97 30.28 41.91C30.13 41.84 30 41.75 29.89 41.63C29.78 41.51 29.7 41.37 29.65 41.21C29.6 41.06 29.58 40.9 29.6 40.74C29.62 40.45 29.76 40.19 29.97 39.99C30.18 39.8 30.46 39.69 30.75 39.69C31.04 39.69 31.31 39.8 31.53 39.99C31.74 40.19 31.87 40.45 31.9 40.74ZM49.2 41.9C49.36 41.91 49.53 41.89 49.68 41.84C49.83 41.79 49.97 41.71 50.09 41.6C50.21 41.49 50.31 41.36 50.37 41.21C50.44 41.07 50.47 40.91 50.47 40.74C50.47 40.58 50.44 40.42 50.37 40.28C50.31 40.13 50.21 40 50.09 39.89C49.97 39.78 49.83 39.7 49.68 39.65C49.53 39.6 49.36 39.58 49.2 39.59C48.92 39.62 48.65 39.75 48.46 39.97C48.26 40.18 48.16 40.46 48.16 40.74C48.16 41.03 48.26 41.31 48.46 41.52C48.65 41.74 48.92 41.87 49.2 41.9ZM46.9 47.74C46.9 49.27 44.59 49.27 44.59 47.73C44.59 46.19 46.9 46.19 46.9 47.73L46.9 47.74Z" fill="#FFFFFF" fill-opacity="1.000000" fill-rule="nonzero"/>
</svg>
