<svg width="200.000000" height="211.000000" viewBox="0 0 200 211" fill="none" xmlns="http://www.w3.org/2000/svg" xmlns:xlink="http://www.w3.org/1999/xlink">
<defs>
<clipPath id="clip2403_757">
<rect id="cat-slim" width="140.000000" height="194.000000" transform="translate(30.000000 0.000000)" fill="white" fill-opacity="0"/>
</clipPath>
</defs>
<circle id="Ellipse 1" cx="100.000000" cy="111.000000" r="100.000000" fill="#68B738" fill-opacity="1.000000"/>
<rect id="cat-slim" width="140.000000" height="194.000000" transform="translate(30.000000 0.000000)" fill="#FFFFFF" fill-opacity="0"/>
<g clip-path="url(#clip2403_757)">
<path id="Vector" d="M139.67 0L138.92 0C137.63 0.72 136.61 1.83 136 3.18C134.87 5.34 134 7.63 133.42 10C133.29 10.71 132.93 11.36 132.39 11.84C131.86 12.33 131.18 12.62 130.46 12.68C128.25 13.05 126.16 13.93 124.35 15.24C122.54 16.55 121.05 18.26 120 20.24C118.55 22.8 117.31 25.47 116.3 28.24C113.46 35.59 111.28 43.2 108.6 50.62C107.34 54 107.28 54 103.48 54C98.93 54 99.26 53.3 99.2 58.3C99.2 59.88 99.68 60.68 101.36 60.6C101.88 60.6 102.66 60.34 102.86 61.02C103.06 61.7 102.38 62 101.98 62.4C99.6 64.8 96.6 66.49 93.31 67.28C89.52 68.3 85.64 69.1 81.93 70.33C72.44 73.51 63.66 77.96 56.82 85.48C52.82 90.15 49.61 95.44 47.34 101.16C40 118.44 36.43 136.64 33.68 155.02C32.38 163.64 31.46 172.3 30.76 181.02C30.4 185.3 30 189.64 30 194L96.66 194C96.77 193.12 96.61 192.22 96.2 191.44C95.55 189.84 94.51 188.44 93.17 187.36C91.83 186.29 90.23 185.57 88.54 185.3C87.14 184.98 86.98 184.56 87.84 183.46C89.24 181.58 90.31 179.49 91.02 177.26C94.28 167.64 95.54 157.6 97.12 147.66C98.01 140.06 100.34 132.71 104 126C106.84 121.05 110.64 116.72 115.18 113.26C116.84 112 116.9 112 117.18 114.14C117.38 115.56 117.42 117.02 117.52 118.46C118.12 127.9 118 137.39 117.16 146.82C116.4 154.13 116.3 161.49 116.86 168.82C117.65 177.32 119.17 185.75 121.4 194L148 194C147.65 191.83 146.65 189.82 145.14 188.24C143.62 186.65 141.66 185.56 139.52 185.12C137.01 184.72 134.45 184.85 132 185.52C130.8 185.8 130.3 185.52 130.2 184.22C129.37 173.63 130.04 162.98 132.2 152.58C134.86 140.57 136.91 128.43 138.32 116.22C138.84 111.28 140.39 106.51 142.88 102.22C145.25 97.98 147.34 93.58 149.67 89.31C150.6 87.77 151.16 86.02 151.31 84.22C151.46 82.42 151.18 80.61 150.52 78.93C149.98 77.51 149.46 76.08 148.8 74.72C146.8 70.81 144.8 66.96 142.96 63.02C141.98 61.02 142.2 60.78 144.38 60.72C147.64 60.72 147.64 60.72 147.7 57.43C147.7 57 147.7 56.56 147.7 56.12C147.7 54.74 147.17 53.98 145.7 54.12C144.7 54.12 143.7 54.12 142.66 54.12C141.28 54.12 140.88 53.54 141.22 52.12C141.89 49.81 143.22 47.74 145.04 46.17C146.86 44.6 149.09 43.59 151.48 43.26C155.91 42.87 160.37 43.16 164.72 44.12C165.22 44.27 165.76 44.23 166.23 43.99C166.7 43.75 167.05 43.33 167.22 42.84C168.02 40.84 168.9 38.84 169.8 36.84C170 36.48 170.09 36.07 170.05 35.66C170.02 35.26 169.86 34.87 169.6 34.56C163.2 26.43 156.25 18.86 146.8 14C146.34 13.8 145.94 13.49 145.63 13.1C145.32 12.71 145.12 12.25 145.03 11.76C144.5 8.9 143.65 6.11 142.5 3.43C141.95 2.01 140.96 0.8 139.67 0L139.67 0Z" fill="#000000" fill-opacity="1.000000" fill-rule="nonzero"/>
</g>
</svg>
