<svg width="268.000000" height="200.000000" viewBox="0 0 268 200" fill="none" xmlns="http://www.w3.org/2000/svg" xmlns:xlink="http://www.w3.org/1999/xlink">
<defs>
<clipPath id="clip2403_776">
<rect id="cat-pro" width="268.000000" height="112.000000" transform="translate(0.000000 44.000000)" fill="white" fill-opacity="0"/>
</clipPath>
</defs>
<circle id="Ellipse 2" cx="134.000000" cy="100.000000" r="100.000000" fill="#68B738" fill-opacity="1.000000"/>
<rect id="cat-pro" width="268.000000" height="112.000000" transform="translate(0.000000 44.000000)" fill="#FFFFFF" fill-opacity="0"/>
<g clip-path="url(#clip2403_776)">
<path id="Vector" d="M246.23 55.51C248.54 51.83 251.61 48.7 255.23 46.31C257.23 44.91 258.43 44.91 259.63 47.51C261.23 51.31 262.63 55.31 261.43 59.51C261.21 60.22 261.17 60.98 261.31 61.71C261.45 62.44 261.77 63.13 262.23 63.71C263.43 65.31 264.43 66.91 265.43 68.31C266.79 70.04 267.68 72.09 267.99 74.27C268.31 76.44 268.04 78.67 267.23 80.71C266.5 82.69 266.36 84.85 266.83 86.91C267.23 88.89 267.23 90.93 266.83 92.91C266.67 94.39 266.07 95.79 265.11 96.93C264.15 98.07 262.87 98.9 261.43 99.31C258.87 99.8 256.59 101.22 255.03 103.31C254.84 103.62 254.58 103.87 254.26 104.04C253.95 104.22 253.59 104.31 253.23 104.31C250.83 104.71 244.83 99.31 244.83 96.91L244.83 95.71C245.03 88.51 244.63 87.91 238.03 84.91C236.65 84.42 235.41 83.6 234.43 82.51C233.23 80.91 231.63 81.11 229.83 81.71C228.03 82.31 227.03 83.51 227.23 85.51C227.84 90.35 228.04 95.23 227.83 100.11C227.85 100.67 227.98 101.21 228.23 101.71C234.43 110.71 236.83 121.31 239.83 131.51C242.23 139.31 246.63 143.51 254.63 144.11C255.91 144.21 257.18 144.41 258.43 144.71C260.07 144.97 261.6 145.72 262.81 146.87C264.03 148.01 264.87 149.48 265.23 151.11C266.63 155.31 265.83 156.31 261.63 156.31L248.63 156.31C246.95 156.39 245.3 155.82 244.03 154.71C242.01 153 239.71 151.65 237.23 150.71C234.49 149.7 232.12 147.89 230.43 145.51C228.09 142.24 225.41 139.22 222.43 136.51C216.83 130.71 210.83 125.11 205.63 119.11C201.67 115.02 199.39 109.6 199.23 103.91C199.23 102.11 198.83 101.31 196.83 102.11C196.23 102.49 195.54 102.7 194.83 102.71C189.23 102.71 186.43 106.11 184.43 111.11C182.63 115.31 180.23 119.31 178.03 123.51C176.78 126.14 176.1 129 176.03 131.91C176.03 136.71 177.23 138.31 181.63 139.91C184.43 140.91 187.03 141.91 188.43 144.71C190.03 147.91 189.63 148.71 186.23 148.91L172.63 148.91C171.85 148.99 171.06 148.82 170.38 148.42C169.7 148.03 169.16 147.43 168.83 146.71L165.23 140.71C164.17 139.14 163.49 137.35 163.25 135.48C163 133.6 163.2 131.69 163.83 129.91C164.7 126.44 164.77 122.81 164.03 119.31C163.53 116.87 163.57 114.35 164.16 111.93C164.75 109.51 165.86 107.25 167.43 105.31C168.63 103.91 168.63 103.31 166.63 102.91C158.45 101.17 150.53 98.42 143.03 94.71C142.98 94.71 142.93 94.69 142.89 94.65C142.85 94.61 142.83 94.56 142.83 94.51C136.43 92.11 135.23 92.51 133.43 99.11C131.83 104.71 130.23 110.31 129.03 116.11C127.63 122.51 129.23 128.51 131.23 134.51C132.03 136.91 134.43 136.71 136.23 137.31C140.23 138.51 143.63 140.11 145.23 144.31C146.63 147.51 146.43 147.91 143.03 147.91C139.63 147.91 136.23 147.71 132.63 147.91C129.59 147.96 126.63 146.98 124.23 145.11C114.63 138.71 111.83 128.91 111.03 118.31C110.63 111.71 107.03 106.51 102.83 101.51C102.03 100.51 101.23 100.11 100.03 100.91C95.74 103.28 91.26 105.28 86.63 106.91C76.98 110.32 68.51 116.43 62.23 124.51C59.89 127.46 58.37 130.98 57.83 134.71C57.23 138.31 58.23 139.91 61.83 140.91C65.43 141.91 67.23 143.91 67.63 147.71C67.83 149.31 67.23 150.11 65.63 150.11L49.43 150.11C48.9 150.07 48.39 149.91 47.94 149.63C47.48 149.35 47.1 148.97 46.83 148.51C44.32 145.4 42.97 141.51 43.03 137.51C42.93 130.6 43.53 123.7 44.83 116.91C45.1 114.88 45.86 112.94 47.04 111.27C48.23 109.59 49.8 108.24 51.63 107.31C63.43 101.71 69.63 91.11 75.23 80.11C76.43 77.91 75.43 77.51 73.43 77.71C67.83 78.49 62.53 80.69 58.03 84.11C52.14 88.41 46.59 93.15 41.43 98.31C35.93 103.9 28.64 107.37 20.83 108.11C6.23 108.91 -0.57 100.71 0.03 87.51C0.17 83.01 1.86 78.69 4.83 75.31C5.86 73.97 7.27 72.97 8.87 72.44C10.48 71.9 12.2 71.86 13.83 72.31C16.83 73.11 17.63 74.71 16.43 77.71C15.83 78.91 15.03 79.91 14.43 81.11C13.57 82.33 12.89 83.68 12.43 85.11C10.23 91.11 13.23 95.31 19.43 95.91C26.03 96.51 31.43 93.71 36.43 89.71C42.46 84.89 47.83 79.31 52.43 73.11C55.87 68.58 60.2 64.81 65.15 62.02C70.11 59.24 75.58 57.5 81.23 56.91C85.83 56.31 89.83 54.31 94.23 53.11C102.46 50.6 111.03 49.39 119.63 49.51C123.62 49.67 127.59 48.92 131.23 47.31C141.03 43.31 151.23 43.31 161.43 45.31C169.43 46.91 177.43 48.91 185.23 50.91C189.87 51.77 194.65 51.64 199.23 50.51C208.01 48.28 216.99 46.94 226.03 46.51C231.96 46.22 237.86 47.39 243.23 49.91C247.23 51.71 247.23 51.71 246.23 55.51Z" fill="#000000" fill-opacity="1.000000" fill-rule="nonzero"/>
</g>
</svg>
