<svg width="168.000000" height="37.000000" viewBox="0 0 168 37" fill="none" xmlns="http://www.w3.org/2000/svg" xmlns:xlink="http://www.w3.org/1999/xlink">
	<desc>
			Created with Pixso.
	</desc>
	<defs>
		<clipPath id="clip15_923">
			<rect id="Лого_html 1" width="27.000000" height="34.000000" transform="translate(141.000000 1.500000)" fill="white" fill-opacity="0"/>
		</clipPath>
	</defs>
	<rect id="html-academy" width="168.000000" height="37.000000" fill="#FFFFFF" fill-opacity="0"/>
	<path id="HTML Academy" d="M86.86 24.69L86.86 12.9L85.43 12.9L85.43 17.39C85.16 17.09 84.84 16.86 84.48 16.7C84.13 16.52 83.71 16.44 83.21 16.44C82.67 16.44 82.18 16.55 81.74 16.77C81.31 16.98 80.94 17.28 80.64 17.66C80.34 18.03 80.11 18.48 79.95 19C79.79 19.51 79.71 20.07 79.71 20.66Q79.71 21.67 79.93 22.45C80.07 22.96 80.28 23.4 80.55 23.74C80.81 24.09 81.14 24.35 81.51 24.54C81.89 24.71 82.31 24.8 82.78 24.8Q83.61 24.8 84.25 24.45Q84.28 24.43 84.31 24.42C84.76 24.16 85.15 23.82 85.5 23.41L85.63 24.39C85.68 24.59 85.81 24.69 86.01 24.69L86.86 24.69ZM15.75 24.69L15.75 13.22L14.2 13.22L14.2 18.34L8.01 18.34L8.01 13.22L6.46 13.22L6.46 24.69L8.01 24.69L8.01 19.47L14.2 19.47L14.2 24.69L15.75 24.69ZM22.72 14.53L26.43 14.53L26.43 13.22L17.45 13.22L17.45 14.53L21.17 14.53L21.17 24.69L22.72 24.69L22.72 14.53ZM40.06 24.69L40.06 13.22L38.91 13.22Q38.71 13.22 38.59 13.26C38.51 13.29 38.44 13.36 38.38 13.49L34.49 20.54C34.42 20.66 34.36 20.8 34.3 20.94C34.24 21.08 34.18 21.22 34.13 21.37C34.08 21.22 34.02 21.08 33.95 20.94C33.9 20.8 33.83 20.67 33.77 20.54L29.81 13.49C29.74 13.36 29.67 13.29 29.59 13.26Q29.48 13.22 29.27 13.22L28.13 13.22L28.13 24.69L29.49 24.69L29.49 16.26C29.49 16.02 29.47 15.76 29.44 15.48L33.46 22.68C33.58 22.92 33.77 23.04 34.02 23.04L34.24 23.04C34.49 23.04 34.68 22.92 34.8 22.68L38.74 15.51Q38.72 15.71 38.71 15.9Q38.7 16.1 38.7 16.26L38.7 24.69L40.06 24.69ZM49.49 24.69L49.49 23.38L44.53 23.38L44.53 13.22L42.99 13.22L42.99 24.69L49.49 24.69ZM62.41 24.69L63.61 24.69L59.02 13.22L57.46 13.22L52.87 24.69L54.07 24.69Q54.23 24.69 54.34 24.62Q54.38 24.6 54.41 24.58C54.5 24.5 54.56 24.42 54.59 24.32L55.66 21.55L60.81 21.55L61.88 24.32C61.92 24.43 61.99 24.51 62.07 24.58C62.16 24.65 62.27 24.69 62.41 24.69ZM58.58 15.77L60.38 20.43L56.1 20.43L57.9 15.78C58.01 15.49 58.13 15.13 58.24 14.7Q58.32 15.01 58.41 15.29C58.47 15.47 58.52 15.63 58.58 15.77ZM73.44 16.76C72.92 16.97 72.44 17.29 71.99 17.73L72.25 18.18C72.3 18.26 72.36 18.32 72.43 18.37C72.49 18.42 72.58 18.45 72.67 18.45C72.8 18.45 72.92 18.4 73.04 18.32C73.17 18.23 73.32 18.13 73.49 18.02C73.67 17.91 73.87 17.81 74.11 17.73C74.35 17.64 74.64 17.59 74.99 17.59C75.52 17.59 75.91 17.75 76.19 18.08Q76.59 18.56 76.59 19.5L76.59 20.14C75.67 20.16 74.89 20.24 74.26 20.39C73.62 20.54 73.11 20.72 72.71 20.95C72.32 21.18 72.03 21.44 71.86 21.74C71.68 22.04 71.59 22.34 71.59 22.66C71.59 23.03 71.65 23.35 71.77 23.62Q71.95 24.02 72.25 24.28Q72.25 24.28 72.26 24.29C72.47 24.46 72.71 24.6 72.99 24.69C73.26 24.77 73.56 24.82 73.87 24.82Q74.34 24.82 74.71 24.73C74.97 24.67 75.21 24.6 75.43 24.5C75.66 24.39 75.87 24.26 76.07 24.11C76.28 23.96 76.48 23.78 76.7 23.58L76.86 24.35C76.9 24.48 76.96 24.58 77.03 24.62C77.11 24.67 77.21 24.69 77.35 24.69L77.99 24.69L77.99 19.5C77.99 19.05 77.92 18.63 77.8 18.26C77.68 17.88 77.5 17.55 77.26 17.29C77.02 17.02 76.72 16.81 76.37 16.66C76.02 16.51 75.61 16.44 75.16 16.44Q74.22 16.44 73.44 16.76ZM70.07 18.16C70.12 18.13 70.16 18.08 70.2 18.02L70.58 17.51C70.24 17.18 69.85 16.92 69.42 16.74C68.98 16.55 68.48 16.45 67.91 16.45C67.3 16.45 66.76 16.56 66.28 16.77C65.81 16.98 65.41 17.27 65.09 17.64C64.77 18.01 64.52 18.45 64.35 18.96C64.19 19.47 64.1 20.03 64.1 20.63C64.1 21.29 64.2 21.88 64.38 22.4C64.56 22.92 64.81 23.35 65.13 23.71C65.45 24.06 65.82 24.33 66.26 24.52C66.69 24.71 67.17 24.8 67.67 24.8C67.97 24.8 68.25 24.78 68.54 24.73C68.82 24.68 69.09 24.6 69.34 24.5C69.61 24.4 69.85 24.27 70.07 24.11C70.3 23.96 70.5 23.77 70.67 23.55L70.27 23.03C70.21 22.94 70.12 22.9 70 22.9C69.9 22.9 69.81 22.94 69.7 23.02C69.61 23.1 69.49 23.19 69.34 23.3C69.19 23.4 69.01 23.49 68.78 23.58C68.56 23.66 68.28 23.7 67.93 23.7C67.57 23.7 67.24 23.63 66.94 23.5C66.66 23.36 66.41 23.16 66.2 22.9C66 22.64 65.84 22.32 65.73 21.94C65.62 21.56 65.56 21.12 65.56 20.63Q65.56 19.93 65.71 19.36C65.82 18.98 65.97 18.66 66.18 18.39C66.38 18.12 66.64 17.92 66.94 17.78C67.25 17.64 67.6 17.57 68 17.57C68.3 17.57 68.55 17.6 68.75 17.67C68.96 17.74 69.13 17.81 69.27 17.89C69.42 17.97 69.54 18.04 69.63 18.11C69.73 18.18 69.82 18.21 69.9 18.21C69.97 18.21 70.03 18.19 70.07 18.16ZM95.05 24.11C95.3 23.95 95.51 23.76 95.68 23.55L95.28 23.03C95.22 22.94 95.13 22.9 95.01 22.9C94.92 22.9 94.81 22.94 94.68 23.02C94.56 23.1 94.41 23.19 94.22 23.29C94.03 23.38 93.81 23.47 93.55 23.56C93.29 23.64 92.98 23.68 92.63 23.68C92.24 23.68 91.9 23.62 91.59 23.5C91.28 23.37 91.01 23.18 90.79 22.93C90.56 22.67 90.39 22.35 90.26 21.98C90.14 21.6 90.07 21.15 90.05 20.64L95.47 20.64Q95.64 20.64 95.72 20.55Q95.73 20.54 95.74 20.53C95.79 20.45 95.81 20.3 95.81 20.08C95.81 19.5 95.73 18.99 95.56 18.54C95.38 18.09 95.15 17.71 94.84 17.41C94.54 17.1 94.19 16.86 93.77 16.7C93.36 16.54 92.91 16.45 92.43 16.45Q91.55 16.45 90.84 16.77C90.37 16.97 89.98 17.25 89.65 17.62C89.33 17.97 89.08 18.4 88.9 18.89C88.73 19.38 88.64 19.91 88.64 20.47C88.64 21.17 88.74 21.79 88.93 22.33C89.12 22.87 89.39 23.32 89.73 23.69C90.08 24.05 90.49 24.33 90.96 24.52C91.43 24.71 91.95 24.8 92.51 24.8C92.8 24.8 93.1 24.77 93.4 24.72C93.69 24.67 93.98 24.6 94.26 24.5C94.54 24.39 94.81 24.27 95.05 24.11ZM97.56 16.58L97.56 24.69L98.99 24.69L98.99 18.65C99.24 18.32 99.52 18.07 99.82 17.88C100.12 17.69 100.44 17.59 100.79 17.59Q101.36 17.59 101.72 17.86Q101.84 17.95 101.94 18.07C102.2 18.39 102.33 18.88 102.33 19.53L102.33 24.69L103.76 24.69L103.76 19.53C103.76 19.21 103.81 18.93 103.9 18.69C103.99 18.44 104.12 18.24 104.28 18.08C104.44 17.92 104.63 17.8 104.83 17.72C105.05 17.63 105.27 17.59 105.5 17.59Q106.1 17.59 106.48 17.87Q106.6 17.97 106.71 18.09C106.98 18.41 107.12 18.89 107.12 19.53L107.12 24.69L108.55 24.69L108.55 19.53Q108.55 18.79 108.37 18.22C108.25 17.84 108.07 17.52 107.83 17.26C107.6 16.99 107.32 16.8 106.99 16.66C106.65 16.52 106.28 16.45 105.85 16.45C105.58 16.45 105.32 16.49 105.06 16.55C104.8 16.62 104.56 16.72 104.33 16.86C104.1 16.99 103.89 17.17 103.71 17.38C103.52 17.6 103.37 17.85 103.26 18.14C103.11 17.63 102.86 17.21 102.52 16.91C102.18 16.61 101.74 16.45 101.2 16.45Q100.59 16.45 100.09 16.7Q100 16.75 99.9 16.81C99.53 17.04 99.2 17.34 98.9 17.71L98.79 16.88C98.74 16.68 98.62 16.58 98.42 16.58L97.56 16.58ZM112.99 27.08L117.51 16.58L116.38 16.58C116.28 16.58 116.19 16.61 116.11 16.67C116.04 16.72 115.99 16.79 115.95 16.88L113.85 21.98C113.76 22.2 113.68 22.44 113.61 22.69C113.55 22.44 113.48 22.21 113.39 21.98L111.23 16.88C111.2 16.8 111.15 16.74 111.07 16.68C111 16.62 110.91 16.58 110.79 16.58L109.55 16.58L112.9 24.22L111.42 27.43L112.47 27.43C112.62 27.43 112.73 27.4 112.8 27.34C112.88 27.27 112.94 27.19 112.99 27.08ZM94.39 18.85C94.48 19.12 94.53 19.42 94.53 19.75L90.1 19.75C90.2 19.05 90.44 18.5 90.84 18.1C91.24 17.7 91.78 17.5 92.46 17.5Q92.95 17.5 93.33 17.67C93.59 17.78 93.8 17.93 93.98 18.14C94.16 18.33 94.3 18.57 94.39 18.85ZM84.57 17.77C84.88 17.91 85.17 18.15 85.43 18.51L85.43 22.42C85.14 22.81 84.82 23.11 84.47 23.33C84.12 23.54 83.71 23.65 83.24 23.65C82.92 23.65 82.63 23.59 82.37 23.48C82.11 23.37 81.9 23.19 81.72 22.95C81.55 22.71 81.41 22.4 81.32 22.02C81.23 21.64 81.19 21.19 81.19 20.66C81.19 19.67 81.39 18.9 81.79 18.36Q82.02 18.06 82.31 17.88Q82.81 17.55 83.53 17.55C83.91 17.55 84.26 17.62 84.57 17.77ZM74.91 21.2C75.38 21.11 75.94 21.06 76.59 21.04L76.59 22.72C76.43 22.89 76.27 23.04 76.1 23.18C75.93 23.31 75.76 23.42 75.57 23.52C75.39 23.62 75.19 23.69 74.99 23.74C74.78 23.79 74.55 23.82 74.3 23.82C74.11 23.82 73.93 23.79 73.77 23.75C73.61 23.7 73.47 23.63 73.35 23.54C73.23 23.43 73.13 23.31 73.07 23.15C73 23 72.96 22.81 72.96 22.6C72.96 22.38 73.03 22.17 73.15 21.99C73.29 21.81 73.5 21.65 73.79 21.52Q74.23 21.32 74.91 21.2Z" fill="#444444" fill-opacity="1.000000" fill-rule="evenodd"/>
	<rect id="Лого_html 1" width="27.000000" height="34.000000" transform="translate(141.000000 1.500000)" fill="#FFFFFF" fill-opacity="0"/>
	<g clip-path="url(#clip15_923)">
		<path id="html academy " d="M154.64 1.51L154.5 1.5L141 2.9L141 27.51L154.5 35.5L168 27.51L168 2.9L154.64 1.51ZM166.23 26.51L154.5 33.45L142.76 26.51L142.76 16.42L154.45 23.34L154.47 24.59L146.45 19.85L146.44 21.08L154.48 25.88L154.5 27.17L146.46 22.41L146.45 23.64L154.5 28.45L162.62 23.61L162.62 22.39L162.62 18.4L166.24 16.25L166.23 26.51ZM166.23 14.95L163.01 16.83L161.53 17.7L154.46 13.52L154.45 14.74L160.49 18.31L160.44 18.34L160.31 18.42L159.45 18.91L154.46 15.96L154.45 17.19L158.39 19.52L157.45 20.13L157.43 20.14L154.46 18.4L154.45 19.62L156.4 20.76L154.41 21.94L142.79 15.07L154.43 8.11L166.23 14.95ZM166.23 13.72L154.44 6.81L142.76 13.71L142.76 4.48L154.5 3.26L166.23 4.48L166.23 13.72Z" fill="#666666" fill-opacity="1.000000" fill-rule="nonzero"/>
	</g>
</svg>
