<svg width="80.000000" height="80.000000" viewBox="0 0 80 80" fill="none" xmlns="http://www.w3.org/2000/svg" xmlns:xlink="http://www.w3.org/1999/xlink">
	<desc>
			Created with Pixso.
	</desc>
	<defs/>
	<rect id="green back_2" width="80.000000" height="80.000000" fill="#68B738" fill-opacity="1.000000"/>
	<path id="Vector" d="M37.86 26C36.23 26 34.96 27.36 34.96 29.09C34.96 30.83 36.23 32.19 37.86 32.19C39.49 32.19 40.75 30.83 40.75 29.09C40.75 27.36 39.49 26 37.86 26ZM37.86 27.18C38.85 27.18 39.58 28.03 39.58 29.09C39.58 30.1 38.79 31.01 37.86 31.01C36.86 31.01 36.14 30.16 36.14 29.09C36.14 28.09 36.91 27.18 37.86 27.18ZM27 50.89C27 52.07 27.4 53.07 28.35 53.89C29.35 54.75 30.52 54.68 30.52 54.68L49.53 54.68C50.31 54.68 51.34 54.29 52.16 53.22C53 52.22 52.94 50.85 52.94 50.85L52.94 33.53C52.94 33.09 52.83 32.92 52.2 32.92C51.57 32.92 51.51 33.2 51.51 33.52L51.51 50.84C51.5 51.14 51.44 51.93 50.77 52.57C50.04 53.2 49.32 53.12 49.32 53.12C49.32 53.12 31.22 53.12 30.32 53.09C29.97 53.03 29.41 52.9 28.87 52.18C28.36 51.45 28.46 50.54 28.46 50.54L28.46 33.22C28.46 32.75 28.23 32.58 27.74 32.58C27.25 32.58 27 32.75 27 33.16L27 50.89ZM43.29 34.47C42.2 34.71 41.11 34.86 39.03 36.84C36.95 38.85 35.41 38.76 33.87 38.67C32.33 38.58 30.71 37.12 30.43 36.75C30.1 36.4 29.53 36.63 29.35 36.87C29.19 37.11 29.19 37.52 29.46 37.87C30.72 39.06 31.9 39.97 34.16 40.15C36.43 40.37 38.6 39.34 40.05 37.87C41.49 36.42 42.22 36.14 43.3 35.96C45.93 35.54 47.47 36.58 48.37 37.24C49.37 38.33 49.64 38.02 49.91 37.71C50.45 36.99 49.69 36.43 48.83 35.8C47.02 34.61 45.3 34.15 43.3 34.52L43.29 34.47ZM34.24 41.68C33.06 41.68 32.15 42.68 32.15 43.96C32.15 45.23 33.06 46.24 34.24 46.24C35.41 46.24 36.32 45.23 36.32 43.96C36.32 42.68 35.41 41.68 34.24 41.68ZM46 42.46C44.46 42.46 43.2 43.83 43.2 45.47C43.2 47.11 44.46 48.48 46 48.48C47.54 48.48 48.81 47.11 48.81 45.47C48.81 43.83 47.54 42.46 46 42.46ZM46 43.92C46.8 43.92 47.45 44.62 47.45 45.47C47.45 46.34 46.8 47.02 46 47.02C45.21 47.02 44.55 46.32 44.55 45.47C44.55 44.6 45.21 43.92 46 43.92Z" fill="#FFFFFF" fill-opacity="1.000000" fill-rule="nonzero"/>
</svg>
