<svg width="28.000000" height="22.000000" viewBox="0 0 28 22" fill="none" xmlns="http://www.w3.org/2000/svg" xmlns:xlink="http://www.w3.org/1999/xlink">
	<desc>
			Created with Pixso.
	</desc>
	<defs>
		<clipPath id="clip10_883">
			<rect id="vkontakte" width="28.000000" height="22.000000" fill="white" fill-opacity="0"/>
		</clipPath>
	</defs>
	<rect id="vkontakte" width="28.000000" height="22.000000" fill="#FFFFFF" fill-opacity="0"/>
	<g clip-path="url(#clip10_883)">
		<path id="Vector" d="M1 5.33C1 4.48 1.51 4.02 2.54 3.95L6.51 3.98C6.78 3.98 6.95 4.1 7.04 4.35C7.45 5.61 7.91 6.7 8.42 7.61C8.92 8.52 9.58 9.58 10.4 10.77C10.47 10.92 10.59 10.99 10.75 10.99C10.87 10.99 10.97 10.93 11.04 10.82L11.12 10.54L11.15 6.19C11.15 5.89 11.07 5.69 10.92 5.59C10.77 5.48 10.49 5.41 10.08 5.36C9.76 5.31 9.6 5.12 9.6 4.81C9.6 4.74 9.61 4.69 9.63 4.65C10 3.57 11.07 3.02 12.82 3.02L14.32 3C14.99 3 15.55 3.15 16 3.47C16.44 3.79 16.66 4.29 16.66 4.98L16.66 10.69C16.79 10.77 16.9 10.82 17.01 10.82C17.27 10.82 17.5 10.67 17.7 10.36C19.65 7.78 20.71 6.05 20.87 5.18C20.87 5.17 20.89 5.12 20.92 5.06C21.05 4.81 21.25 4.59 21.54 4.4C21.82 4.22 22.07 4.09 22.28 4.03C22.35 3.99 22.43 3.98 22.52 3.98L26.65 3.98L26.92 4C27.27 4 27.55 4.16 27.74 4.48C27.82 4.58 27.86 4.69 27.89 4.81C27.92 4.92 27.94 5.04 27.94 5.16C27.95 5.28 27.96 5.34 27.96 5.36L27.96 5.54C27.83 6.22 27.52 6.96 27.01 7.74C26.51 8.52 25.86 9.36 25.08 10.26C24.3 11.17 23.81 11.76 23.62 12.05C23.46 12.25 23.38 12.43 23.38 12.6C23.38 12.74 23.45 12.89 23.59 13.05L27.48 17.68C27.69 17.95 27.8 18.24 27.8 18.56C27.8 18.95 27.64 19.27 27.32 19.52C27 19.77 26.62 19.91 26.17 19.94L25.72 19.97L21.67 19.97C21.65 19.97 21.62 19.97 21.56 19.98C21.51 19.99 21.47 20 21.46 20C21.07 20 20.7 19.84 20.36 19.52C20.24 19.38 19.41 18.39 17.86 16.55C17.77 16.43 17.65 16.32 17.49 16.22C17.42 16.49 17.32 16.88 17.21 17.38C17.09 17.88 17.01 18.24 16.95 18.46L16.87 18.89C16.7 19.48 16.32 19.83 15.76 19.94L15.38 19.97L12.77 19.97C11.3 19.97 9.83 19.33 8.36 18.06C6.9 16.78 5.58 15.14 4.41 13.12C3.23 11.1 2.14 8.75 1.13 6.06C1.04 5.85 1 5.6 1 5.33ZM17.01 11.85C16.63 11.85 16.3 11.75 16 11.56C15.69 11.37 15.54 11.1 15.54 10.77L15.54 4.98C15.54 4.65 15.45 4.41 15.28 4.27C15.1 4.12 14.79 4.05 14.34 4.05L12.82 4.1C12.06 4.1 11.48 4.23 11.09 4.48C11.87 4.83 12.27 5.4 12.27 6.19L12.27 10.61C12.23 11.03 12.05 11.38 11.73 11.66C11.41 11.94 11.06 12.07 10.67 12.07C10.13 12.07 9.73 11.83 9.44 11.34C8.06 9.37 7.03 7.49 6.35 5.71L6.11 5.06L2.57 5.03C2.34 5.03 2.21 5.04 2.18 5.07C2.15 5.09 2.14 5.17 2.14 5.28C2.14 5.43 2.16 5.59 2.19 5.76L2.75 7.17C4.25 10.81 5.87 13.67 7.62 15.77C9.37 17.87 11.08 18.91 12.77 18.91L15.44 18.91C15.54 18.91 15.62 18.88 15.68 18.83C15.73 18.77 15.77 18.65 15.81 18.49L15.86 18.23L16.37 16.02C16.51 15.72 16.63 15.52 16.74 15.42C16.94 15.23 17.17 15.14 17.43 15.14C17.86 15.14 18.3 15.38 18.74 15.87L21 18.59C21.15 18.8 21.3 18.91 21.46 18.91L25.85 18.91C26.39 18.91 26.65 18.79 26.65 18.54C26.65 18.45 26.63 18.37 26.57 18.29L22.71 13.73C22.41 13.38 22.26 13 22.26 12.6C22.26 12.2 22.4 11.81 22.68 11.44C22.91 11.11 23.36 10.55 24.03 9.77C24.69 8.99 25.28 8.26 25.77 7.58C26.27 6.91 26.6 6.29 26.76 5.74L26.84 5.41C26.82 5.38 26.81 5.32 26.81 5.25C26.81 5.17 26.8 5.11 26.79 5.06L22.6 5.06C22.34 5.16 22.12 5.31 21.96 5.51L21.8 5.99C21.36 7.14 20.2 8.93 18.31 11.34C17.94 11.68 17.5 11.85 17.01 11.85Z" fill="#666666" fill-opacity="1.000000" fill-rule="nonzero"/>
	</g>
</svg>
